<svg width="500" height="500" viewBox="0 0 500 500" fill="none" xmlns="http://www.w3.org/2000/svg">
<g clip-path="url(#clip0_233_303)">
<path d="M407.266 100.974L305.794 211.325C304.738 212.518 303.427 212.961 301.86 212.654L193.9 191.749C191.958 191.374 190.187 191.749 188.586 192.874L14.9704 312.987C13.5057 314.009 12.7734 315.406 12.7734 317.178V483.855C12.7734 486.002 13.8293 487.075 15.9412 487.075H50.838C52.5752 487.075 53.4608 486.206 53.4949 484.468C53.8355 441.773 53.8525 399.196 53.546 356.739C53.4438 341.252 88.3917 343.297 99.6323 343.092C115.88 342.734 121.551 353.008 121.449 368.393C121.177 407.068 121.194 445.742 121.5 484.417C121.5 486.189 122.386 487.075 124.157 487.075H161.149C161.471 487.075 161.79 487.012 162.087 486.888C162.385 486.765 162.655 486.584 162.883 486.357C163.111 486.129 163.291 485.858 163.415 485.561C163.538 485.263 163.601 484.944 163.601 484.622L163.448 266.271C163.447 263.525 164.362 260.86 166.048 258.701C167.734 256.542 170.093 255.014 172.747 254.362C187.717 250.681 231.096 243.372 231.147 270.462C231.181 341.474 231.198 412.486 231.198 483.497C231.198 485.883 232.39 487.075 234.774 487.075H271.051C273.401 487.075 274.576 485.9 274.576 483.548C274.678 419.863 274.678 356.313 274.576 292.9C274.542 282.644 280.248 277.072 291.693 276.186C313.765 274.5 342.326 267.395 342.326 295.098C342.326 357.898 342.326 420.715 342.326 483.548C342.326 485.9 343.518 487.075 345.903 487.075H382.179C384.563 487.075 385.756 485.9 385.756 483.548C385.79 388.344 385.79 293.258 385.756 198.292C385.756 186.877 390.984 180.777 401.441 179.993C413.039 179.125 453.352 173.4 453.403 193.487C453.471 290.498 453.488 387.662 453.454 484.98C453.454 485.522 453.664 486.042 454.038 486.425C454.412 486.809 454.919 487.024 455.447 487.024C463.418 487.024 495.147 484.315 498.672 491.624C501.567 497.553 499.728 500.501 493.154 500.467L6.18233 500.415C4.54268 500.415 2.97018 499.764 1.81077 498.604C0.651367 497.444 1.90399e-05 495.871 1.90399e-05 494.231V47.8685C-0.00288106 46.86 0.325594 45.8785 0.934896 45.0751C1.5442 44.2716 2.40056 43.6907 3.37219 43.4218C9.5034 41.7351 12.7223 45.2618 12.7223 51.2419C12.7564 133.328 12.7734 213.813 12.7734 292.696C12.7734 297.125 14.5957 298.079 18.2404 295.558L186.287 179.329C187.717 178.341 189.267 178.017 190.936 178.358L297.057 199.365C298.999 199.74 300.634 199.212 301.962 197.78L397.201 93.8695C397.616 93.4185 397.891 92.8568 397.994 92.2524C398.096 91.648 398.021 91.0268 397.778 90.4642C397.534 89.9015 397.133 89.4216 396.623 89.0825C396.112 88.7434 395.514 88.5598 394.901 88.5538L379.88 88.1449C377.666 88.0768 376.286 86.9693 375.741 84.8226C372.471 71.6357 410.025 75.1624 417.996 74.3446C418.688 74.28 419.387 74.362 420.046 74.5852C420.705 74.8085 421.309 75.1681 421.82 75.6406C422.331 76.1131 422.737 76.6879 423.011 77.3277C423.285 77.9674 423.422 78.6577 423.411 79.3536L422.543 121.726C422.475 123.872 421.368 125.014 419.222 125.15L413.295 125.457C410.774 125.593 409.582 124.417 409.718 121.93L410.74 102.405C410.911 98.7251 409.752 98.2481 407.266 100.974ZM440.681 194.867C440.681 194.094 440.374 193.353 439.828 192.807C439.282 192.261 438.541 191.954 437.769 191.954H401.39C401.008 191.954 400.629 192.029 400.276 192.175C399.922 192.322 399.601 192.536 399.331 192.807C399.06 193.077 398.846 193.399 398.7 193.752C398.553 194.106 398.478 194.484 398.478 194.867V484.162C398.478 484.544 398.553 484.923 398.7 485.277C398.846 485.63 399.06 485.951 399.331 486.222C399.601 486.492 399.922 486.707 400.276 486.853C400.629 487 401.008 487.075 401.39 487.075H437.769C438.541 487.075 439.282 486.768 439.828 486.222C440.374 485.675 440.681 484.934 440.681 484.162V194.867ZM219.702 267.702C219.702 266.861 219.368 266.055 218.774 265.461C218.18 264.867 217.374 264.533 216.534 264.533H179.44C178.6 264.533 177.794 264.867 177.2 265.461C176.606 266.055 176.272 266.861 176.272 267.702V483.906C176.272 484.747 176.606 485.553 177.2 486.147C177.794 486.741 178.6 487.075 179.44 487.075H216.534C217.374 487.075 218.18 486.741 218.774 486.147C219.368 485.553 219.702 484.747 219.702 483.906V267.702ZM329.604 290.805C329.604 289.991 329.281 289.211 328.706 288.636C328.131 288.061 327.351 287.738 326.538 287.738H290.466C289.653 287.738 288.873 288.061 288.299 288.636C287.724 289.211 287.401 289.991 287.401 290.805V484.008C287.401 484.822 287.724 485.602 288.299 486.177C288.873 486.752 289.653 487.075 290.466 487.075H326.538C327.351 487.075 328.131 486.752 328.706 486.177C329.281 485.602 329.604 484.822 329.604 484.008V290.805ZM108.625 359.397C108.625 358.692 108.345 358.016 107.847 357.518C107.348 357.019 106.672 356.739 105.968 356.739H69.0784C68.3737 356.739 67.6979 357.019 67.1997 357.518C66.7014 358.016 66.4215 358.692 66.4215 359.397V484.417C66.4215 485.122 66.7014 485.798 67.1997 486.297C67.6979 486.795 68.3737 487.075 69.0784 487.075H105.968C106.672 487.075 107.348 486.795 107.847 486.297C108.345 485.798 108.625 485.122 108.625 484.417V359.397Z" fill="#E5D7C4"/>
<path d="M46.7727 56H45.3636C45.2803 55.5947 45.1345 55.2386 44.9261 54.9318C44.7216 54.625 44.4716 54.3674 44.1761 54.1591C43.8845 53.947 43.5606 53.7879 43.2045 53.6818C42.8485 53.5758 42.4773 53.5227 42.0909 53.5227C41.3864 53.5227 40.7481 53.7008 40.1761 54.0568C39.608 54.4129 39.1553 54.9375 38.8182 55.6307C38.4848 56.3239 38.3182 57.1742 38.3182 58.1818C38.3182 59.1894 38.4848 60.0398 38.8182 60.733C39.1553 61.4261 39.608 61.9508 40.1761 62.3068C40.7481 62.6629 41.3864 62.8409 42.0909 62.8409C42.4773 62.8409 42.8485 62.7879 43.2045 62.6818C43.5606 62.5758 43.8845 62.4186 44.1761 62.2102C44.4716 61.9981 44.7216 61.7386 44.9261 61.4318C45.1345 61.1212 45.2803 60.7652 45.3636 60.3636H46.7727C46.6667 60.9583 46.4735 61.4905 46.1932 61.9602C45.9129 62.4299 45.5644 62.8295 45.1477 63.1591C44.7311 63.4848 44.2633 63.733 43.7443 63.9034C43.2292 64.0739 42.678 64.1591 42.0909 64.1591C41.0985 64.1591 40.2159 63.9167 39.4432 63.4318C38.6705 62.947 38.0625 62.2576 37.6193 61.3636C37.1761 60.4697 36.9545 59.4091 36.9545 58.1818C36.9545 56.9545 37.1761 55.8939 37.6193 55C38.0625 54.1061 38.6705 53.4167 39.4432 52.9318C40.2159 52.447 41.0985 52.2045 42.0909 52.2045C42.678 52.2045 43.2292 52.2898 43.7443 52.4602C44.2633 52.6307 44.7311 52.8807 45.1477 53.2102C45.5644 53.536 45.9129 53.9337 46.1932 54.4034C46.4735 54.8693 46.6667 55.4015 46.7727 56Z" fill="#E5D7C4"/>
<path d="M48.8679 64V55.2727H50.1634V56.5909H50.2543C50.4134 56.1591 50.7012 55.8087 51.1179 55.5398C51.5346 55.2708 52.0043 55.1364 52.527 55.1364C52.6255 55.1364 52.7486 55.1383 52.8963 55.142C53.044 55.1458 53.1558 55.1515 53.2315 55.1591V56.5227C53.1861 56.5114 53.0819 56.4943 52.919 56.4716C52.7599 56.4451 52.5914 56.4318 52.4134 56.4318C51.9891 56.4318 51.6103 56.5208 51.277 56.6989C50.9474 56.8731 50.6861 57.1155 50.4929 57.4261C50.3035 57.733 50.2088 58.0833 50.2088 58.4773V64H48.8679Z" fill="#E5D7C4"/>
<path d="M58.2145 64.1818C57.3736 64.1818 56.6482 63.9962 56.0384 63.625C55.4323 63.25 54.9645 62.7273 54.6349 62.0568C54.3092 61.3826 54.1463 60.5985 54.1463 59.7045C54.1463 58.8106 54.3092 58.0227 54.6349 57.3409C54.9645 56.6553 55.4228 56.1212 56.0099 55.7386C56.6009 55.3523 57.2902 55.1591 58.0781 55.1591C58.5327 55.1591 58.9815 55.2348 59.4247 55.3864C59.8679 55.5379 60.2713 55.7841 60.6349 56.125C60.9986 56.4621 61.2884 56.9091 61.5043 57.4659C61.7202 58.0227 61.8281 58.7083 61.8281 59.5227V60.0909H55.1009V58.9318H60.4645C60.4645 58.4394 60.366 58 60.169 57.6136C59.9759 57.2273 59.6993 56.9223 59.3395 56.6989C58.9834 56.4754 58.563 56.3636 58.0781 56.3636C57.544 56.3636 57.0819 56.4962 56.6918 56.7614C56.3054 57.0227 56.0081 57.3636 55.7997 57.7841C55.5914 58.2045 55.4872 58.6553 55.4872 59.1364V59.9091C55.4872 60.5682 55.6009 61.1269 55.8281 61.5852C56.0592 62.0398 56.3793 62.3864 56.7884 62.625C57.1974 62.8598 57.6728 62.9773 58.2145 62.9773C58.5668 62.9773 58.8849 62.928 59.169 62.8295C59.4569 62.7273 59.705 62.5758 59.9134 62.375C60.1217 62.1705 60.2827 61.9167 60.3963 61.6136L61.6918 61.9773C61.5554 62.4167 61.3262 62.803 61.0043 63.1364C60.6823 63.4659 60.2846 63.7235 59.8111 63.9091C59.3376 64.0909 58.8054 64.1818 58.2145 64.1818Z" fill="#E5D7C4"/>
<path d="M66.4361 64.2045C65.8831 64.2045 65.3812 64.1004 64.9304 63.892C64.4796 63.6799 64.1217 63.375 63.8565 62.9773C63.5914 62.5758 63.4588 62.0909 63.4588 61.5227C63.4588 61.0227 63.5573 60.6174 63.7543 60.3068C63.9512 59.9924 64.2145 59.7462 64.544 59.5682C64.8736 59.3902 65.2372 59.2576 65.6349 59.1705C66.0365 59.0795 66.4399 59.0076 66.8452 58.9545C67.3755 58.8864 67.8054 58.8352 68.1349 58.8011C68.4683 58.7633 68.7107 58.7008 68.8622 58.6136C69.0175 58.5265 69.0952 58.375 69.0952 58.1591V58.1136C69.0952 57.553 68.9418 57.1174 68.6349 56.8068C68.3319 56.4962 67.8717 56.3409 67.2543 56.3409C66.6141 56.3409 66.1122 56.4811 65.7486 56.7614C65.3849 57.0417 65.1293 57.3409 64.9815 57.6591L63.7088 57.2045C63.9361 56.6742 64.2391 56.2614 64.6179 55.9659C65.0005 55.6667 65.4171 55.4583 65.8679 55.3409C66.3224 55.2197 66.7694 55.1591 67.2088 55.1591C67.4891 55.1591 67.8111 55.1932 68.1747 55.2614C68.5421 55.3258 68.8963 55.4602 69.2372 55.6648C69.5819 55.8693 69.8679 56.178 70.0952 56.5909C70.3224 57.0038 70.4361 57.5568 70.4361 58.25V64H69.0952V62.8182H69.027C68.9361 63.0076 68.7846 63.2102 68.5724 63.4261C68.3603 63.642 68.0781 63.8258 67.7259 63.9773C67.3736 64.1288 66.9437 64.2045 66.4361 64.2045ZM66.6406 63C67.1709 63 67.6179 62.8958 67.9815 62.6875C68.349 62.4792 68.6255 62.2102 68.8111 61.8807C69.0005 61.5511 69.0952 61.2045 69.0952 60.8409V59.6136C69.0384 59.6818 68.9134 59.7443 68.7202 59.8011C68.5308 59.8542 68.3111 59.9015 68.0611 59.9432C67.8149 59.9811 67.5743 60.0152 67.3395 60.0455C67.1084 60.072 66.9209 60.0947 66.777 60.1136C66.4285 60.1591 66.1027 60.233 65.7997 60.3352C65.5005 60.4337 65.258 60.5833 65.0724 60.7841C64.8906 60.9811 64.7997 61.25 64.7997 61.5909C64.7997 62.0568 64.9721 62.4091 65.3168 62.6477C65.6652 62.8826 66.1065 63 66.6406 63Z" fill="#E5D7C4"/>
<path d="M76.679 55.2727V56.4091H72.1562V55.2727H76.679ZM73.4744 53.1818H74.8153V61.5C74.8153 61.8788 74.8703 62.1629 74.9801 62.3523C75.0937 62.5379 75.2377 62.6629 75.4119 62.7273C75.59 62.7879 75.7775 62.8182 75.9744 62.8182C76.1222 62.8182 76.2434 62.8106 76.3381 62.7955C76.4328 62.7765 76.5085 62.7614 76.5653 62.75L76.8381 63.9545C76.7472 63.9886 76.6203 64.0227 76.4574 64.0568C76.2945 64.0947 76.0881 64.1136 75.8381 64.1136C75.4593 64.1136 75.0881 64.0322 74.7244 63.8693C74.3646 63.7064 74.0653 63.4583 73.8267 63.125C73.5919 62.7917 73.4744 62.3712 73.4744 61.8636V53.1818Z" fill="#E5D7C4"/>
<path d="M82.2614 64.1818C81.4205 64.1818 80.6951 63.9962 80.0852 63.625C79.4792 63.25 79.0114 62.7273 78.6818 62.0568C78.3561 61.3826 78.1932 60.5985 78.1932 59.7045C78.1932 58.8106 78.3561 58.0227 78.6818 57.3409C79.0114 56.6553 79.4697 56.1212 80.0568 55.7386C80.6477 55.3523 81.3371 55.1591 82.125 55.1591C82.5795 55.1591 83.0284 55.2348 83.4716 55.3864C83.9148 55.5379 84.3182 55.7841 84.6818 56.125C85.0455 56.4621 85.3352 56.9091 85.5511 57.4659C85.767 58.0227 85.875 58.7083 85.875 59.5227V60.0909H79.1477V58.9318H84.5114C84.5114 58.4394 84.4129 58 84.2159 57.6136C84.0227 57.2273 83.7462 56.9223 83.3864 56.6989C83.0303 56.4754 82.6098 56.3636 82.125 56.3636C81.5909 56.3636 81.1288 56.4962 80.7386 56.7614C80.3523 57.0227 80.0549 57.3636 79.8466 57.7841C79.6383 58.2045 79.5341 58.6553 79.5341 59.1364V59.9091C79.5341 60.5682 79.6477 61.1269 79.875 61.5852C80.1061 62.0398 80.4261 62.3864 80.8352 62.625C81.2443 62.8598 81.7197 62.9773 82.2614 62.9773C82.6136 62.9773 82.9318 62.928 83.2159 62.8295C83.5038 62.7273 83.7519 62.5758 83.9602 62.375C84.1686 62.1705 84.3295 61.9167 84.4432 61.6136L85.7386 61.9773C85.6023 62.4167 85.3731 62.803 85.0511 63.1364C84.7292 63.4659 84.3314 63.7235 83.858 63.9091C83.3845 64.0909 82.8523 64.1818 82.2614 64.1818Z" fill="#E5D7C4"/>
<path d="M91.2102 64.1818C90.483 64.1818 89.8409 63.9981 89.2841 63.6307C88.7273 63.2595 88.2917 62.7367 87.9773 62.0625C87.6629 61.3845 87.5057 60.5833 87.5057 59.6591C87.5057 58.7424 87.6629 57.947 87.9773 57.2727C88.2917 56.5985 88.7292 56.0777 89.2898 55.7102C89.8504 55.3428 90.4981 55.1591 91.233 55.1591C91.8011 55.1591 92.25 55.2538 92.5795 55.4432C92.9129 55.6288 93.1667 55.8409 93.3409 56.0795C93.5189 56.3144 93.6572 56.5076 93.7557 56.6591H93.8693V52.3636H95.2102V64H93.9148V62.6591H93.7557C93.6572 62.8182 93.517 63.0189 93.3352 63.2614C93.1534 63.5 92.8939 63.714 92.5568 63.9034C92.2197 64.089 91.7708 64.1818 91.2102 64.1818ZM91.392 62.9773C91.9299 62.9773 92.3845 62.8371 92.7557 62.5568C93.1269 62.2727 93.4091 61.8807 93.6023 61.3807C93.7955 60.8769 93.892 60.2955 93.892 59.6364C93.892 58.9848 93.7973 58.4148 93.608 57.9261C93.4186 57.4337 93.1383 57.0511 92.767 56.7784C92.3958 56.5019 91.9375 56.3636 91.392 56.3636C90.8239 56.3636 90.3504 56.5095 89.9716 56.8011C89.5966 57.089 89.3144 57.4811 89.125 57.9773C88.9394 58.4697 88.8466 59.0227 88.8466 59.6364C88.8466 60.2576 88.9413 60.822 89.1307 61.3295C89.3239 61.8333 89.608 62.2348 89.983 62.5341C90.3617 62.8295 90.8314 62.9773 91.392 62.9773Z" fill="#E5D7C4"/>
<path d="M102.534 64V52.3636H106.602C107.413 52.3636 108.081 52.5038 108.608 52.7841C109.134 53.0606 109.527 53.4337 109.784 53.9034C110.042 54.3693 110.17 54.8864 110.17 55.4545C110.17 55.9545 110.081 56.3674 109.903 56.6932C109.729 57.0189 109.498 57.2765 109.21 57.4659C108.926 57.6553 108.617 57.7955 108.284 57.8864V58C108.64 58.0227 108.998 58.1477 109.358 58.375C109.718 58.6023 110.019 58.928 110.261 59.3523C110.504 59.7765 110.625 60.2955 110.625 60.9091C110.625 61.4924 110.492 62.017 110.227 62.483C109.962 62.9489 109.544 63.3182 108.972 63.5909C108.4 63.8636 107.655 64 106.739 64H102.534ZM103.943 62.75H106.739C107.659 62.75 108.312 62.572 108.699 62.2159C109.089 61.8561 109.284 61.4205 109.284 60.9091C109.284 60.5152 109.184 60.1515 108.983 59.8182C108.782 59.4811 108.496 59.2121 108.125 59.0114C107.754 58.8068 107.314 58.7045 106.807 58.7045H103.943V62.75ZM103.943 57.4773H106.557C106.981 57.4773 107.364 57.3939 107.705 57.2273C108.049 57.0606 108.322 56.8258 108.523 56.5227C108.727 56.2197 108.83 55.8636 108.83 55.4545C108.83 54.9432 108.652 54.5095 108.295 54.1534C107.939 53.7936 107.375 53.6136 106.602 53.6136H103.943V57.4773Z" fill="#E5D7C4"/>
<path d="M113.622 67.2727C113.395 67.2727 113.192 67.2538 113.014 67.2159C112.836 67.1818 112.713 67.1477 112.645 67.1136L112.986 65.9318C113.312 66.0152 113.599 66.0455 113.849 66.0227C114.099 66 114.321 65.8883 114.514 65.6875C114.711 65.4905 114.891 65.1705 115.054 64.7273L115.304 64.0455L112.077 55.2727H113.531L115.94 62.2273H116.031L118.44 55.2727H119.895L116.19 65.2727C116.024 65.7235 115.817 66.0966 115.571 66.392C115.325 66.6913 115.039 66.9129 114.713 67.0568C114.391 67.2008 114.027 67.2727 113.622 67.2727Z" fill="#E5D7C4"/>
<path d="M137.21 55.2727C137.142 54.697 136.866 54.25 136.381 53.9318C135.896 53.6136 135.301 53.4545 134.597 53.4545C134.081 53.4545 133.631 53.5379 133.244 53.7045C132.862 53.8712 132.562 54.1004 132.347 54.392C132.134 54.6837 132.028 55.0152 132.028 55.3864C132.028 55.697 132.102 55.964 132.25 56.1875C132.402 56.4072 132.595 56.5909 132.83 56.7386C133.064 56.8826 133.311 57.0019 133.568 57.0966C133.826 57.1875 134.063 57.2614 134.278 57.3182L135.46 57.6364C135.763 57.7159 136.1 57.8258 136.472 57.9659C136.847 58.1061 137.205 58.2973 137.545 58.5398C137.89 58.7784 138.174 59.0852 138.398 59.4602C138.621 59.8352 138.733 60.2955 138.733 60.8409C138.733 61.4697 138.568 62.0379 138.239 62.5455C137.913 63.053 137.436 63.4564 136.807 63.7557C136.182 64.0549 135.422 64.2045 134.528 64.2045C133.695 64.2045 132.973 64.0701 132.364 63.8011C131.758 63.5322 131.28 63.1572 130.932 62.6761C130.587 62.1951 130.392 61.6364 130.347 61H131.801C131.839 61.4394 131.987 61.803 132.244 62.0909C132.506 62.375 132.835 62.5871 133.233 62.7273C133.634 62.8636 134.066 62.9318 134.528 62.9318C135.066 62.9318 135.549 62.8447 135.977 62.6705C136.405 62.4924 136.744 62.2462 136.994 61.9318C137.244 61.6136 137.369 61.2424 137.369 60.8182C137.369 60.4318 137.261 60.1174 137.045 59.875C136.83 59.6326 136.545 59.4356 136.193 59.2841C135.841 59.1326 135.46 59 135.051 58.8864L133.619 58.4773C132.71 58.2159 131.991 57.8428 131.46 57.358C130.93 56.8731 130.665 56.2386 130.665 55.4545C130.665 54.803 130.841 54.2348 131.193 53.75C131.549 53.2614 132.027 52.8826 132.625 52.6136C133.227 52.3409 133.9 52.2045 134.642 52.2045C135.392 52.2045 136.059 52.339 136.642 52.608C137.225 52.8731 137.688 53.2367 138.028 53.6989C138.373 54.161 138.555 54.6856 138.574 55.2727H137.21Z" fill="#E5D7C4"/>
<path d="M142.209 58.75V64H140.868V52.3636H142.209V56.6364H142.322C142.527 56.1856 142.834 55.8277 143.243 55.5625C143.656 55.2936 144.205 55.1591 144.891 55.1591C145.485 55.1591 146.006 55.2784 146.453 55.517C146.9 55.7519 147.247 56.1136 147.493 56.6023C147.743 57.0871 147.868 57.7045 147.868 58.4545V64H146.527V58.5455C146.527 57.8523 146.347 57.3163 145.987 56.9375C145.631 56.5549 145.137 56.3636 144.504 56.3636C144.065 56.3636 143.671 56.4564 143.322 56.642C142.978 56.8277 142.705 57.0985 142.504 57.4545C142.307 57.8106 142.209 58.2424 142.209 58.75Z" fill="#E5D7C4"/>
<path d="M152.889 64.2045C152.336 64.2045 151.834 64.1004 151.384 63.892C150.933 63.6799 150.575 63.375 150.31 62.9773C150.045 62.5758 149.912 62.0909 149.912 61.5227C149.912 61.0227 150.01 60.6174 150.207 60.3068C150.404 59.9924 150.668 59.7462 150.997 59.5682C151.327 59.3902 151.69 59.2576 152.088 59.1705C152.49 59.0795 152.893 59.0076 153.298 58.9545C153.829 58.8864 154.259 58.8352 154.588 58.8011C154.921 58.7633 155.164 58.7008 155.315 58.6136C155.471 58.5265 155.548 58.375 155.548 58.1591V58.1136C155.548 57.553 155.395 57.1174 155.088 56.8068C154.785 56.4962 154.325 56.3409 153.707 56.3409C153.067 56.3409 152.565 56.4811 152.202 56.7614C151.838 57.0417 151.582 57.3409 151.435 57.6591L150.162 57.2045C150.389 56.6742 150.692 56.2614 151.071 55.9659C151.454 55.6667 151.87 55.4583 152.321 55.3409C152.776 55.2197 153.223 55.1591 153.662 55.1591C153.942 55.1591 154.264 55.1932 154.628 55.2614C154.995 55.3258 155.349 55.4602 155.69 55.6648C156.035 55.8693 156.321 56.178 156.548 56.5909C156.776 57.0038 156.889 57.5568 156.889 58.25V64H155.548V62.8182H155.48C155.389 63.0076 155.238 63.2102 155.026 63.4261C154.813 63.642 154.531 63.8258 154.179 63.9773C153.827 64.1288 153.397 64.2045 152.889 64.2045ZM153.094 63C153.624 63 154.071 62.8958 154.435 62.6875C154.802 62.4792 155.079 62.2102 155.264 61.8807C155.454 61.5511 155.548 61.2045 155.548 60.8409V59.6136C155.491 59.6818 155.366 59.7443 155.173 59.8011C154.984 59.8542 154.764 59.9015 154.514 59.9432C154.268 59.9811 154.027 60.0152 153.793 60.0455C153.562 60.072 153.374 60.0947 153.23 60.1136C152.882 60.1591 152.556 60.233 152.253 60.3352C151.954 60.4337 151.711 60.5833 151.526 60.7841C151.344 60.9811 151.253 61.25 151.253 61.5909C151.253 62.0568 151.425 62.4091 151.77 62.6477C152.118 62.8826 152.56 63 153.094 63Z" fill="#E5D7C4"/>
<path d="M165.518 57.2273L164.314 57.5682C164.238 57.3674 164.126 57.1723 163.979 56.983C163.835 56.7898 163.638 56.6307 163.388 56.5057C163.138 56.3807 162.818 56.3182 162.428 56.3182C161.893 56.3182 161.448 56.4413 161.092 56.6875C160.74 56.9299 160.564 57.2386 160.564 57.6136C160.564 57.947 160.685 58.2102 160.928 58.4034C161.17 58.5966 161.549 58.7576 162.064 58.8864L163.359 59.2045C164.14 59.3939 164.721 59.6837 165.104 60.0739C165.486 60.4602 165.678 60.9583 165.678 61.5682C165.678 62.0682 165.534 62.5152 165.246 62.9091C164.962 63.303 164.564 63.6136 164.053 63.8409C163.541 64.0682 162.946 64.1818 162.268 64.1818C161.378 64.1818 160.642 63.9886 160.058 63.6023C159.475 63.2159 159.106 62.6515 158.95 61.9091L160.223 61.5909C160.344 62.0606 160.573 62.4129 160.911 62.6477C161.251 62.8826 161.697 63 162.246 63C162.871 63 163.367 62.8674 163.734 62.6023C164.106 62.3333 164.291 62.0114 164.291 61.6364C164.291 61.3333 164.185 61.0795 163.973 60.875C163.761 60.6667 163.435 60.5114 162.996 60.4091L161.541 60.0682C160.742 59.8788 160.155 59.5852 159.78 59.1875C159.409 58.786 159.223 58.2841 159.223 57.6818C159.223 57.1894 159.361 56.7538 159.638 56.375C159.918 55.9962 160.299 55.6989 160.78 55.483C161.265 55.267 161.814 55.1591 162.428 55.1591C163.291 55.1591 163.969 55.3485 164.462 55.7273C164.958 56.1061 165.31 56.6061 165.518 57.2273Z" fill="#E5D7C4"/>
<path d="M169.037 58.75V64H167.696V52.3636H169.037V56.6364H169.151C169.355 56.1856 169.662 55.8277 170.071 55.5625C170.484 55.2936 171.033 55.1591 171.719 55.1591C172.313 55.1591 172.834 55.2784 173.281 55.517C173.728 55.7519 174.075 56.1136 174.321 56.6023C174.571 57.0871 174.696 57.7045 174.696 58.4545V64H173.355V58.5455C173.355 57.8523 173.175 57.3163 172.815 56.9375C172.459 56.5549 171.965 56.3636 171.332 56.3636C170.893 56.3636 170.499 56.4564 170.151 56.642C169.806 56.8277 169.533 57.0985 169.332 57.4545C169.135 57.8106 169.037 58.2424 169.037 58.75Z" fill="#E5D7C4"/>
<path d="M179.717 64.2045C179.164 64.2045 178.662 64.1004 178.212 63.892C177.761 63.6799 177.403 63.375 177.138 62.9773C176.873 62.5758 176.74 62.0909 176.74 61.5227C176.74 61.0227 176.839 60.6174 177.036 60.3068C177.232 59.9924 177.496 59.7462 177.825 59.5682C178.155 59.3902 178.518 59.2576 178.916 59.1705C179.318 59.0795 179.721 59.0076 180.126 58.9545C180.657 58.8864 181.087 58.8352 181.416 58.8011C181.75 58.7633 181.992 58.7008 182.143 58.6136C182.299 58.5265 182.376 58.375 182.376 58.1591V58.1136C182.376 57.553 182.223 57.1174 181.916 56.8068C181.613 56.4962 181.153 56.3409 180.536 56.3409C179.895 56.3409 179.393 56.4811 179.03 56.7614C178.666 57.0417 178.411 57.3409 178.263 57.6591L176.99 57.2045C177.217 56.6742 177.52 56.2614 177.899 55.9659C178.282 55.6667 178.698 55.4583 179.149 55.3409C179.604 55.2197 180.051 55.1591 180.49 55.1591C180.77 55.1591 181.092 55.1932 181.456 55.2614C181.823 55.3258 182.178 55.4602 182.518 55.6648C182.863 55.8693 183.149 56.178 183.376 56.5909C183.604 57.0038 183.717 57.5568 183.717 58.25V64H182.376V62.8182H182.308C182.217 63.0076 182.066 63.2102 181.854 63.4261C181.642 63.642 181.359 63.8258 181.007 63.9773C180.655 64.1288 180.225 64.2045 179.717 64.2045ZM179.922 63C180.452 63 180.899 62.8958 181.263 62.6875C181.63 62.4792 181.907 62.2102 182.092 61.8807C182.282 61.5511 182.376 61.2045 182.376 60.8409V59.6136C182.32 59.6818 182.195 59.7443 182.001 59.8011C181.812 59.8542 181.592 59.9015 181.342 59.9432C181.096 59.9811 180.856 60.0152 180.621 60.0455C180.39 60.072 180.202 60.0947 180.058 60.1136C179.71 60.1591 179.384 60.233 179.081 60.3352C178.782 60.4337 178.539 60.5833 178.354 60.7841C178.172 60.9811 178.081 61.25 178.081 61.5909C178.081 62.0568 178.253 62.4091 178.598 62.6477C178.946 62.8826 179.388 63 179.922 63Z" fill="#E5D7C4"/>
<path d="M187.506 58.75V64H186.165V55.2727H187.46V56.6364H187.574C187.778 56.1932 188.089 55.8371 188.506 55.5682C188.922 55.2955 189.46 55.1591 190.119 55.1591C190.71 55.1591 191.227 55.2803 191.67 55.5227C192.114 55.7614 192.458 56.125 192.705 56.6136C192.951 57.0985 193.074 57.7121 193.074 58.4545V64H191.733V58.5455C191.733 57.8598 191.555 57.3258 191.199 56.9432C190.843 56.5568 190.354 56.3636 189.733 56.3636C189.305 56.3636 188.922 56.4564 188.585 56.642C188.252 56.8277 187.989 57.0985 187.795 57.4545C187.602 57.8106 187.506 58.2424 187.506 58.75Z" fill="#E5D7C4"/>
<path d="M196.774 60.8182L196.751 59.1591H197.024L200.842 55.2727H202.501L198.433 59.3864H198.32L196.774 60.8182ZM195.524 64V52.3636H196.865V64H195.524ZM201.07 64L197.661 59.6818L198.615 58.75L202.774 64H201.07Z" fill="#E5D7C4"/>
<path d="M215.273 55.2727C215.205 54.697 214.928 54.25 214.443 53.9318C213.958 53.6136 213.364 53.4545 212.659 53.4545C212.144 53.4545 211.693 53.5379 211.307 53.7045C210.924 53.8712 210.625 54.1004 210.409 54.392C210.197 54.6837 210.091 55.0152 210.091 55.3864C210.091 55.697 210.165 55.964 210.312 56.1875C210.464 56.4072 210.657 56.5909 210.892 56.7386C211.127 56.8826 211.373 57.0019 211.631 57.0966C211.888 57.1875 212.125 57.2614 212.341 57.3182L213.523 57.6364C213.826 57.7159 214.163 57.8258 214.534 57.9659C214.909 58.1061 215.267 58.2973 215.608 58.5398C215.953 58.7784 216.237 59.0852 216.46 59.4602C216.684 59.8352 216.795 60.2955 216.795 60.8409C216.795 61.4697 216.631 62.0379 216.301 62.5455C215.975 63.053 215.498 63.4564 214.869 63.7557C214.244 64.0549 213.485 64.2045 212.591 64.2045C211.758 64.2045 211.036 64.0701 210.426 63.8011C209.82 63.5322 209.343 63.1572 208.994 62.6761C208.65 62.1951 208.455 61.6364 208.409 61H209.864C209.902 61.4394 210.049 61.803 210.307 62.0909C210.568 62.375 210.898 62.5871 211.295 62.7273C211.697 62.8636 212.129 62.9318 212.591 62.9318C213.129 62.9318 213.612 62.8447 214.04 62.6705C214.468 62.4924 214.807 62.2462 215.057 61.9318C215.307 61.6136 215.432 61.2424 215.432 60.8182C215.432 60.4318 215.324 60.1174 215.108 59.875C214.892 59.6326 214.608 59.4356 214.256 59.2841C213.903 59.1326 213.523 59 213.114 58.8864L211.682 58.4773C210.773 58.2159 210.053 57.8428 209.523 57.358C208.992 56.8731 208.727 56.2386 208.727 55.4545C208.727 54.803 208.903 54.2348 209.256 53.75C209.612 53.2614 210.089 52.8826 210.688 52.6136C211.29 52.3409 211.962 52.2045 212.705 52.2045C213.455 52.2045 214.121 52.339 214.705 52.608C215.288 52.8731 215.75 53.2367 216.091 53.6989C216.436 54.161 216.617 54.6856 216.636 55.2727H215.273Z" fill="#E5D7C4"/>
<path d="M218.93 64V55.2727H220.271V64H218.93ZM219.612 53.8182C219.351 53.8182 219.125 53.7292 218.936 53.5511C218.75 53.3731 218.658 53.1591 218.658 52.9091C218.658 52.6591 218.75 52.4451 218.936 52.267C219.125 52.089 219.351 52 219.612 52C219.874 52 220.097 52.089 220.283 52.267C220.472 52.4451 220.567 52.6591 220.567 52.9091C220.567 53.1591 220.472 53.3731 220.283 53.5511C220.097 53.7292 219.874 53.8182 219.612 53.8182Z" fill="#E5D7C4"/>
<path d="M224.068 58.75V64H222.727V55.2727H224.023V56.6364H224.136C224.341 56.1932 224.652 55.8371 225.068 55.5682C225.485 55.2955 226.023 55.1591 226.682 55.1591C227.273 55.1591 227.79 55.2803 228.233 55.5227C228.676 55.7614 229.021 56.125 229.267 56.6136C229.513 57.0985 229.636 57.7121 229.636 58.4545V64H228.295V58.5455C228.295 57.8598 228.117 57.3258 227.761 56.9432C227.405 56.5568 226.917 56.3636 226.295 56.3636C225.867 56.3636 225.485 56.4564 225.148 56.642C224.814 56.8277 224.551 57.0985 224.358 57.4545C224.165 57.8106 224.068 58.2424 224.068 58.75Z" fill="#E5D7C4"/>
<path d="M235.609 67.4545C234.962 67.4545 234.405 67.3712 233.939 67.2045C233.473 67.0417 233.085 66.8258 232.774 66.5568C232.467 66.2917 232.223 66.0076 232.041 65.7045L233.109 64.9545C233.231 65.1136 233.384 65.2955 233.57 65.5C233.755 65.7083 234.009 65.8883 234.331 66.0398C234.657 66.1951 235.083 66.2727 235.609 66.2727C236.314 66.2727 236.895 66.1023 237.354 65.7614C237.812 65.4205 238.041 64.8864 238.041 64.1591V62.3864H237.928C237.829 62.5455 237.689 62.7424 237.507 62.9773C237.329 63.2083 237.071 63.4148 236.734 63.5966C236.401 63.7746 235.95 63.8636 235.382 63.8636C234.678 63.8636 234.045 63.697 233.484 63.3636C232.928 63.0303 232.486 62.5455 232.161 61.9091C231.839 61.2727 231.678 60.5 231.678 59.5909C231.678 58.697 231.835 57.9186 232.149 57.2557C232.464 56.589 232.901 56.0739 233.462 55.7102C234.022 55.3428 234.67 55.1591 235.405 55.1591C235.973 55.1591 236.424 55.2538 236.757 55.4432C237.094 55.6288 237.352 55.8409 237.53 56.0795C237.712 56.3144 237.852 56.5076 237.95 56.6591H238.087V55.2727H239.382V64.25C239.382 65 239.212 65.6098 238.871 66.0795C238.534 66.553 238.079 66.8996 237.507 67.1193C236.939 67.3428 236.306 67.4545 235.609 67.4545ZM235.564 62.6591C236.102 62.6591 236.556 62.536 236.928 62.2898C237.299 62.0436 237.581 61.6894 237.774 61.2273C237.967 60.7652 238.064 60.2121 238.064 59.5682C238.064 58.9394 237.969 58.3845 237.78 57.9034C237.59 57.4223 237.31 57.0455 236.939 56.7727C236.568 56.5 236.109 56.3636 235.564 56.3636C234.996 56.3636 234.522 56.5076 234.143 56.7955C233.768 57.0833 233.486 57.4697 233.297 57.9545C233.111 58.4394 233.018 58.9773 233.018 59.5682C233.018 60.1742 233.113 60.7102 233.303 61.1761C233.496 61.6383 233.78 62.0019 234.155 62.267C234.534 62.5284 235.003 62.6591 235.564 62.6591Z" fill="#E5D7C4"/>
<path d="M243.178 58.75V64H241.837V52.3636H243.178V56.6364H243.291C243.496 56.1856 243.803 55.8277 244.212 55.5625C244.625 55.2936 245.174 55.1591 245.859 55.1591C246.454 55.1591 246.975 55.2784 247.422 55.517C247.869 55.7519 248.215 56.1136 248.462 56.6023C248.712 57.0871 248.837 57.7045 248.837 58.4545V64H247.496V58.5455C247.496 57.8523 247.316 57.3163 246.956 56.9375C246.6 56.5549 246.106 56.3636 245.473 56.3636C245.034 56.3636 244.64 56.4564 244.291 56.642C243.947 56.8277 243.674 57.0985 243.473 57.4545C243.276 57.8106 243.178 58.2424 243.178 58.75Z" fill="#E5D7C4"/>
<path d="M37.4091 83V71.3636H44.3864V72.6136H38.8182V76.5455H43.8636V77.7955H38.8182V83H37.4091Z" fill="#E5D7C4"/>
<path d="M46.5241 83V74.2727H47.8196V75.5909H47.9105C48.0696 75.1591 48.3575 74.8087 48.7741 74.5398C49.1908 74.2708 49.6605 74.1364 50.1832 74.1364C50.2817 74.1364 50.4048 74.1383 50.5526 74.142C50.7003 74.1458 50.812 74.1515 50.8878 74.1591V75.5227C50.8423 75.5114 50.7382 75.4943 50.5753 75.4716C50.4162 75.4451 50.2476 75.4318 50.0696 75.4318C49.6454 75.4318 49.2666 75.5208 48.9332 75.6989C48.6037 75.8731 48.3423 76.1155 48.1491 76.4261C47.9598 76.733 47.8651 77.0833 47.8651 77.4773V83H46.5241Z" fill="#E5D7C4"/>
<path d="M55.7571 83.1818C54.9692 83.1818 54.2779 82.9943 53.6832 82.6193C53.0923 82.2443 52.6302 81.7197 52.2969 81.0455C51.9673 80.3712 51.8026 79.5833 51.8026 78.6818C51.8026 77.7727 51.9673 76.9792 52.2969 76.3011C52.6302 75.6231 53.0923 75.0966 53.6832 74.7216C54.2779 74.3466 54.9692 74.1591 55.7571 74.1591C56.545 74.1591 57.2344 74.3466 57.8253 74.7216C58.42 75.0966 58.8821 75.6231 59.2116 76.3011C59.545 76.9792 59.7116 77.7727 59.7116 78.6818C59.7116 79.5833 59.545 80.3712 59.2116 81.0455C58.8821 81.7197 58.42 82.2443 57.8253 82.6193C57.2344 82.9943 56.545 83.1818 55.7571 83.1818ZM55.7571 81.9773C56.3556 81.9773 56.848 81.8239 57.2344 81.517C57.6207 81.2102 57.9067 80.8068 58.0923 80.3068C58.2779 79.8068 58.3707 79.2652 58.3707 78.6818C58.3707 78.0985 58.2779 77.5549 58.0923 77.0511C57.9067 76.5473 57.6207 76.1402 57.2344 75.8295C56.848 75.5189 56.3556 75.3636 55.7571 75.3636C55.1586 75.3636 54.6662 75.5189 54.2798 75.8295C53.8935 76.1402 53.6075 76.5473 53.4219 77.0511C53.2363 77.5549 53.1435 78.0985 53.1435 78.6818C53.1435 79.2652 53.2363 79.8068 53.4219 80.3068C53.6075 80.8068 53.8935 81.2102 54.2798 81.517C54.6662 81.8239 55.1586 81.9773 55.7571 81.9773Z" fill="#E5D7C4"/>
<path d="M61.7585 83V74.2727H63.054V75.6364H63.1676C63.3494 75.1705 63.643 74.8087 64.0483 74.5511C64.4536 74.2898 64.9403 74.1591 65.5085 74.1591C66.0843 74.1591 66.5634 74.2898 66.946 74.5511C67.3324 74.8087 67.6335 75.1705 67.8494 75.6364H67.9403C68.1638 75.1856 68.4991 74.8277 68.946 74.5625C69.393 74.2936 69.929 74.1591 70.554 74.1591C71.3343 74.1591 71.9725 74.4034 72.4688 74.892C72.965 75.3769 73.2131 76.1326 73.2131 77.1591V83H71.8722V77.1591C71.8722 76.5152 71.696 76.0549 71.3438 75.7784C70.9915 75.5019 70.5767 75.3636 70.0994 75.3636C69.4858 75.3636 69.0104 75.5492 68.6733 75.9205C68.3362 76.2879 68.1676 76.7538 68.1676 77.3182V83H66.804V77.0227C66.804 76.5265 66.643 76.1269 66.321 75.8239C65.9991 75.517 65.5843 75.3636 65.0767 75.3636C64.7282 75.3636 64.4025 75.4564 64.0994 75.642C63.8002 75.8277 63.5578 76.0852 63.3722 76.4148C63.1903 76.7405 63.0994 77.1174 63.0994 77.5455V83H61.7585Z" fill="#E5D7C4"/>
<path d="M89.5739 71.3636V83H88.2102L81.8693 73.8636H81.7557V83H80.3466V71.3636H81.7102L88.0739 80.5227H88.1875V71.3636H89.5739Z" fill="#E5D7C4"/>
<path d="M95.7571 83.1818C94.9692 83.1818 94.2779 82.9943 93.6832 82.6193C93.0923 82.2443 92.6302 81.7197 92.2969 81.0455C91.9673 80.3712 91.8026 79.5833 91.8026 78.6818C91.8026 77.7727 91.9673 76.9792 92.2969 76.3011C92.6302 75.6231 93.0923 75.0966 93.6832 74.7216C94.2779 74.3466 94.9692 74.1591 95.7571 74.1591C96.545 74.1591 97.2344 74.3466 97.8253 74.7216C98.42 75.0966 98.8821 75.6231 99.2116 76.3011C99.545 76.9792 99.7116 77.7727 99.7116 78.6818C99.7116 79.5833 99.545 80.3712 99.2116 81.0455C98.8821 81.7197 98.42 82.2443 97.8253 82.6193C97.2344 82.9943 96.545 83.1818 95.7571 83.1818ZM95.7571 81.9773C96.3556 81.9773 96.848 81.8239 97.2344 81.517C97.6207 81.2102 97.9067 80.8068 98.0923 80.3068C98.2779 79.8068 98.3707 79.2652 98.3707 78.6818C98.3707 78.0985 98.2779 77.5549 98.0923 77.0511C97.9067 76.5473 97.6207 76.1402 97.2344 75.8295C96.848 75.5189 96.3556 75.3636 95.7571 75.3636C95.1586 75.3636 94.6662 75.5189 94.2798 75.8295C93.8935 76.1402 93.6075 76.5473 93.4219 77.0511C93.2363 77.5549 93.1435 78.0985 93.1435 78.6818C93.1435 79.2652 93.2363 79.8068 93.4219 80.3068C93.6075 80.8068 93.8935 81.2102 94.2798 81.517C94.6662 81.8239 95.1586 81.9773 95.7571 81.9773Z" fill="#E5D7C4"/>
<path d="M107.259 79.4318V74.2727H108.599V83H107.259V81.5227H107.168C106.963 81.9659 106.645 82.3428 106.213 82.6534C105.781 82.9602 105.236 83.1136 104.577 83.1136C104.031 83.1136 103.546 82.9943 103.122 82.7557C102.698 82.5133 102.365 82.1496 102.122 81.6648C101.88 81.1761 101.759 80.5606 101.759 79.8182V74.2727H103.099V79.7273C103.099 80.3636 103.277 80.8712 103.634 81.25C103.993 81.6288 104.452 81.8182 105.009 81.8182C105.342 81.8182 105.681 81.733 106.026 81.5625C106.374 81.392 106.666 81.1307 106.901 80.7784C107.139 80.4261 107.259 79.9773 107.259 79.4318Z" fill="#E5D7C4"/>
<path d="M112.396 77.75V83H111.055V74.2727H112.351V75.6364H112.464C112.669 75.1932 112.98 74.8371 113.396 74.5682C113.813 74.2955 114.351 74.1591 115.01 74.1591C115.601 74.1591 116.118 74.2803 116.561 74.5227C117.004 74.7614 117.349 75.125 117.595 75.6136C117.841 76.0985 117.964 76.7121 117.964 77.4545V83H116.624V77.5455C116.624 76.8598 116.446 76.3258 116.089 75.9432C115.733 75.5568 115.245 75.3636 114.624 75.3636C114.196 75.3636 113.813 75.4564 113.476 75.642C113.143 75.8277 112.879 76.0985 112.686 76.4545C112.493 76.8106 112.396 77.2424 112.396 77.75Z" fill="#E5D7C4"/>
<path d="M125.097 83V71.3636H129.028C129.941 71.3636 130.687 71.5284 131.267 71.858C131.85 72.1837 132.282 72.625 132.562 73.1818C132.843 73.7386 132.983 74.3598 132.983 75.0455C132.983 75.7311 132.843 76.3542 132.562 76.9148C132.286 77.4754 131.858 77.9223 131.278 78.2557C130.699 78.5852 129.956 78.75 129.051 78.75H126.233V77.5H129.006C129.631 77.5 130.133 77.392 130.511 77.1761C130.89 76.9602 131.165 76.6686 131.335 76.3011C131.509 75.9299 131.597 75.5114 131.597 75.0455C131.597 74.5795 131.509 74.1629 131.335 73.7955C131.165 73.428 130.888 73.1402 130.506 72.9318C130.123 72.7197 129.616 72.6136 128.983 72.6136H126.506V83H125.097Z" fill="#E5D7C4"/>
<path d="M135.071 83V74.2727H136.366V75.5909H136.457C136.616 75.1591 136.904 74.8087 137.321 74.5398C137.738 74.2708 138.207 74.1364 138.73 74.1364C138.829 74.1364 138.952 74.1383 139.099 74.142C139.247 74.1458 139.359 74.1515 139.435 74.1591V75.5227C139.389 75.5114 139.285 75.4943 139.122 75.4716C138.963 75.4451 138.795 75.4318 138.616 75.4318C138.192 75.4318 137.813 75.5208 137.48 75.6989C137.151 75.8731 136.889 76.1155 136.696 76.4261C136.507 76.733 136.412 77.0833 136.412 77.4773V83H135.071Z" fill="#E5D7C4"/>
<path d="M144.304 83.1818C143.516 83.1818 142.825 82.9943 142.23 82.6193C141.639 82.2443 141.177 81.7197 140.844 81.0455C140.514 80.3712 140.349 79.5833 140.349 78.6818C140.349 77.7727 140.514 76.9792 140.844 76.3011C141.177 75.6231 141.639 75.0966 142.23 74.7216C142.825 74.3466 143.516 74.1591 144.304 74.1591C145.092 74.1591 145.781 74.3466 146.372 74.7216C146.967 75.0966 147.429 75.6231 147.759 76.3011C148.092 76.9792 148.259 77.7727 148.259 78.6818C148.259 79.5833 148.092 80.3712 147.759 81.0455C147.429 81.7197 146.967 82.2443 146.372 82.6193C145.781 82.9943 145.092 83.1818 144.304 83.1818ZM144.304 81.9773C144.902 81.9773 145.395 81.8239 145.781 81.517C146.168 81.2102 146.454 80.8068 146.639 80.3068C146.825 79.8068 146.918 79.2652 146.918 78.6818C146.918 78.0985 146.825 77.5549 146.639 77.0511C146.454 76.5473 146.168 76.1402 145.781 75.8295C145.395 75.5189 144.902 75.3636 144.304 75.3636C143.705 75.3636 143.213 75.5189 142.827 75.8295C142.44 76.1402 142.154 76.5473 141.969 77.0511C141.783 77.5549 141.69 78.0985 141.69 78.6818C141.69 79.2652 141.783 79.8068 141.969 80.3068C142.154 80.8068 142.44 81.2102 142.827 81.517C143.213 81.8239 143.705 81.9773 144.304 81.9773Z" fill="#E5D7C4"/>
<path d="M150.305 74.2727H151.646V83.6364C151.646 84.1742 151.554 84.6402 151.368 85.0341C151.186 85.428 150.91 85.733 150.538 85.9489C150.171 86.1648 149.707 86.2727 149.146 86.2727C149.101 86.2727 149.055 86.2727 149.01 86.2727C148.964 86.2727 148.919 86.2727 148.874 86.2727V85.0227C148.919 85.0227 148.961 85.0227 148.999 85.0227C149.036 85.0227 149.078 85.0227 149.124 85.0227C149.533 85.0227 149.832 84.9015 150.021 84.6591C150.211 84.4205 150.305 84.0795 150.305 83.6364V74.2727ZM150.964 72.8182C150.703 72.8182 150.478 72.7292 150.288 72.5511C150.103 72.3731 150.01 72.1591 150.01 71.9091C150.01 71.6591 150.103 71.4451 150.288 71.267C150.478 71.089 150.703 71 150.964 71C151.226 71 151.449 71.089 151.635 71.267C151.824 71.4451 151.919 71.6591 151.919 71.9091C151.919 72.1591 151.824 72.3731 151.635 72.5511C151.449 72.7292 151.226 72.8182 150.964 72.8182Z" fill="#E5D7C4"/>
<path d="M157.761 83.1818C156.92 83.1818 156.195 82.9962 155.585 82.625C154.979 82.25 154.511 81.7273 154.182 81.0568C153.856 80.3826 153.693 79.5985 153.693 78.7045C153.693 77.8106 153.856 77.0227 154.182 76.3409C154.511 75.6553 154.97 75.1212 155.557 74.7386C156.148 74.3523 156.837 74.1591 157.625 74.1591C158.08 74.1591 158.528 74.2348 158.972 74.3864C159.415 74.5379 159.818 74.7841 160.182 75.125C160.545 75.4621 160.835 75.9091 161.051 76.4659C161.267 77.0227 161.375 77.7083 161.375 78.5227V79.0909H154.648V77.9318H160.011C160.011 77.4394 159.913 77 159.716 76.6136C159.523 76.2273 159.246 75.9223 158.886 75.6989C158.53 75.4754 158.11 75.3636 157.625 75.3636C157.091 75.3636 156.629 75.4962 156.239 75.7614C155.852 76.0227 155.555 76.3636 155.347 76.7841C155.138 77.2045 155.034 77.6553 155.034 78.1364V78.9091C155.034 79.5682 155.148 80.1269 155.375 80.5852C155.606 81.0398 155.926 81.3864 156.335 81.625C156.744 81.8598 157.22 81.9773 157.761 81.9773C158.114 81.9773 158.432 81.928 158.716 81.8295C159.004 81.7273 159.252 81.5758 159.46 81.375C159.669 81.1705 159.83 80.9167 159.943 80.6136L161.239 80.9773C161.102 81.4167 160.873 81.803 160.551 82.1364C160.229 82.4659 159.831 82.7235 159.358 82.9091C158.884 83.0909 158.352 83.1818 157.761 83.1818Z" fill="#E5D7C4"/>
<path d="M166.96 83.1818C166.142 83.1818 165.437 82.9886 164.847 82.6023C164.256 82.2159 163.801 81.6837 163.483 81.0057C163.165 80.3276 163.006 79.553 163.006 78.6818C163.006 77.7955 163.169 77.0133 163.494 76.3352C163.824 75.6534 164.282 75.1212 164.869 74.7386C165.46 74.3523 166.15 74.1591 166.938 74.1591C167.551 74.1591 168.104 74.2727 168.597 74.5C169.089 74.7273 169.492 75.0455 169.807 75.4545C170.121 75.8636 170.316 76.3409 170.392 76.8864H169.051C168.949 76.4886 168.722 76.1364 168.369 75.8295C168.021 75.5189 167.551 75.3636 166.96 75.3636C166.437 75.3636 165.979 75.5 165.585 75.7727C165.195 76.0417 164.89 76.4223 164.67 76.9148C164.455 77.4034 164.347 77.9773 164.347 78.6364C164.347 79.3106 164.453 79.8977 164.665 80.3977C164.881 80.8977 165.184 81.286 165.574 81.5625C165.968 81.839 166.43 81.9773 166.96 81.9773C167.309 81.9773 167.625 81.9167 167.909 81.7955C168.193 81.6742 168.434 81.5 168.631 81.2727C168.828 81.0455 168.968 80.7727 169.051 80.4545H170.392C170.316 80.9697 170.129 81.4337 169.83 81.8466C169.534 82.2557 169.142 82.5814 168.653 82.8239C168.169 83.0625 167.604 83.1818 166.96 83.1818Z" fill="#E5D7C4"/>
<path d="M176.148 74.2727V75.4091H171.625V74.2727H176.148ZM172.943 72.1818H174.284V80.5C174.284 80.8788 174.339 81.1629 174.449 81.3523C174.563 81.5379 174.706 81.6629 174.881 81.7273C175.059 81.7879 175.246 81.8182 175.443 81.8182C175.591 81.8182 175.712 81.8106 175.807 81.7955C175.902 81.7765 175.977 81.7614 176.034 81.75L176.307 82.9545C176.216 82.9886 176.089 83.0227 175.926 83.0568C175.763 83.0947 175.557 83.1136 175.307 83.1136C174.928 83.1136 174.557 83.0322 174.193 82.8693C173.833 82.7064 173.534 82.4583 173.295 82.125C173.061 81.7917 172.943 81.3712 172.943 80.8636V72.1818Z" fill="#E5D7C4"/>
</g>
<defs>
<clipPath id="clip0_233_303">
<rect width="500" height="500" fill="white"/>
</clipPath>
</defs>
</svg>
