<svg width="500" height="500" viewBox="0 0 500 500" fill="none" xmlns="http://www.w3.org/2000/svg">
<g clip-path="url(#clip0_233_311)">
<path d="M106.816 236.835C147.025 159.519 187.224 82.1645 227.413 4.77251C229.886 0.0301652 235.47 -2.3836 238.359 3.32425C312.33 149.703 386.302 296.062 460.273 442.403C466.968 455.636 440.771 472.475 431.437 476.025C410.008 484.185 387.876 489.618 365.04 492.325C293.736 500.769 222.255 502.245 150.599 496.755C119.484 494.37 88.9809 488.643 59.0886 479.575C47.0316 475.912 5.3324 459.697 12.2776 440.955C23.2789 411.308 34.8728 381.803 47.0594 352.44C47.6521 351.02 47.2353 350.045 45.8093 349.515C-50.5073 313.735 22.3621 173.992 105.677 237.091C105.766 237.157 105.868 237.204 105.976 237.227C106.084 237.25 106.195 237.25 106.303 237.225C106.411 237.201 106.512 237.154 106.601 237.087C106.689 237.019 106.763 236.934 106.816 236.835ZM232.275 170.471C239.554 170.243 239.554 177.314 238.637 182.909C238.54 183.498 238.571 184.103 238.727 184.679C238.884 185.256 239.162 185.791 239.543 186.248C239.924 186.705 240.398 187.072 240.932 187.324C241.466 187.576 242.048 187.707 242.637 187.708C270.289 187.632 297.31 191.589 323.702 199.578C324.776 199.919 325.054 199.578 324.536 198.555L240.026 31.2672C239.963 31.1439 239.863 31.0472 239.74 30.992C239.617 30.9368 239.478 30.9262 239.345 30.9617C239.213 30.9972 239.093 31.077 239.005 31.1887C238.917 31.3003 238.866 31.4377 238.859 31.5795C238.887 39.2752 242.415 60.6583 232.608 62.6461C232.037 62.7585 231.448 62.7411 230.884 62.5953C230.32 62.4494 229.794 62.1787 229.343 61.8021C228.893 61.4256 228.529 60.9525 228.277 60.4162C228.025 59.88 227.891 59.2938 227.886 58.6989L227.691 33.397C227.673 30.2165 226.932 30.0271 225.469 32.829L139.459 198.101C139.385 198.251 139.356 198.419 139.373 198.586C139.39 198.753 139.453 198.912 139.555 199.043C139.657 199.174 139.794 199.273 139.949 199.327C140.104 199.382 140.272 199.39 140.431 199.351C168.36 191.153 196.91 187.234 226.08 187.594C227.173 187.613 227.719 187.064 227.719 185.947C227.719 182.028 226.33 170.641 232.275 170.471ZM227.997 218.008L227.636 200.458C227.621 199.989 227.426 199.544 227.094 199.22C226.761 198.896 226.317 198.718 225.858 198.726C205.911 198.839 141.904 202.616 128.708 218.945C128.241 219.525 127.91 220.206 127.741 220.937C127.572 221.668 127.569 222.429 127.733 223.161C127.896 223.894 128.222 224.578 128.685 225.161C129.148 225.745 129.735 226.212 130.402 226.527C167.323 243.934 215.968 246.234 256.778 243.281C285.976 241.151 309.478 238.17 333.509 226.186C334.244 225.816 334.872 225.256 335.33 224.561C335.788 223.866 336.06 223.061 336.119 222.225C336.178 221.39 336.022 220.553 335.666 219.798C335.311 219.043 334.768 218.396 334.092 217.922C311.395 202.134 267.557 199.038 240.748 198.839C239.674 198.839 239.091 199.388 238.998 200.486C238.526 206.308 242.109 225.05 229.83 220.592C228.626 220.156 228.015 219.295 227.997 218.008ZM116.456 286.757C116.456 272.485 110.91 258.798 101.037 248.706C91.1641 238.614 77.7736 232.945 63.8113 232.945C49.849 232.945 36.4586 238.614 26.5857 248.706C16.7129 258.798 11.1664 272.485 11.1664 286.757C11.1664 301.029 16.7129 314.717 26.5857 324.809C36.4586 334.901 49.849 340.57 63.8113 340.57C77.7736 340.57 91.1641 334.901 101.037 324.809C110.91 314.717 116.456 301.029 116.456 286.757ZM230.33 300.218C229.581 299.972 228.928 299.487 228.463 298.834C227.999 298.181 227.748 297.393 227.747 296.583V257.054C227.747 256.145 227.302 255.672 226.413 255.634C192.215 254.413 153.961 251.971 121.846 234.506C121.068 234.09 120.475 234.279 120.068 235.074L114.873 245.354C114.428 246.225 114.484 247.067 115.039 247.882C147.821 295.021 114.706 350.481 59.8664 352.383C58.9219 352.421 58.2736 352.885 57.9218 353.775L29.9186 425.961C29.8722 426.053 29.8578 426.158 29.8779 426.259C29.898 426.361 29.9513 426.452 30.029 426.518C30.1067 426.584 30.2042 426.622 30.3053 426.623C30.4065 426.625 30.5052 426.592 30.5853 426.529C56.9216 410.532 84.9989 399.409 114.817 393.162C179.102 379.702 243.924 376.654 309.284 384.018C352.955 388.959 399.516 400.006 436.965 424.143C437.104 424.239 437.27 424.285 437.437 424.274C437.604 424.262 437.762 424.194 437.887 424.079C438.011 423.965 438.095 423.811 438.124 423.643C438.154 423.474 438.127 423.301 438.049 423.149L343.177 235.5C342.732 234.629 342.084 234.421 341.232 234.876C309.2 251.687 272.557 254.498 240.526 255.464C239.489 255.501 238.961 256.05 238.942 257.111C238.757 268.621 238.729 279.904 238.859 290.96C238.942 296.81 237.553 302.688 230.33 300.218ZM421.88 447.457C427.797 439.222 433.242 444.959 440.466 442.63C441.855 442.195 441.956 441.551 440.771 440.699C394.155 407.048 332.564 395.803 277.058 393.247C203.938 389.896 134.514 392.537 68.8952 419.06C52.5415 425.667 38.4843 434.48 26.7237 445.498C24.6865 447.429 24.7883 449.228 27.0293 450.894C61.95 476.707 115.151 482.557 158.294 485.453C222.209 489.713 282.809 489.239 340.093 484.033C374.43 480.938 413.379 474.719 443.577 456.601C443.793 456.473 443.964 456.276 444.063 456.039C444.162 455.802 444.183 455.54 444.122 455.294C444.062 455.047 443.924 454.83 443.73 454.676C443.536 454.522 443.296 454.44 443.049 454.443L425.075 454.074C424.329 454.062 423.6 453.841 422.969 453.433C422.339 453.025 421.83 452.448 421.5 451.763C421.169 451.079 421.03 450.316 421.097 449.556C421.164 448.796 421.435 448.07 421.88 447.457Z" fill="black"/>
<path d="M135.875 90.8162C135.875 108.093 129.161 124.663 117.209 136.88C105.258 149.096 89.0477 155.96 72.1456 155.96C55.2435 155.96 39.0336 149.096 27.082 136.88C15.1304 124.663 8.41609 108.093 8.41609 90.8162C8.41609 73.5392 15.1304 56.9697 27.082 44.7529C39.0336 32.5362 55.2435 25.6729 72.1456 25.6729C89.0477 25.6729 105.258 32.5362 117.209 44.7529C129.161 56.9697 135.875 73.5392 135.875 90.8162ZM124.763 90.8162C124.763 76.5517 119.219 62.8714 109.352 52.7849C99.4839 42.6984 86.1005 37.0318 72.1456 37.0318C58.1907 37.0318 44.8073 42.6984 34.9397 52.7849C25.072 62.8714 19.5285 76.5517 19.5285 90.8162C19.5285 105.081 25.072 118.761 34.9397 128.848C44.8073 138.934 58.1907 144.601 72.1456 144.601C86.1005 144.601 99.4839 138.934 109.352 128.848C119.219 118.761 124.763 105.081 124.763 90.8162Z" fill="black"/>
<path d="M460.94 124.893C460.94 141.424 454.515 157.279 443.08 168.968C431.644 180.658 416.134 187.225 399.961 187.225C383.788 187.225 368.278 180.658 356.842 168.968C345.406 157.279 338.982 141.424 338.982 124.893C338.982 108.361 345.406 92.5071 356.842 80.8176C368.278 69.1281 383.788 62.561 399.961 62.561C416.134 62.561 431.644 69.1281 443.08 80.8176C454.515 92.5071 460.94 108.361 460.94 124.893ZM449.828 124.865C449.828 111.338 444.571 98.3657 435.214 88.801C425.857 79.2364 413.166 73.8631 399.933 73.8631C386.7 73.8631 374.009 79.2364 364.652 88.801C355.295 98.3657 350.038 111.338 350.038 124.865C350.038 138.391 355.295 151.363 364.652 160.928C374.009 170.493 386.7 175.866 399.933 175.866C413.166 175.866 425.857 170.493 435.214 160.928C444.571 151.363 449.828 138.391 449.828 124.865Z" fill="black"/>
<path d="M100.038 85.1936H44.3091C41.3325 85.1936 38.9196 87.6601 38.9196 90.7026V90.9866C38.9196 94.0292 41.3325 96.4957 44.3091 96.4957H100.038C103.014 96.4957 105.427 94.0292 105.427 90.9866V90.7026C105.427 87.6601 103.014 85.1936 100.038 85.1936Z" fill="black"/>
<path d="M233.47 90.9298H233.136C230.175 90.9298 227.775 93.3836 227.775 96.4105V136.394C227.775 139.421 230.175 141.875 233.136 141.875H233.47C236.431 141.875 238.831 139.421 238.831 136.394V96.4105C238.831 93.3836 236.431 90.9298 233.47 90.9298Z" fill="black"/>
<path d="M407.295 119.242H429.214C429.848 119.24 430.474 119.38 431.048 119.654C431.623 119.928 432.132 120.328 432.54 120.826C432.948 121.324 433.245 121.908 433.409 122.537C433.574 123.166 433.602 123.825 433.492 124.467C431.881 133.923 413.462 130.487 406.767 130.856C405.952 130.894 405.545 131.33 405.545 132.163V153.432C405.544 154.205 405.386 154.969 405.08 155.675C404.773 156.381 404.326 157.014 403.766 157.533C403.206 158.052 402.546 158.445 401.829 158.688C401.111 158.93 400.352 159.017 399.6 158.941C391.738 158.175 394.46 137.445 394.182 131.85C394.145 131.017 393.719 130.601 392.904 130.601H372.124C371.399 130.601 370.68 130.452 370.012 130.164C369.344 129.875 368.739 129.452 368.234 128.919C367.728 128.387 367.333 127.756 367.071 127.064C366.808 126.373 366.685 125.634 366.707 124.893C366.929 116.26 387.293 119.299 392.821 119.043C393.766 118.986 394.256 118.475 394.293 117.51C394.571 110.552 391.238 92.6337 400.044 90.7878C400.708 90.6484 401.393 90.6611 402.051 90.8249C402.709 90.9887 403.322 91.2996 403.846 91.7348C404.371 92.1701 404.793 92.7188 405.082 93.3409C405.371 93.9631 405.519 94.6431 405.517 95.3314L405.545 117.481C405.545 118.655 406.128 119.242 407.295 119.242Z" fill="black"/>
<path d="M488.888 486.333V211.533C488.888 211.156 488.741 210.795 488.481 210.529C488.22 210.263 487.867 210.113 487.499 210.113H454.884C453.648 210.115 452.459 209.63 451.56 208.759C450.661 207.888 450.121 206.696 450.05 205.428C449.772 200.572 452.328 198.839 456.884 198.811C469.719 198.735 482.628 198.726 495.611 198.783C496.775 198.783 497.891 199.255 498.714 200.097C499.538 200.938 500 202.079 500 203.269V494.086C500 495.592 499.415 497.037 498.373 498.102C497.331 499.167 495.917 499.765 494.444 499.765H454.828C454.189 499.765 453.555 499.636 452.965 499.384C452.375 499.132 451.84 498.763 451.39 498.298C450.941 497.833 450.586 497.282 450.346 496.676C450.107 496.07 449.987 495.421 449.994 494.767C450.05 489.798 452.911 488.179 457.578 488.378C467.468 488.813 477.349 488.728 487.221 488.122C488.332 488.066 488.888 487.469 488.888 486.333Z" fill="black"/>
<path d="M448.494 260.263L462.579 245.865C463.453 244.982 464.584 244.413 465.801 244.244C467.019 244.075 468.257 244.315 469.33 244.928C478.637 250.352 459.94 264.835 456.078 268.526C455.282 269.303 455.273 270.079 456.051 270.855C461.246 276.023 477.581 287.524 469.135 294.425C468.28 295.121 467.202 295.471 466.107 295.408C465.011 295.345 463.974 294.874 463.19 294.084L448.966 279.686C448.739 279.452 448.469 279.266 448.171 279.139C447.873 279.012 447.553 278.947 447.23 278.947C446.907 278.947 446.588 279.012 446.29 279.139C445.992 279.266 445.721 279.452 445.494 279.686L431.798 293.658C431.301 294.163 430.711 294.562 430.061 294.832C429.412 295.102 428.717 295.237 428.016 295.229C427.315 295.221 426.623 295.07 425.98 294.786C425.336 294.502 424.755 294.089 424.269 293.573C418.018 286.871 433.826 275.569 438.243 270.543C438.854 269.823 438.836 269.132 438.187 268.47L423.964 254.129C423.122 253.283 422.581 252.178 422.424 250.989C422.268 249.8 422.507 248.596 423.102 247.569C428.77 237.659 441.632 256.259 446.299 260.348C447.059 261.011 447.79 260.982 448.494 260.263Z" fill="black"/>
<path d="M71.1455 281.106H93.0647C93.6981 281.104 94.3242 281.245 94.8989 281.519C95.4735 281.792 95.9827 282.192 96.3905 282.69C96.7984 283.188 97.0951 283.773 97.2596 284.402C97.4242 285.031 97.4526 285.689 97.3429 286.331C95.7316 295.788 77.3128 292.352 70.6176 292.721C69.8027 292.759 69.3953 293.194 69.3953 294.027V314.388C69.3956 315.905 68.8583 317.371 67.8827 318.514C66.9072 319.658 65.5595 320.401 64.0891 320.607C55.3381 321.8 58.3385 298.997 58.0884 293.772C58.0514 292.901 57.6069 292.465 56.755 292.465H35.9748C35.2491 292.466 34.5308 292.317 33.8625 292.028C33.1941 291.739 32.5893 291.316 32.084 290.784C31.5788 290.251 31.1833 289.62 30.921 288.929C30.6588 288.237 30.5352 287.499 30.5575 286.757C30.7798 278.125 51.1154 281.163 56.6438 280.908C57.5699 280.87 58.0607 280.368 58.1162 279.402C58.394 272.616 55.0603 253.93 64.1169 252.567C64.7692 252.474 65.4335 252.524 66.0651 252.716C66.6966 252.907 67.2808 253.234 67.7783 253.675C68.2758 254.116 68.675 254.661 68.9491 255.274C69.2233 255.886 69.3659 256.551 69.3675 257.224L69.3953 279.346C69.3953 280.519 69.9787 281.106 71.1455 281.106Z" fill="black"/>
<path d="M233.47 329.438H233.136C230.19 329.438 227.802 331.88 227.802 334.891V369.251C227.802 372.263 230.19 374.704 233.136 374.704H233.47C236.415 374.704 238.804 372.263 238.804 369.251V334.891C238.804 331.88 236.415 329.438 233.47 329.438Z" fill="black"/>
<path d="M279.642 442.914C289.457 443.046 299.292 443.056 309.145 442.942C314.09 442.886 316.09 444.22 316.729 449.218C316.808 449.859 316.753 450.509 316.569 451.126C316.384 451.743 316.074 452.312 315.659 452.796C315.243 453.279 314.733 453.666 314.16 453.931C313.588 454.195 312.967 454.331 312.34 454.33H232.608C231.319 454.33 230.082 453.806 229.171 452.874C228.259 451.942 227.747 450.678 227.747 449.36V408.894C227.747 407.388 228.332 405.943 229.374 404.878C230.416 403.813 231.829 403.215 233.303 403.215H272.196C273.67 403.215 275.083 403.813 276.125 404.878C277.167 405.943 277.752 407.388 277.752 408.894V440.955C277.752 442.242 278.382 442.895 279.642 442.914ZM266.597 416.228C266.596 416.004 266.553 415.783 266.468 415.576C266.384 415.37 266.26 415.183 266.105 415.025C265.95 414.867 265.765 414.742 265.563 414.658C265.36 414.573 265.143 414.529 264.925 414.53L240.478 414.617C240.259 414.618 240.042 414.663 239.84 414.749C239.638 414.836 239.455 414.962 239.301 415.121C239.146 415.279 239.024 415.468 238.941 415.675C238.858 415.882 238.816 416.103 238.817 416.327L238.902 441.316C238.903 441.54 238.947 441.762 239.031 441.968C239.115 442.174 239.239 442.362 239.394 442.519C239.55 442.677 239.734 442.802 239.936 442.887C240.139 442.972 240.356 443.015 240.575 443.014L265.022 442.927C265.24 442.926 265.457 442.881 265.659 442.795C265.861 442.709 266.044 442.583 266.198 442.424C266.353 442.265 266.475 442.077 266.558 441.87C266.641 441.663 266.683 441.441 266.683 441.217L266.597 416.228Z" fill="black"/>
<path d="M388.96 442.999H349.844C346.883 442.999 344.482 445.453 344.482 448.48V448.821C344.482 451.848 346.883 454.301 349.844 454.301H388.96C391.921 454.301 394.321 451.848 394.321 448.821V448.48C394.321 445.453 391.921 442.999 388.96 442.999Z" fill="black"/>
<path d="M297.773 7H296.364C296.28 6.5947 296.134 6.23864 295.926 5.93182C295.722 5.625 295.472 5.36742 295.176 5.15909C294.884 4.94697 294.561 4.78788 294.205 4.68182C293.848 4.57576 293.477 4.52273 293.091 4.52273C292.386 4.52273 291.748 4.70076 291.176 5.05682C290.608 5.41288 290.155 5.9375 289.818 6.63068C289.485 7.32386 289.318 8.17424 289.318 9.18182C289.318 10.1894 289.485 11.0398 289.818 11.733C290.155 12.4261 290.608 12.9508 291.176 13.3068C291.748 13.6629 292.386 13.8409 293.091 13.8409C293.477 13.8409 293.848 13.7879 294.205 13.6818C294.561 13.5758 294.884 13.4186 295.176 13.2102C295.472 12.9981 295.722 12.7386 295.926 12.4318C296.134 12.1212 296.28 11.7652 296.364 11.3636H297.773C297.667 11.9583 297.473 12.4905 297.193 12.9602C296.913 13.4299 296.564 13.8295 296.148 14.1591C295.731 14.4848 295.263 14.733 294.744 14.9034C294.229 15.0739 293.678 15.1591 293.091 15.1591C292.098 15.1591 291.216 14.9167 290.443 14.4318C289.67 13.947 289.063 13.2576 288.619 12.3636C288.176 11.4697 287.955 10.4091 287.955 9.18182C287.955 7.95455 288.176 6.89394 288.619 6C289.063 5.10606 289.67 4.41667 290.443 3.93182C291.216 3.44697 292.098 3.20455 293.091 3.20455C293.678 3.20455 294.229 3.28977 294.744 3.46023C295.263 3.63068 295.731 3.88068 296.148 4.21023C296.564 4.53598 296.913 4.93371 297.193 5.40341C297.473 5.86932 297.667 6.40151 297.773 7Z" fill="black"/>
<path d="M299.868 15V6.27273H301.163V7.59091H301.254C301.413 7.15909 301.701 6.80871 302.118 6.53977C302.535 6.27083 303.004 6.13636 303.527 6.13636C303.625 6.13636 303.749 6.13826 303.896 6.14205C304.044 6.14583 304.156 6.15152 304.232 6.15909V7.52273C304.186 7.51136 304.082 7.49432 303.919 7.47159C303.76 7.44508 303.591 7.43182 303.413 7.43182C302.989 7.43182 302.61 7.52083 302.277 7.69886C301.947 7.87311 301.686 8.11553 301.493 8.42614C301.303 8.73295 301.209 9.08333 301.209 9.47727V15H299.868Z" fill="black"/>
<path d="M309.214 15.1818C308.374 15.1818 307.648 14.9962 307.038 14.625C306.432 14.25 305.964 13.7273 305.635 13.0568C305.309 12.3826 305.146 11.5985 305.146 10.7045C305.146 9.81061 305.309 9.02273 305.635 8.34091C305.964 7.6553 306.423 7.12121 307.01 6.73864C307.601 6.35227 308.29 6.15909 309.078 6.15909C309.533 6.15909 309.982 6.23485 310.425 6.38636C310.868 6.53788 311.271 6.78409 311.635 7.125C311.999 7.46212 312.288 7.90909 312.504 8.46591C312.72 9.02273 312.828 9.70833 312.828 10.5227V11.0909H306.101V9.93182H311.464C311.464 9.43939 311.366 9 311.169 8.61364C310.976 8.22727 310.699 7.92235 310.339 7.69886C309.983 7.47538 309.563 7.36364 309.078 7.36364C308.544 7.36364 308.082 7.49621 307.692 7.76136C307.305 8.02273 307.008 8.36364 306.8 8.78409C306.591 9.20454 306.487 9.6553 306.487 10.1364V10.9091C306.487 11.5682 306.601 12.1269 306.828 12.5852C307.059 13.0398 307.379 13.3864 307.788 13.625C308.197 13.8598 308.673 13.9773 309.214 13.9773C309.567 13.9773 309.885 13.928 310.169 13.8295C310.457 13.7273 310.705 13.5758 310.913 13.375C311.122 13.1705 311.283 12.9167 311.396 12.6136L312.692 12.9773C312.555 13.4167 312.326 13.803 312.004 14.1364C311.682 14.4659 311.285 14.7235 310.811 14.9091C310.338 15.0909 309.805 15.1818 309.214 15.1818Z" fill="black"/>
<path d="M317.436 15.2045C316.883 15.2045 316.381 15.1004 315.93 14.892C315.48 14.6799 315.122 14.375 314.857 13.9773C314.591 13.5758 314.459 13.0909 314.459 12.5227C314.459 12.0227 314.557 11.6174 314.754 11.3068C314.951 10.9924 315.214 10.7462 315.544 10.5682C315.874 10.3902 316.237 10.2576 316.635 10.1705C317.036 10.0795 317.44 10.0076 317.845 9.95455C318.375 9.88636 318.805 9.83523 319.135 9.80114C319.468 9.76326 319.711 9.70076 319.862 9.61364C320.018 9.52652 320.095 9.375 320.095 9.15909V9.11364C320.095 8.55303 319.942 8.11742 319.635 7.80682C319.332 7.49621 318.872 7.34091 318.254 7.34091C317.614 7.34091 317.112 7.48106 316.749 7.76136C316.385 8.04167 316.129 8.34091 315.982 8.65909L314.709 8.20455C314.936 7.67424 315.239 7.26136 315.618 6.96591C316 6.66667 316.417 6.45833 316.868 6.34091C317.322 6.2197 317.769 6.15909 318.209 6.15909C318.489 6.15909 318.811 6.19318 319.175 6.26136C319.542 6.32576 319.896 6.46023 320.237 6.66477C320.582 6.86932 320.868 7.17803 321.095 7.59091C321.322 8.00379 321.436 8.55682 321.436 9.25V15H320.095V13.8182H320.027C319.936 14.0076 319.785 14.2102 319.572 14.4261C319.36 14.642 319.078 14.8258 318.726 14.9773C318.374 15.1288 317.944 15.2045 317.436 15.2045ZM317.641 14C318.171 14 318.618 13.8958 318.982 13.6875C319.349 13.4792 319.625 13.2102 319.811 12.8807C320 12.5511 320.095 12.2045 320.095 11.8409V10.6136C320.038 10.6818 319.913 10.7443 319.72 10.8011C319.531 10.8542 319.311 10.9015 319.061 10.9432C318.815 10.9811 318.574 11.0152 318.339 11.0455C318.108 11.072 317.921 11.0947 317.777 11.1136C317.428 11.1591 317.103 11.233 316.8 11.3352C316.5 11.4337 316.258 11.5833 316.072 11.7841C315.891 11.9811 315.8 12.25 315.8 12.5909C315.8 13.0568 315.972 13.4091 316.317 13.6477C316.665 13.8826 317.107 14 317.641 14Z" fill="black"/>
<path d="M327.679 6.27273V7.40909H323.156V6.27273H327.679ZM324.474 4.18182H325.815V12.5C325.815 12.8788 325.87 13.1629 325.98 13.3523C326.094 13.5379 326.238 13.6629 326.412 13.7273C326.59 13.7879 326.777 13.8182 326.974 13.8182C327.122 13.8182 327.243 13.8106 327.338 13.7955C327.433 13.7765 327.509 13.7614 327.565 13.75L327.838 14.9545C327.747 14.9886 327.62 15.0227 327.457 15.0568C327.295 15.0947 327.088 15.1136 326.838 15.1136C326.459 15.1136 326.088 15.0322 325.724 14.8693C325.365 14.7064 325.065 14.4583 324.827 14.125C324.592 13.7917 324.474 13.3712 324.474 12.8636V4.18182Z" fill="black"/>
<path d="M333.261 15.1818C332.42 15.1818 331.695 14.9962 331.085 14.625C330.479 14.25 330.011 13.7273 329.682 13.0568C329.356 12.3826 329.193 11.5985 329.193 10.7045C329.193 9.81061 329.356 9.02273 329.682 8.34091C330.011 7.6553 330.47 7.12121 331.057 6.73864C331.648 6.35227 332.337 6.15909 333.125 6.15909C333.58 6.15909 334.028 6.23485 334.472 6.38636C334.915 6.53788 335.318 6.78409 335.682 7.125C336.045 7.46212 336.335 7.90909 336.551 8.46591C336.767 9.02273 336.875 9.70833 336.875 10.5227V11.0909H330.148V9.93182H335.511C335.511 9.43939 335.413 9 335.216 8.61364C335.023 8.22727 334.746 7.92235 334.386 7.69886C334.03 7.47538 333.61 7.36364 333.125 7.36364C332.591 7.36364 332.129 7.49621 331.739 7.76136C331.352 8.02273 331.055 8.36364 330.847 8.78409C330.638 9.20454 330.534 9.6553 330.534 10.1364V10.9091C330.534 11.5682 330.648 12.1269 330.875 12.5852C331.106 13.0398 331.426 13.3864 331.835 13.625C332.244 13.8598 332.72 13.9773 333.261 13.9773C333.614 13.9773 333.932 13.928 334.216 13.8295C334.504 13.7273 334.752 13.5758 334.96 13.375C335.169 13.1705 335.33 12.9167 335.443 12.6136L336.739 12.9773C336.602 13.4167 336.373 13.803 336.051 14.1364C335.729 14.4659 335.331 14.7235 334.858 14.9091C334.384 15.0909 333.852 15.1818 333.261 15.1818Z" fill="black"/>
<path d="M342.21 15.1818C341.483 15.1818 340.841 14.9981 340.284 14.6307C339.727 14.2595 339.292 13.7367 338.977 13.0625C338.663 12.3845 338.506 11.5833 338.506 10.6591C338.506 9.74242 338.663 8.94697 338.977 8.27273C339.292 7.59848 339.729 7.07765 340.29 6.71023C340.85 6.3428 341.498 6.15909 342.233 6.15909C342.801 6.15909 343.25 6.25379 343.58 6.44318C343.913 6.62879 344.167 6.84091 344.341 7.07955C344.519 7.31439 344.657 7.50758 344.756 7.65909H344.869V3.36364H346.21V15H344.915V13.6591H344.756C344.657 13.8182 344.517 14.0189 344.335 14.2614C344.153 14.5 343.894 14.714 343.557 14.9034C343.22 15.089 342.771 15.1818 342.21 15.1818ZM342.392 13.9773C342.93 13.9773 343.384 13.8371 343.756 13.5568C344.127 13.2727 344.409 12.8807 344.602 12.3807C344.795 11.8769 344.892 11.2955 344.892 10.6364C344.892 9.98485 344.797 9.41477 344.608 8.92614C344.419 8.43371 344.138 8.05114 343.767 7.77841C343.396 7.50189 342.938 7.36364 342.392 7.36364C341.824 7.36364 341.35 7.50947 340.972 7.80114C340.597 8.08902 340.314 8.48106 340.125 8.97727C339.939 9.4697 339.847 10.0227 339.847 10.6364C339.847 11.2576 339.941 11.822 340.131 12.3295C340.324 12.8333 340.608 13.2348 340.983 13.5341C341.362 13.8295 341.831 13.9773 342.392 13.9773Z" fill="black"/>
<path d="M353.534 15V3.36364H357.602C358.413 3.36364 359.081 3.50379 359.608 3.78409C360.134 4.06061 360.527 4.43371 360.784 4.90341C361.042 5.36932 361.17 5.88636 361.17 6.45455C361.17 6.95455 361.081 7.36742 360.903 7.69318C360.729 8.01894 360.498 8.27652 360.21 8.46591C359.926 8.6553 359.617 8.79545 359.284 8.88636V9C359.64 9.02273 359.998 9.14773 360.358 9.375C360.718 9.60227 361.019 9.92803 361.261 10.3523C361.504 10.7765 361.625 11.2955 361.625 11.9091C361.625 12.4924 361.492 13.017 361.227 13.483C360.962 13.9489 360.544 14.3182 359.972 14.5909C359.4 14.8636 358.655 15 357.739 15H353.534ZM354.943 13.75H357.739C358.659 13.75 359.312 13.572 359.699 13.2159C360.089 12.8561 360.284 12.4205 360.284 11.9091C360.284 11.5152 360.184 11.1515 359.983 10.8182C359.782 10.4811 359.496 10.2121 359.125 10.0114C358.754 9.80682 358.314 9.70455 357.807 9.70455H354.943V13.75ZM354.943 8.47727H357.557C357.981 8.47727 358.364 8.39394 358.705 8.22727C359.049 8.06061 359.322 7.82576 359.523 7.52273C359.727 7.2197 359.83 6.86364 359.83 6.45455C359.83 5.94318 359.652 5.50947 359.295 5.15341C358.939 4.79356 358.375 4.61364 357.602 4.61364H354.943V8.47727Z" fill="black"/>
<path d="M364.622 18.2727C364.395 18.2727 364.192 18.2538 364.014 18.2159C363.836 18.1818 363.713 18.1477 363.645 18.1136L363.986 16.9318C364.312 17.0152 364.599 17.0455 364.849 17.0227C365.099 17 365.321 16.8883 365.514 16.6875C365.711 16.4905 365.891 16.1705 366.054 15.7273L366.304 15.0455L363.077 6.27273H364.531L366.94 13.2273H367.031L369.44 6.27273H370.895L367.19 16.2727C367.024 16.7235 366.817 17.0966 366.571 17.392C366.325 17.6913 366.039 17.9129 365.713 18.0568C365.391 18.2008 365.027 18.2727 364.622 18.2727Z" fill="black"/>
<path d="M381.847 15V3.36364H385.778C386.691 3.36364 387.438 3.52841 388.017 3.85795C388.6 4.18371 389.032 4.625 389.312 5.18182C389.593 5.73864 389.733 6.35985 389.733 7.04545C389.733 7.73106 389.593 8.35417 389.312 8.91477C389.036 9.47538 388.608 9.92235 388.028 10.2557C387.449 10.5852 386.706 10.75 385.801 10.75H382.983V9.5H385.756C386.381 9.5 386.883 9.39205 387.261 9.17614C387.64 8.96023 387.915 8.66856 388.085 8.30114C388.259 7.92992 388.347 7.51136 388.347 7.04545C388.347 6.57955 388.259 6.16288 388.085 5.79545C387.915 5.42803 387.638 5.14015 387.256 4.93182C386.873 4.7197 386.366 4.61364 385.733 4.61364H383.256V15H381.847Z" fill="black"/>
<path d="M395.386 15.1818C394.545 15.1818 393.82 14.9962 393.21 14.625C392.604 14.25 392.136 13.7273 391.807 13.0568C391.481 12.3826 391.318 11.5985 391.318 10.7045C391.318 9.81061 391.481 9.02273 391.807 8.34091C392.136 7.6553 392.595 7.12121 393.182 6.73864C393.773 6.35227 394.462 6.15909 395.25 6.15909C395.705 6.15909 396.153 6.23485 396.597 6.38636C397.04 6.53788 397.443 6.78409 397.807 7.125C398.17 7.46212 398.46 7.90909 398.676 8.46591C398.892 9.02273 399 9.70833 399 10.5227V11.0909H392.273V9.93182H397.636C397.636 9.43939 397.538 9 397.341 8.61364C397.148 8.22727 396.871 7.92235 396.511 7.69886C396.155 7.47538 395.735 7.36364 395.25 7.36364C394.716 7.36364 394.254 7.49621 393.864 7.76136C393.477 8.02273 393.18 8.36364 392.972 8.78409C392.763 9.20454 392.659 9.6553 392.659 10.1364V10.9091C392.659 11.5682 392.773 12.1269 393 12.5852C393.231 13.0398 393.551 13.3864 393.96 13.625C394.369 13.8598 394.845 13.9773 395.386 13.9773C395.739 13.9773 396.057 13.928 396.341 13.8295C396.629 13.7273 396.877 13.5758 397.085 13.375C397.294 13.1705 397.455 12.9167 397.568 12.6136L398.864 12.9773C398.727 13.4167 398.498 13.803 398.176 14.1364C397.854 14.4659 397.456 14.7235 396.983 14.9091C396.509 15.0909 395.977 15.1818 395.386 15.1818Z" fill="black"/>
<path d="M401.04 15V6.27273H402.335V7.59091H402.426C402.585 7.15909 402.873 6.80871 403.29 6.53977C403.706 6.27083 404.176 6.13636 404.699 6.13636C404.797 6.13636 404.92 6.13826 405.068 6.14205C405.216 6.14583 405.328 6.15152 405.403 6.15909V7.52273C405.358 7.51136 405.254 7.49432 405.091 7.47159C404.932 7.44508 404.763 7.43182 404.585 7.43182C404.161 7.43182 403.782 7.52083 403.449 7.69886C403.119 7.87311 402.858 8.11553 402.665 8.42614C402.475 8.73295 402.381 9.08333 402.381 9.47727V15H401.04Z" fill="black"/>
<path d="M406.993 15V6.27273H408.334V15H406.993ZM407.675 4.81818C407.413 4.81818 407.188 4.72917 406.999 4.55114C406.813 4.37311 406.72 4.15909 406.72 3.90909C406.72 3.65909 406.813 3.44508 406.999 3.26705C407.188 3.08902 407.413 3 407.675 3C407.936 3 408.16 3.08902 408.345 3.26705C408.535 3.44508 408.629 3.65909 408.629 3.90909C408.629 4.15909 408.535 4.37311 408.345 4.55114C408.16 4.72917 407.936 4.81818 407.675 4.81818Z" fill="black"/>
<path d="M414.335 15.1818C413.517 15.1818 412.812 14.9886 412.222 14.6023C411.631 14.2159 411.176 13.6837 410.858 13.0057C410.54 12.3277 410.381 11.553 410.381 10.6818C410.381 9.79545 410.544 9.01326 410.869 8.33523C411.199 7.65341 411.657 7.12121 412.244 6.73864C412.835 6.35227 413.525 6.15909 414.312 6.15909C414.926 6.15909 415.479 6.27273 415.972 6.5C416.464 6.72727 416.867 7.04545 417.182 7.45455C417.496 7.86364 417.691 8.34091 417.767 8.88636H416.426C416.324 8.48864 416.097 8.13636 415.744 7.82955C415.396 7.51894 414.926 7.36364 414.335 7.36364C413.813 7.36364 413.354 7.5 412.96 7.77273C412.57 8.04167 412.265 8.42235 412.045 8.91477C411.83 9.40341 411.722 9.97727 411.722 10.6364C411.722 11.3106 411.828 11.8977 412.04 12.3977C412.256 12.8977 412.559 13.286 412.949 13.5625C413.343 13.839 413.805 13.9773 414.335 13.9773C414.684 13.9773 415 13.9167 415.284 13.7955C415.568 13.6742 415.809 13.5 416.006 13.2727C416.203 13.0455 416.343 12.7727 416.426 12.4545H417.767C417.691 12.9697 417.504 13.4337 417.205 13.8466C416.909 14.2557 416.517 14.5814 416.028 14.8239C415.544 15.0625 414.979 15.1818 414.335 15.1818Z" fill="black"/>
<path d="M423.273 15.1818C422.485 15.1818 421.794 14.9943 421.199 14.6193C420.608 14.2443 420.146 13.7197 419.812 13.0455C419.483 12.3712 419.318 11.5833 419.318 10.6818C419.318 9.77273 419.483 8.97917 419.812 8.30114C420.146 7.62311 420.608 7.09659 421.199 6.72159C421.794 6.34659 422.485 6.15909 423.273 6.15909C424.061 6.15909 424.75 6.34659 425.341 6.72159C425.936 7.09659 426.398 7.62311 426.727 8.30114C427.061 8.97917 427.227 9.77273 427.227 10.6818C427.227 11.5833 427.061 12.3712 426.727 13.0455C426.398 13.7197 425.936 14.2443 425.341 14.6193C424.75 14.9943 424.061 15.1818 423.273 15.1818ZM423.273 13.9773C423.871 13.9773 424.364 13.8239 424.75 13.517C425.136 13.2102 425.422 12.8068 425.608 12.3068C425.794 11.8068 425.886 11.2652 425.886 10.6818C425.886 10.0985 425.794 9.55492 425.608 9.05114C425.422 8.54735 425.136 8.14015 424.75 7.82955C424.364 7.51894 423.871 7.36364 423.273 7.36364C422.674 7.36364 422.182 7.51894 421.795 7.82955C421.409 8.14015 421.123 8.54735 420.938 9.05114C420.752 9.55492 420.659 10.0985 420.659 10.6818C420.659 11.2652 420.752 11.8068 420.938 12.3068C421.123 12.8068 421.409 13.2102 421.795 13.517C422.182 13.8239 422.674 13.9773 423.273 13.9773Z" fill="black"/>
<path d="M430.615 9.75V15H429.274V6.27273H430.57V7.63636H430.683C430.888 7.19318 431.198 6.83712 431.615 6.56818C432.032 6.29545 432.57 6.15909 433.229 6.15909C433.82 6.15909 434.337 6.2803 434.78 6.52273C435.223 6.76136 435.568 7.125 435.814 7.61364C436.06 8.09848 436.183 8.71212 436.183 9.45455V15H434.842V9.54545C434.842 8.85985 434.664 8.32576 434.308 7.94318C433.952 7.55682 433.464 7.36364 432.842 7.36364C432.414 7.36364 432.032 7.45644 431.695 7.64205C431.361 7.82765 431.098 8.09848 430.905 8.45455C430.712 8.81061 430.615 9.24242 430.615 9.75Z" fill="black"/>
<path d="M446.906 15H443.315V3.36364H447.065C448.194 3.36364 449.16 3.59659 449.963 4.0625C450.766 4.52462 451.382 5.18939 451.81 6.05682C452.238 6.92045 452.452 7.95454 452.452 9.15909C452.452 10.3712 452.236 11.4148 451.804 12.2898C451.372 13.161 450.743 13.8314 449.918 14.3011C449.092 14.767 448.088 15 446.906 15ZM444.724 13.75H446.815C447.777 13.75 448.575 13.5644 449.207 13.1932C449.84 12.822 450.312 12.2936 450.622 11.608C450.933 10.9223 451.088 10.1061 451.088 9.15909C451.088 8.2197 450.935 7.41098 450.628 6.73295C450.321 6.05114 449.863 5.52841 449.253 5.16477C448.643 4.79735 447.884 4.61364 446.974 4.61364H444.724V13.75Z" fill="black"/>
<path d="M458.293 15.1818C457.452 15.1818 456.726 14.9962 456.116 14.625C455.51 14.25 455.043 13.7273 454.713 13.0568C454.387 12.3826 454.224 11.5985 454.224 10.7045C454.224 9.81061 454.387 9.02273 454.713 8.34091C455.043 7.6553 455.501 7.12121 456.088 6.73864C456.679 6.35227 457.368 6.15909 458.156 6.15909C458.611 6.15909 459.06 6.23485 459.503 6.38636C459.946 6.53788 460.349 6.78409 460.713 7.125C461.077 7.46212 461.366 7.90909 461.582 8.46591C461.798 9.02273 461.906 9.70833 461.906 10.5227V11.0909H455.179V9.93182H460.543C460.543 9.43939 460.444 9 460.247 8.61364C460.054 8.22727 459.777 7.92235 459.418 7.69886C459.062 7.47538 458.641 7.36364 458.156 7.36364C457.622 7.36364 457.16 7.49621 456.77 7.76136C456.384 8.02273 456.086 8.36364 455.878 8.78409C455.67 9.20454 455.565 9.6553 455.565 10.1364V10.9091C455.565 11.5682 455.679 12.1269 455.906 12.5852C456.137 13.0398 456.457 13.3864 456.866 13.625C457.276 13.8598 457.751 13.9773 458.293 13.9773C458.645 13.9773 458.963 13.928 459.247 13.8295C459.535 13.7273 459.783 13.5758 459.991 13.375C460.2 13.1705 460.361 12.9167 460.474 12.6136L461.77 12.9773C461.634 13.4167 461.404 13.803 461.082 14.1364C460.76 14.4659 460.363 14.7235 459.889 14.9091C459.416 15.0909 458.884 15.1818 458.293 15.1818Z" fill="black"/>
<path d="M470.128 8.22727L468.923 8.56818C468.848 8.36742 468.736 8.17235 468.588 7.98295C468.444 7.78977 468.247 7.63068 467.997 7.50568C467.747 7.38068 467.427 7.31818 467.037 7.31818C466.503 7.31818 466.058 7.44129 465.702 7.6875C465.349 7.92992 465.173 8.23864 465.173 8.61364C465.173 8.94697 465.295 9.21023 465.537 9.40341C465.779 9.59659 466.158 9.75758 466.673 9.88636L467.969 10.2045C468.749 10.3939 469.33 10.6837 469.713 11.0739C470.096 11.4602 470.287 11.9583 470.287 12.5682C470.287 13.0682 470.143 13.5152 469.855 13.9091C469.571 14.303 469.173 14.6136 468.662 14.8409C468.151 15.0682 467.556 15.1818 466.878 15.1818C465.988 15.1818 465.251 14.9886 464.668 14.6023C464.084 14.2159 463.715 13.6515 463.56 12.9091L464.832 12.5909C464.954 13.0606 465.183 13.4129 465.52 13.6477C465.861 13.8826 466.306 14 466.855 14C467.48 14 467.976 13.8674 468.344 13.6023C468.715 13.3333 468.901 13.0114 468.901 12.6364C468.901 12.3333 468.795 12.0795 468.582 11.875C468.37 11.6667 468.044 11.5114 467.605 11.4091L466.151 11.0682C465.351 10.8788 464.764 10.5852 464.389 10.1875C464.018 9.78598 463.832 9.28409 463.832 8.68182C463.832 8.18939 463.971 7.75379 464.247 7.375C464.527 6.99621 464.908 6.69886 465.389 6.48295C465.874 6.26705 466.423 6.15909 467.037 6.15909C467.901 6.15909 468.579 6.34848 469.071 6.72727C469.567 7.10606 469.92 7.60606 470.128 8.22727Z" fill="black"/>
<path d="M472.305 15V6.27273H473.646V15H472.305ZM472.987 4.81818C472.726 4.81818 472.5 4.72917 472.311 4.55114C472.125 4.37311 472.033 4.15909 472.033 3.90909C472.033 3.65909 472.125 3.44508 472.311 3.26705C472.5 3.08902 472.726 3 472.987 3C473.249 3 473.472 3.08902 473.658 3.26705C473.847 3.44508 473.942 3.65909 473.942 3.90909C473.942 4.15909 473.847 4.37311 473.658 4.55114C473.472 4.72917 473.249 4.81818 472.987 4.81818Z" fill="black"/>
<path d="M479.625 18.4545C478.977 18.4545 478.42 18.3712 477.955 18.2045C477.489 18.0417 477.1 17.8258 476.79 17.5568C476.483 17.2917 476.239 17.0076 476.057 16.7045L477.125 15.9545C477.246 16.1136 477.4 16.2955 477.585 16.5C477.771 16.7083 478.025 16.8883 478.347 17.0398C478.672 17.1951 479.098 17.2727 479.625 17.2727C480.33 17.2727 480.911 17.1023 481.369 16.7614C481.828 16.4205 482.057 15.8864 482.057 15.1591V13.3864H481.943C481.845 13.5455 481.705 13.7424 481.523 13.9773C481.345 14.2083 481.087 14.4148 480.75 14.5966C480.417 14.7746 479.966 14.8636 479.398 14.8636C478.693 14.8636 478.061 14.697 477.5 14.3636C476.943 14.0303 476.502 13.5455 476.176 12.9091C475.854 12.2727 475.693 11.5 475.693 10.5909C475.693 9.69697 475.85 8.91856 476.165 8.25568C476.479 7.58901 476.917 7.07386 477.477 6.71023C478.038 6.3428 478.686 6.15909 479.42 6.15909C479.989 6.15909 480.439 6.25379 480.773 6.44318C481.11 6.62879 481.367 6.84091 481.545 7.07955C481.727 7.31439 481.867 7.50758 481.966 7.65909H482.102V6.27273H483.398V15.25C483.398 16 483.227 16.6098 482.886 17.0795C482.549 17.553 482.095 17.8996 481.523 18.1193C480.955 18.3428 480.322 18.4545 479.625 18.4545ZM479.58 13.6591C480.117 13.6591 480.572 13.536 480.943 13.2898C481.314 13.0436 481.597 12.6894 481.79 12.2273C481.983 11.7652 482.08 11.2121 482.08 10.5682C482.08 9.93939 481.985 9.38447 481.795 8.90341C481.606 8.42235 481.326 8.04545 480.955 7.77273C480.583 7.5 480.125 7.36364 479.58 7.36364C479.011 7.36364 478.538 7.50758 478.159 7.79545C477.784 8.08333 477.502 8.4697 477.312 8.95455C477.127 9.43939 477.034 9.97727 477.034 10.5682C477.034 11.1742 477.129 11.7102 477.318 12.1761C477.511 12.6383 477.795 13.0019 478.17 13.267C478.549 13.5284 479.019 13.6591 479.58 13.6591Z" fill="black"/>
<path d="M487.193 9.75V15H485.852V6.27273H487.148V7.63636H487.261C487.466 7.19318 487.777 6.83712 488.193 6.56818C488.61 6.29545 489.148 6.15909 489.807 6.15909C490.398 6.15909 490.915 6.2803 491.358 6.52273C491.801 6.76136 492.146 7.125 492.392 7.61364C492.638 8.09848 492.761 8.71212 492.761 9.45455V15H491.42V9.54545C491.42 8.85985 491.242 8.32576 490.886 7.94318C490.53 7.55682 490.042 7.36364 489.42 7.36364C488.992 7.36364 488.61 7.45644 488.273 7.64205C487.939 7.82765 487.676 8.09848 487.483 8.45455C487.29 8.81061 487.193 9.24242 487.193 9.75Z" fill="black"/>
<path d="M288.409 34V22.3636H295.386V23.6136H289.818V27.5455H294.864V28.7955H289.818V34H288.409Z" fill="black"/>
<path d="M297.524 34V25.2727H298.82V26.5909H298.911C299.07 26.1591 299.357 25.8087 299.774 25.5398C300.191 25.2708 300.661 25.1364 301.183 25.1364C301.282 25.1364 301.405 25.1383 301.553 25.142C301.7 25.1458 301.812 25.1515 301.888 25.1591V26.5227C301.842 26.5114 301.738 26.4943 301.575 26.4716C301.416 26.4451 301.248 26.4318 301.07 26.4318C300.645 26.4318 300.267 26.5208 299.933 26.6989C299.604 26.8731 299.342 27.1155 299.149 27.4261C298.96 27.733 298.865 28.0833 298.865 28.4773V34H297.524Z" fill="black"/>
<path d="M306.757 34.1818C305.969 34.1818 305.278 33.9943 304.683 33.6193C304.092 33.2443 303.63 32.7197 303.297 32.0455C302.967 31.3712 302.803 30.5833 302.803 29.6818C302.803 28.7727 302.967 27.9792 303.297 27.3011C303.63 26.6231 304.092 26.0966 304.683 25.7216C305.278 25.3466 305.969 25.1591 306.757 25.1591C307.545 25.1591 308.234 25.3466 308.825 25.7216C309.42 26.0966 309.882 26.6231 310.212 27.3011C310.545 27.9792 310.712 28.7727 310.712 29.6818C310.712 30.5833 310.545 31.3712 310.212 32.0455C309.882 32.7197 309.42 33.2443 308.825 33.6193C308.234 33.9943 307.545 34.1818 306.757 34.1818ZM306.757 32.9773C307.356 32.9773 307.848 32.8239 308.234 32.517C308.621 32.2102 308.907 31.8068 309.092 31.3068C309.278 30.8068 309.371 30.2652 309.371 29.6818C309.371 29.0985 309.278 28.5549 309.092 28.0511C308.907 27.5473 308.621 27.1402 308.234 26.8295C307.848 26.5189 307.356 26.3636 306.757 26.3636C306.159 26.3636 305.666 26.5189 305.28 26.8295C304.893 27.1402 304.607 27.5473 304.422 28.0511C304.236 28.5549 304.143 29.0985 304.143 29.6818C304.143 30.2652 304.236 30.8068 304.422 31.3068C304.607 31.8068 304.893 32.2102 305.28 32.517C305.666 32.8239 306.159 32.9773 306.757 32.9773Z" fill="black"/>
<path d="M312.759 34V25.2727H314.054V26.6364H314.168C314.349 26.1705 314.643 25.8087 315.048 25.5511C315.454 25.2898 315.94 25.1591 316.509 25.1591C317.084 25.1591 317.563 25.2898 317.946 25.5511C318.332 25.8087 318.634 26.1705 318.849 26.6364H318.94C319.164 26.1856 319.499 25.8277 319.946 25.5625C320.393 25.2936 320.929 25.1591 321.554 25.1591C322.334 25.1591 322.973 25.4034 323.469 25.892C323.965 26.3769 324.213 27.1326 324.213 28.1591V34H322.872V28.1591C322.872 27.5152 322.696 27.0549 322.344 26.7784C321.991 26.5019 321.577 26.3636 321.099 26.3636C320.486 26.3636 320.01 26.5492 319.673 26.9205C319.336 27.2879 319.168 27.7538 319.168 28.3182V34H317.804V28.0227C317.804 27.5265 317.643 27.1269 317.321 26.8239C316.999 26.517 316.584 26.3636 316.077 26.3636C315.728 26.3636 315.402 26.4564 315.099 26.642C314.8 26.8277 314.558 27.0852 314.372 27.4148C314.19 27.7405 314.099 28.1174 314.099 28.5455V34H312.759Z" fill="black"/>
<path d="M340.574 22.3636V34H339.21L332.869 24.8636H332.756V34H331.347V22.3636H332.71L339.074 31.5227H339.188V22.3636H340.574Z" fill="black"/>
<path d="M346.757 34.1818C345.969 34.1818 345.278 33.9943 344.683 33.6193C344.092 33.2443 343.63 32.7197 343.297 32.0455C342.967 31.3712 342.803 30.5833 342.803 29.6818C342.803 28.7727 342.967 27.9792 343.297 27.3011C343.63 26.6231 344.092 26.0966 344.683 25.7216C345.278 25.3466 345.969 25.1591 346.757 25.1591C347.545 25.1591 348.234 25.3466 348.825 25.7216C349.42 26.0966 349.882 26.6231 350.212 27.3011C350.545 27.9792 350.712 28.7727 350.712 29.6818C350.712 30.5833 350.545 31.3712 350.212 32.0455C349.882 32.7197 349.42 33.2443 348.825 33.6193C348.234 33.9943 347.545 34.1818 346.757 34.1818ZM346.757 32.9773C347.356 32.9773 347.848 32.8239 348.234 32.517C348.621 32.2102 348.907 31.8068 349.092 31.3068C349.278 30.8068 349.371 30.2652 349.371 29.6818C349.371 29.0985 349.278 28.5549 349.092 28.0511C348.907 27.5473 348.621 27.1402 348.234 26.8295C347.848 26.5189 347.356 26.3636 346.757 26.3636C346.159 26.3636 345.666 26.5189 345.28 26.8295C344.893 27.1402 344.607 27.5473 344.422 28.0511C344.236 28.5549 344.143 29.0985 344.143 29.6818C344.143 30.2652 344.236 30.8068 344.422 31.3068C344.607 31.8068 344.893 32.2102 345.28 32.517C345.666 32.8239 346.159 32.9773 346.757 32.9773Z" fill="black"/>
<path d="M358.259 30.4318V25.2727H359.599V34H358.259V32.5227H358.168C357.963 32.9659 357.645 33.3428 357.213 33.6534C356.781 33.9602 356.236 34.1136 355.577 34.1136C355.031 34.1136 354.546 33.9943 354.122 33.7557C353.698 33.5133 353.365 33.1496 353.122 32.6648C352.88 32.1761 352.759 31.5606 352.759 30.8182V25.2727H354.099V30.7273C354.099 31.3636 354.277 31.8712 354.634 32.25C354.993 32.6288 355.452 32.8182 356.009 32.8182C356.342 32.8182 356.681 32.733 357.026 32.5625C357.374 32.392 357.666 32.1307 357.901 31.7784C358.139 31.4261 358.259 30.9773 358.259 30.4318Z" fill="black"/>
<path d="M363.396 28.75V34H362.055V25.2727H363.351V26.6364H363.464C363.669 26.1932 363.98 25.8371 364.396 25.5682C364.813 25.2955 365.351 25.1591 366.01 25.1591C366.601 25.1591 367.118 25.2803 367.561 25.5227C368.004 25.7614 368.349 26.125 368.595 26.6136C368.841 27.0985 368.964 27.7121 368.964 28.4545V34H367.624V28.5455C367.624 27.8598 367.446 27.3258 367.089 26.9432C366.733 26.5568 366.245 26.3636 365.624 26.3636C365.196 26.3636 364.813 26.4564 364.476 26.642C364.143 26.8277 363.879 27.0985 363.686 27.4545C363.493 27.8106 363.396 28.2424 363.396 28.75Z" fill="black"/>
<path d="M376.097 34V22.3636H380.028C380.941 22.3636 381.688 22.5284 382.267 22.858C382.85 23.1837 383.282 23.625 383.562 24.1818C383.843 24.7386 383.983 25.3598 383.983 26.0455C383.983 26.7311 383.843 27.3542 383.562 27.9148C383.286 28.4754 382.858 28.9223 382.278 29.2557C381.699 29.5852 380.956 29.75 380.051 29.75H377.233V28.5H380.006C380.631 28.5 381.133 28.392 381.511 28.1761C381.89 27.9602 382.165 27.6686 382.335 27.3011C382.509 26.9299 382.597 26.5114 382.597 26.0455C382.597 25.5795 382.509 25.1629 382.335 24.7955C382.165 24.428 381.888 24.1402 381.506 23.9318C381.123 23.7197 380.616 23.6136 379.983 23.6136H377.506V34H376.097Z" fill="black"/>
<path d="M386.071 34V25.2727H387.366V26.5909H387.457C387.616 26.1591 387.904 25.8087 388.321 25.5398C388.738 25.2708 389.207 25.1364 389.73 25.1364C389.829 25.1364 389.952 25.1383 390.099 25.142C390.247 25.1458 390.359 25.1515 390.435 25.1591V26.5227C390.389 26.5114 390.285 26.4943 390.122 26.4716C389.963 26.4451 389.795 26.4318 389.616 26.4318C389.192 26.4318 388.813 26.5208 388.48 26.6989C388.151 26.8731 387.889 27.1155 387.696 27.4261C387.507 27.733 387.412 28.0833 387.412 28.4773V34H386.071Z" fill="black"/>
<path d="M395.304 34.1818C394.516 34.1818 393.825 33.9943 393.23 33.6193C392.639 33.2443 392.177 32.7197 391.844 32.0455C391.514 31.3712 391.349 30.5833 391.349 29.6818C391.349 28.7727 391.514 27.9792 391.844 27.3011C392.177 26.6231 392.639 26.0966 393.23 25.7216C393.825 25.3466 394.516 25.1591 395.304 25.1591C396.092 25.1591 396.781 25.3466 397.372 25.7216C397.967 26.0966 398.429 26.6231 398.759 27.3011C399.092 27.9792 399.259 28.7727 399.259 29.6818C399.259 30.5833 399.092 31.3712 398.759 32.0455C398.429 32.7197 397.967 33.2443 397.372 33.6193C396.781 33.9943 396.092 34.1818 395.304 34.1818ZM395.304 32.9773C395.902 32.9773 396.395 32.8239 396.781 32.517C397.168 32.2102 397.454 31.8068 397.639 31.3068C397.825 30.8068 397.918 30.2652 397.918 29.6818C397.918 29.0985 397.825 28.5549 397.639 28.0511C397.454 27.5473 397.168 27.1402 396.781 26.8295C396.395 26.5189 395.902 26.3636 395.304 26.3636C394.706 26.3636 394.213 26.5189 393.827 26.8295C393.44 27.1402 393.154 27.5473 392.969 28.0511C392.783 28.5549 392.69 29.0985 392.69 29.6818C392.69 30.2652 392.783 30.8068 392.969 31.3068C393.154 31.8068 393.44 32.2102 393.827 32.517C394.213 32.8239 394.706 32.9773 395.304 32.9773Z" fill="black"/>
<path d="M401.305 25.2727H402.646V34.6364C402.646 35.1742 402.553 35.6402 402.368 36.0341C402.186 36.428 401.91 36.733 401.538 36.9489C401.171 37.1648 400.707 37.2727 400.146 37.2727C400.101 37.2727 400.055 37.2727 400.01 37.2727C399.964 37.2727 399.919 37.2727 399.874 37.2727V36.0227C399.919 36.0227 399.961 36.0227 399.999 36.0227C400.036 36.0227 400.078 36.0227 400.124 36.0227C400.533 36.0227 400.832 35.9015 401.021 35.6591C401.211 35.4205 401.305 35.0795 401.305 34.6364V25.2727ZM401.964 23.8182C401.703 23.8182 401.478 23.7292 401.288 23.5511C401.103 23.3731 401.01 23.1591 401.01 22.9091C401.01 22.6591 401.103 22.4451 401.288 22.267C401.478 22.089 401.703 22 401.964 22C402.226 22 402.449 22.089 402.635 22.267C402.824 22.4451 402.919 22.6591 402.919 22.9091C402.919 23.1591 402.824 23.3731 402.635 23.5511C402.449 23.7292 402.226 23.8182 401.964 23.8182Z" fill="black"/>
<path d="M408.761 34.1818C407.92 34.1818 407.195 33.9962 406.585 33.625C405.979 33.25 405.511 32.7273 405.182 32.0568C404.856 31.3826 404.693 30.5985 404.693 29.7045C404.693 28.8106 404.856 28.0227 405.182 27.3409C405.511 26.6553 405.97 26.1212 406.557 25.7386C407.148 25.3523 407.837 25.1591 408.625 25.1591C409.08 25.1591 409.528 25.2348 409.972 25.3864C410.415 25.5379 410.818 25.7841 411.182 26.125C411.545 26.4621 411.835 26.9091 412.051 27.4659C412.267 28.0227 412.375 28.7083 412.375 29.5227V30.0909H405.648V28.9318H411.011C411.011 28.4394 410.913 28 410.716 27.6136C410.523 27.2273 410.246 26.9223 409.886 26.6989C409.53 26.4754 409.11 26.3636 408.625 26.3636C408.091 26.3636 407.629 26.4962 407.239 26.7614C406.852 27.0227 406.555 27.3636 406.347 27.7841C406.138 28.2045 406.034 28.6553 406.034 29.1364V29.9091C406.034 30.5682 406.148 31.1269 406.375 31.5852C406.606 32.0398 406.926 32.3864 407.335 32.625C407.744 32.8598 408.22 32.9773 408.761 32.9773C409.114 32.9773 409.432 32.928 409.716 32.8295C410.004 32.7273 410.252 32.5758 410.46 32.375C410.669 32.1705 410.83 31.9167 410.943 31.6136L412.239 31.9773C412.102 32.4167 411.873 32.803 411.551 33.1364C411.229 33.4659 410.831 33.7235 410.358 33.9091C409.884 34.0909 409.352 34.1818 408.761 34.1818Z" fill="black"/>
<path d="M417.96 34.1818C417.142 34.1818 416.437 33.9886 415.847 33.6023C415.256 33.2159 414.801 32.6837 414.483 32.0057C414.165 31.3276 414.006 30.553 414.006 29.6818C414.006 28.7955 414.169 28.0133 414.494 27.3352C414.824 26.6534 415.282 26.1212 415.869 25.7386C416.46 25.3523 417.15 25.1591 417.938 25.1591C418.551 25.1591 419.104 25.2727 419.597 25.5C420.089 25.7273 420.492 26.0455 420.807 26.4545C421.121 26.8636 421.316 27.3409 421.392 27.8864H420.051C419.949 27.4886 419.722 27.1364 419.369 26.8295C419.021 26.5189 418.551 26.3636 417.96 26.3636C417.438 26.3636 416.979 26.5 416.585 26.7727C416.195 27.0417 415.89 27.4223 415.67 27.9148C415.455 28.4034 415.347 28.9773 415.347 29.6364C415.347 30.3106 415.453 30.8977 415.665 31.3977C415.881 31.8977 416.184 32.286 416.574 32.5625C416.968 32.839 417.43 32.9773 417.96 32.9773C418.309 32.9773 418.625 32.9167 418.909 32.7955C419.193 32.6742 419.434 32.5 419.631 32.2727C419.828 32.0455 419.968 31.7727 420.051 31.4545H421.392C421.316 31.9697 421.129 32.4337 420.83 32.8466C420.534 33.2557 420.142 33.5814 419.653 33.8239C419.169 34.0625 418.604 34.1818 417.96 34.1818Z" fill="black"/>
<path d="M427.148 25.2727V26.4091H422.625V25.2727H427.148ZM423.943 23.1818H425.284V31.5C425.284 31.8788 425.339 32.1629 425.449 32.3523C425.562 32.5379 425.706 32.6629 425.881 32.7273C426.059 32.7879 426.246 32.8182 426.443 32.8182C426.591 32.8182 426.712 32.8106 426.807 32.7955C426.902 32.7765 426.977 32.7614 427.034 32.75L427.307 33.9545C427.216 33.9886 427.089 34.0227 426.926 34.0568C426.763 34.0947 426.557 34.1136 426.307 34.1136C425.928 34.1136 425.557 34.0322 425.193 33.8693C424.833 33.7064 424.534 33.4583 424.295 33.125C424.061 32.7917 423.943 32.3712 423.943 31.8636V23.1818Z" fill="black"/>
</g>
<defs>
<clipPath id="clip0_233_311">
<rect width="500" height="500" fill="white"/>
</clipPath>
</defs>
</svg>
