<svg width="500" height="500" viewBox="0 0 500 500" fill="none" xmlns="http://www.w3.org/2000/svg">
<path d="M76.696 0H424.332C449.672 4.63329 462.384 19.9759 462.467 46.0277C462.689 129.233 462.717 271.686 462.551 473.386C462.509 482.334 436.405 494.819 428.994 499.105C428.325 499.497 427.566 499.704 426.797 499.704C426.028 499.704 425.277 499.497 424.623 499.105L400.226 484.956C398.894 484.179 397.548 484.179 396.188 484.956L371.458 499.313C370.125 500.062 368.807 500.049 367.503 499.272L343.314 484.872C341.926 484.068 340.552 484.068 339.192 484.872L313.921 499.521C312.838 500.16 311.742 500.16 310.632 499.521L286.152 484.831C284.819 484.026 283.473 484.026 282.113 484.831L257.466 499.272C256.134 500.049 254.802 500.049 253.47 499.272L228.948 484.914C227.616 484.137 226.283 484.123 224.951 484.872L200.096 499.23C198.875 499.924 197.64 499.924 196.391 499.23L172.077 485.164C171.382 484.758 170.589 484.545 169.778 484.545C168.967 484.545 168.166 484.758 167.456 485.164L142.768 499.23C141.463 499.979 140.172 499.965 138.896 499.188L109.045 481.46C107.768 480.711 106.991 479.615 106.713 478.172C106.019 474.455 105.673 469.391 105.673 462.982C105.506 400.807 105.534 338.633 105.756 276.458C105.756 275.015 105.034 274.266 103.591 274.21C77.3899 272.906 60.362 272.712 52.5072 273.628C39.5593 275.168 38.1022 269.674 38.0606 258.271C37.9495 225.006 37.9912 154.619 38.1855 47.1097C38.241 20.3643 51.0778 4.66103 76.696 0ZM172.202 470.057L195.475 483.166C196.289 483.622 197.206 483.861 198.139 483.861C199.072 483.861 199.99 483.622 200.804 483.166L224.868 469.682C226.228 468.933 227.588 468.933 228.948 469.682L253.761 483.707C255.093 484.456 256.412 484.442 257.716 483.666L281.239 469.766C282.876 468.795 284.514 468.781 286.152 469.724L310.507 483.666C311.811 484.415 313.116 484.415 314.42 483.666L339.067 469.433C340.316 468.739 341.551 468.739 342.772 469.433L367.836 483.582C369.112 484.304 370.389 484.304 371.666 483.582L396.271 469.516C397.409 468.85 398.547 468.836 399.685 469.474L425.247 483.666C426.552 484.387 427.843 484.373 429.119 483.624L446.855 473.553C448.326 472.72 449.062 471.458 449.062 469.766C449.089 329.38 449.075 188.98 449.02 48.5663C449.02 21.9734 438.57 13.5669 411.717 13.5669C311.353 13.5669 210.962 13.5253 110.544 13.4421C110.323 13.4458 110.107 13.51 109.921 13.6276C109.734 13.7452 109.583 13.9117 109.484 14.1091C109.385 14.3064 109.343 14.5271 109.361 14.747C109.379 14.9669 109.457 15.1777 109.586 15.3564C115.72 23.8462 118.801 33.2931 118.829 43.6972C119.023 185.748 119.134 327.84 119.162 469.974C119.162 471.694 119.925 472.984 121.451 473.844L138.937 483.624C140.214 484.345 141.505 484.345 142.809 483.624L166.748 470.057C168.552 469.03 170.37 469.03 172.202 470.057ZM54.1725 260.144H102.966C103.684 260.144 104.372 259.859 104.88 259.352C105.387 258.844 105.673 258.156 105.673 257.439V41.658C105.673 34.263 102.817 27.1708 97.7342 21.9418C92.6514 16.7127 85.7577 13.775 78.5695 13.775C75.0102 13.775 71.4859 14.4962 68.1976 15.8975C64.9093 17.2987 61.9214 19.3526 59.4047 21.9418C54.3219 27.1708 51.4664 34.263 51.4664 41.658V257.439C51.4664 258.156 51.7515 258.844 52.259 259.352C52.7665 259.859 53.4548 260.144 54.1725 260.144Z" fill="#E5D7C4"/>
<path d="M283.112 64.2973C298.489 69.7074 306.996 80.4583 308.633 96.55C308.772 97.9095 308.522 99.1857 307.884 100.379C305.636 104.568 302.694 105.817 299.058 104.124C297.67 103.458 296.824 102.376 296.518 100.878C285.319 45.4451 220.746 103.708 272.121 118.149C290.481 123.309 307.218 126.222 307.801 150.943C308.245 169.504 299.988 181.822 283.029 187.898C281.308 188.508 280.448 189.715 280.448 191.519V203.879C280.448 205.21 279.948 206.32 278.949 207.208C275.757 210.121 272.524 209.941 269.249 206.667C268.388 205.835 267.958 204.822 267.958 203.629V190.478C267.958 188.98 267.25 188.009 265.835 187.565C249.07 182.155 240.3 170.239 239.523 151.817C239.439 149.597 240.48 148.349 242.645 148.071L248.973 147.239C250.972 146.989 251.999 147.863 252.054 149.861C253.22 181.572 294.27 183.154 295.144 153.606C296.102 122.019 243.145 141.745 239.897 104.083C238.177 84.3287 246.684 71.0669 265.418 64.2973C266.945 63.7424 267.722 62.6465 267.75 61.0096L268.083 46.6936C268.138 44.8347 269.096 43.9053 270.956 43.9053H277.534C279.476 43.9053 280.448 44.8625 280.448 46.7768V60.5102C280.448 62.3968 281.336 63.6592 283.112 64.2973Z" fill="#E5D7C4"/>
<path d="M205.55 313.912C205.55 315.921 204.752 317.848 203.331 319.268C201.91 320.689 199.983 321.487 197.973 321.487H154.841C152.832 321.487 150.904 320.689 149.483 319.268C148.062 317.848 147.264 315.921 147.264 313.912V270.798C147.264 268.789 148.062 266.863 149.483 265.442C150.904 264.022 152.832 263.224 154.841 263.224H197.973C199.983 263.224 201.91 264.022 203.331 265.442C204.752 266.863 205.55 268.789 205.55 270.798V313.912ZM192.905 277.913C192.903 277.607 192.841 277.305 192.722 277.022C192.604 276.74 192.431 276.484 192.213 276.269C191.995 276.054 191.737 275.883 191.454 275.768C191.17 275.652 190.867 275.593 190.561 275.595L163 275.739C162.382 275.743 161.79 275.991 161.355 276.431C160.92 276.87 160.678 277.464 160.681 278.082L160.825 305.715C160.827 306.021 160.889 306.324 161.008 306.606C161.126 306.888 161.299 307.144 161.517 307.359C161.735 307.575 161.993 307.745 162.276 307.861C162.56 307.976 162.863 308.035 163.169 308.033L190.73 307.889C191.348 307.886 191.94 307.637 192.375 307.198C192.81 306.758 193.052 306.164 193.049 305.546L192.905 277.913Z" fill="#E5D7C4"/>
<path d="M394.064 266.386H233.694C230.291 266.386 227.532 269.144 227.532 272.546V272.712C227.532 276.114 230.291 278.871 233.694 278.871H394.064C397.467 278.871 400.226 276.114 400.226 272.712V272.546C400.226 269.144 397.467 266.386 394.064 266.386Z" fill="#E5D7C4"/>
<path d="M315.586 304.84H234.069C230.436 304.84 227.491 307.784 227.491 311.415V311.748C227.491 315.38 230.436 318.324 234.069 318.324H315.586C319.219 318.324 322.164 315.38 322.164 311.748V311.415C322.164 307.784 319.219 304.84 315.586 304.84Z" fill="#E5D7C4"/>
<path d="M355.274 304.892L342.951 304.871C339.479 304.865 336.659 307.673 336.653 311.144L336.652 311.976C336.646 315.447 339.455 318.265 342.927 318.271L355.251 318.293C358.723 318.299 361.542 315.49 361.548 312.02L361.55 311.187C361.556 307.717 358.746 304.898 355.274 304.892Z" fill="#E5D7C4"/>
<path d="M205.628 420.681C205.631 421.589 205.455 422.487 205.111 423.327C204.766 424.166 204.26 424.93 203.62 425.573C202.981 426.217 202.221 426.729 201.384 427.079C200.546 427.429 199.648 427.611 198.741 427.614L154.277 427.769C153.369 427.772 152.47 427.597 151.63 427.252C150.791 426.908 150.027 426.402 149.383 425.763C148.739 425.123 148.227 424.364 147.877 423.527C147.527 422.69 147.345 421.792 147.342 420.885L147.186 376.439C147.183 375.532 147.359 374.633 147.703 373.793C148.048 372.954 148.554 372.191 149.194 371.547C149.833 370.903 150.593 370.392 151.43 370.042C152.268 369.691 153.166 369.51 154.073 369.506L198.537 369.351C199.445 369.348 200.344 369.524 201.184 369.868C202.023 370.212 202.787 370.718 203.431 371.358C204.075 371.997 204.587 372.757 204.937 373.594C205.287 374.43 205.469 375.328 205.472 376.235L205.628 420.681ZM192.91 385.7C192.908 385.317 192.831 384.939 192.683 384.586C192.534 384.234 192.318 383.914 192.046 383.644C191.774 383.375 191.451 383.162 191.097 383.018C190.743 382.873 190.363 382.8 189.981 382.802L163.586 382.94C163.203 382.942 162.824 383.019 162.472 383.167C162.119 383.316 161.799 383.532 161.529 383.804C161.26 384.076 161.047 384.398 160.903 384.752C160.758 385.107 160.685 385.486 160.687 385.868L160.82 411.254C160.822 411.636 160.899 412.015 161.047 412.368C161.196 412.72 161.412 413.04 161.684 413.309C161.956 413.578 162.279 413.791 162.633 413.936C162.987 414.08 163.367 414.154 163.749 414.152L190.144 414.014C190.527 414.012 190.906 413.935 191.258 413.786C191.611 413.638 191.931 413.422 192.2 413.15C192.47 412.878 192.683 412.556 192.827 412.201C192.972 411.847 193.045 411.468 193.043 411.085L192.91 385.7Z" fill="#E5D7C4"/>
<path d="M393.648 372.508H234.11C230.431 372.508 227.449 375.489 227.449 379.167V379.333C227.449 383.011 230.431 385.992 234.11 385.992H393.648C397.327 385.992 400.309 383.011 400.309 379.333V379.167C400.309 375.489 397.327 372.508 393.648 372.508Z" fill="#E5D7C4"/>
<path d="M316.377 411.003H233.777C230.19 411.003 227.283 413.91 227.283 417.496V417.995C227.283 421.58 230.19 424.487 233.777 424.487H316.377C319.964 424.487 322.872 421.58 322.872 417.995V417.496C322.872 413.91 319.964 411.003 316.377 411.003Z" fill="#E5D7C4"/>
<path d="M355.304 410.968L342.648 411.123C339.246 411.164 336.521 413.955 336.563 417.357L336.578 418.605C336.619 422.007 339.412 424.73 342.814 424.689L355.47 424.534C358.873 424.493 361.597 421.702 361.556 418.3L361.54 417.052C361.499 413.65 358.707 410.927 355.304 410.968Z" fill="#E5D7C4"/>
<path d="M71.267 322.865V321.46C71.6712 321.377 72.0262 321.232 72.3322 321.024C72.6381 320.82 72.895 320.571 73.1027 320.276C73.3143 319.985 73.4729 319.662 73.5787 319.307C73.6844 318.952 73.7373 318.582 73.7373 318.197C73.7373 317.494 73.5598 316.858 73.2047 316.287C72.8497 315.721 72.3265 315.269 71.6353 314.933C70.944 314.601 70.096 314.435 69.0913 314.435C68.0865 314.435 67.2385 314.601 66.5473 314.933C65.8561 315.269 65.3329 315.721 64.9778 316.287C64.6228 316.858 64.4453 317.494 64.4453 318.197C64.4453 318.582 64.4981 318.952 64.6039 319.307C64.7097 319.662 64.8664 319.985 65.0742 320.276C65.2857 320.571 65.5444 320.82 65.8504 321.024C66.1601 321.232 66.5152 321.377 66.9156 321.46V322.865C66.3226 322.76 65.7918 322.567 65.3235 322.287C64.8551 322.008 64.4566 321.66 64.128 321.245C63.8031 320.829 63.5557 320.363 63.3857 319.845C63.2158 319.332 63.1308 318.782 63.1308 318.197C63.1308 317.207 63.3725 316.327 63.856 315.556C64.3395 314.786 65.027 314.18 65.9184 313.738C66.8098 313.296 67.8675 313.075 69.0913 313.075C70.3151 313.075 71.3728 313.296 72.2642 313.738C73.1556 314.18 73.8431 314.786 74.3266 315.556C74.8101 316.327 75.0518 317.207 75.0518 318.197C75.0518 318.782 74.9668 319.332 74.7968 319.845C74.6269 320.363 74.3776 320.829 74.0489 321.245C73.7241 321.66 73.3275 322.008 72.8591 322.287C72.3945 322.567 71.8638 322.76 71.267 322.865Z" fill="#E5D7C4"/>
<path d="M63.2894 324.955H71.9922V326.247H70.6777V326.337C71.1083 326.496 71.4577 326.783 71.7259 327.198C71.9941 327.614 72.1282 328.082 72.1282 328.604C72.1282 328.702 72.1263 328.825 72.1225 328.972C72.1188 329.119 72.1131 329.231 72.1055 329.306H70.7457C70.7571 329.261 70.7741 329.157 70.7967 328.995C70.8232 328.836 70.8364 328.668 70.8364 328.49C70.8364 328.067 70.7476 327.689 70.5701 327.357C70.3963 327.028 70.1546 326.768 69.8449 326.575C69.5389 326.386 69.1895 326.292 68.7967 326.292H63.2894V324.955Z" fill="#E5D7C4"/>
<path d="M63.1081 334.275C63.1081 333.437 63.2932 332.713 63.6634 332.105C64.0373 331.501 64.5586 331.034 65.2271 330.706C65.8995 330.381 66.6814 330.218 67.5728 330.218C68.4643 330.218 69.2499 330.381 69.9298 330.706C70.6135 331.034 71.1461 331.491 71.5276 332.077C71.9129 332.666 72.1055 333.353 72.1055 334.139C72.1055 334.592 72.03 335.04 71.8789 335.482C71.7278 335.924 71.4823 336.326 71.1423 336.689C70.8062 337.051 70.3604 337.34 69.8052 337.556C69.2499 337.771 68.5662 337.879 67.7541 337.879H67.1875V331.17H68.3434L68.3434 336.519C68.8344 336.519 69.2726 336.421 69.6579 336.224C70.0432 336.032 70.3472 335.756 70.5701 335.397C70.7929 335.042 70.9044 334.623 70.9044 334.139C70.9044 333.607 70.7722 333.146 70.5078 332.757C70.2471 332.371 69.9072 332.075 69.4879 331.867C69.0686 331.659 68.6191 331.555 68.1394 331.555H67.3689C66.7116 331.555 66.1545 331.669 65.6974 331.895C65.2441 332.126 64.8985 332.445 64.6606 332.853C64.4264 333.261 64.3093 333.735 64.3093 334.275C64.3093 334.626 64.3584 334.944 64.4566 335.227C64.5586 335.514 64.7097 335.761 64.9099 335.969C65.1138 336.177 65.3669 336.337 65.6691 336.451L65.3065 337.743C64.8683 337.607 64.483 337.378 64.1506 337.057C63.822 336.736 63.5651 336.339 63.3801 335.867C63.1988 335.395 63.1081 334.864 63.1081 334.275Z" fill="#E5D7C4"/>
<path d="M63.0854 342.474C63.0854 341.922 63.1893 341.422 63.3971 340.972C63.6086 340.523 63.9127 340.166 64.3093 339.901C64.7097 339.637 65.1931 339.505 65.7597 339.505C66.2583 339.505 66.6625 339.603 66.9722 339.799C67.2858 339.996 67.5313 340.258 67.7088 340.587C67.8863 340.916 68.0185 341.278 68.1054 341.675C68.1961 342.075 68.2678 342.477 68.3207 342.882C68.3887 343.41 68.4397 343.839 68.4737 344.168C68.5115 344.5 68.5738 344.742 68.6607 344.893C68.7476 345.048 68.8986 345.125 69.1139 345.125H69.1593C69.7183 345.125 70.1527 344.972 70.4624 344.666C70.7722 344.364 70.927 343.905 70.927 343.29C70.927 342.651 70.7873 342.151 70.5078 341.788C70.2282 341.425 69.9298 341.171 69.6125 341.023L70.0658 339.754C70.5946 339.981 71.0064 340.283 71.301 340.661C71.5994 341.042 71.8071 341.458 71.9242 341.907C72.0451 342.36 72.1055 342.806 72.1055 343.244C72.1055 343.524 72.0715 343.845 72.0036 344.207C71.9393 344.574 71.8053 344.927 71.6013 345.267C71.3973 345.611 71.0895 345.896 70.6777 346.123C70.266 346.349 69.7145 346.462 69.0233 346.462H63.2894V345.125H64.4679V345.057C64.2791 344.967 64.077 344.816 63.8617 344.604C63.6464 344.393 63.4632 344.111 63.3121 343.76C63.161 343.409 63.0854 342.98 63.0854 342.474ZM64.2866 342.678C64.2866 343.206 64.3905 343.652 64.5982 344.015C64.806 344.381 65.0742 344.657 65.4028 344.842C65.7314 345.031 66.077 345.125 66.4396 345.125H67.6635C67.5955 345.069 67.5332 344.944 67.4765 344.751C67.4236 344.563 67.3764 344.343 67.3349 344.094C67.2971 343.849 67.2631 343.609 67.2329 343.375C67.2064 343.144 67.1838 342.957 67.1649 342.814C67.1196 342.466 67.0459 342.141 66.9439 341.839C66.8457 341.541 66.6965 341.299 66.4963 341.114C66.2999 340.933 66.0317 340.842 65.6917 340.842C65.2271 340.842 64.8759 341.014 64.6379 341.357C64.4037 341.705 64.2866 342.145 64.2866 342.678Z" fill="#E5D7C4"/>
<path d="M71.9922 352.688H70.859V348.178H71.9922V352.688ZM74.0773 349.492V350.829H65.7824C65.4047 350.829 65.1214 350.884 64.9325 350.994C64.7474 351.107 64.6228 351.251 64.5586 351.424C64.4981 351.602 64.4679 351.789 64.4679 351.985C64.4679 352.133 64.4755 352.253 64.4906 352.348C64.5095 352.442 64.5246 352.518 64.5359 352.575L63.3347 352.847C63.3007 352.756 63.2667 352.629 63.2327 352.467C63.195 352.304 63.1761 352.099 63.1761 351.849C63.1761 351.472 63.2573 351.101 63.4197 350.739C63.5821 350.38 63.8296 350.082 64.162 349.844C64.4944 349.609 64.9136 349.492 65.4198 349.492H74.0773Z" fill="#E5D7C4"/>
<path d="M63.1081 358.255C63.1081 357.416 63.2932 356.693 63.6634 356.085C64.0373 355.48 64.5586 355.014 65.2271 354.685C65.8995 354.36 66.6814 354.198 67.5728 354.198C68.4643 354.198 69.2499 354.36 69.9298 354.685C70.6135 355.014 71.1461 355.471 71.5276 356.056C71.9129 356.645 72.1055 357.333 72.1055 358.119C72.1055 358.572 72.03 359.019 71.8789 359.461C71.7278 359.903 71.4823 360.306 71.1423 360.668C70.8062 361.031 70.3604 361.32 69.8052 361.535C69.2499 361.75 68.5662 361.858 67.7541 361.858H67.1875L67.1875 355.15H68.3434V360.498C68.8344 360.498 69.2726 360.4 69.6579 360.204C70.0432 360.011 70.3472 359.735 70.5701 359.376C70.7929 359.021 70.9044 358.602 70.9044 358.119C70.9044 357.586 70.7722 357.125 70.5078 356.736C70.2471 356.351 69.9072 356.054 69.4879 355.847C69.0686 355.639 68.6191 355.535 68.1394 355.535H67.3689C66.7116 355.535 66.1545 355.648 65.6974 355.875C65.2441 356.105 64.8985 356.425 64.6606 356.832C64.4264 357.24 64.3093 357.714 64.3093 358.255C64.3093 358.606 64.3584 358.923 64.4566 359.206C64.5586 359.494 64.7097 359.741 64.9099 359.949C65.1138 360.156 65.3669 360.317 65.6691 360.43L65.3065 361.722C64.8683 361.586 64.483 361.358 64.1506 361.037C63.822 360.715 63.5651 360.319 63.3801 359.847C63.1988 359.375 63.1081 358.844 63.1081 358.255Z" fill="#E5D7C4"/>
<path d="M63.1081 367.178C63.1081 366.453 63.2913 365.813 63.6577 365.258C64.0279 364.702 64.5491 364.268 65.2215 363.954C65.8976 363.641 66.6965 363.484 67.6182 363.484C68.5322 363.484 69.3255 363.641 69.9978 363.954C70.6702 364.268 71.1896 364.704 71.556 365.263C71.9223 365.822 72.1055 366.468 72.1055 367.201C72.1055 367.768 72.0111 368.215 71.8222 368.544C71.6372 368.876 71.4256 369.129 71.1877 369.303C70.9535 369.481 70.7608 369.618 70.6097 369.717V369.83H74.8932V371.167H63.2894V369.875H64.6266V369.717C64.4679 369.618 64.2677 369.479 64.026 369.297C63.788 369.116 63.5746 368.857 63.3857 368.521C63.2006 368.185 63.1081 367.737 63.1081 367.178ZM64.3093 367.36C64.3093 367.896 64.449 368.349 64.7285 368.72C65.0118 369.09 65.4028 369.371 65.9014 369.564C66.4038 369.756 66.9836 369.853 67.6408 369.853C68.2905 369.853 68.859 369.758 69.3463 369.569C69.8373 369.381 70.2188 369.101 70.4908 368.731C70.7665 368.361 70.9044 367.904 70.9044 367.36C70.9044 366.793 70.7589 366.321 70.4681 365.943C70.181 365.569 69.7901 365.288 69.2953 365.099C68.8042 364.914 68.2527 364.821 67.6408 364.821C67.0213 364.821 66.4585 364.916 65.9524 365.105C65.45 365.297 65.0496 365.581 64.7512 365.955C64.4566 366.332 64.3093 366.801 64.3093 367.36Z" fill="#E5D7C4"/>
<path d="M63.2894 378.471H74.8932V382.527C74.8932 383.336 74.7534 384.002 74.4739 384.527C74.1981 385.052 73.8261 385.443 73.3577 385.7C72.8931 385.957 72.3775 386.085 71.8109 386.085C71.3123 386.085 70.9006 385.997 70.5757 385.819C70.2509 385.645 69.9941 385.415 69.8052 385.128C69.6163 384.845 69.4766 384.537 69.3859 384.204H69.2726C69.2499 384.559 69.1253 384.916 68.8986 385.275C68.672 385.634 68.3472 385.934 67.9241 386.176C67.5011 386.418 66.9836 386.539 66.3717 386.539C65.79 386.539 65.2668 386.407 64.8022 386.142C64.3376 385.878 63.9693 385.46 63.6974 384.89C63.4254 384.32 63.2894 383.577 63.2894 382.663V378.471ZM64.5359 379.876V382.663C64.5359 383.581 64.7134 384.233 65.0685 384.618C65.4273 385.007 65.8617 385.202 66.3717 385.202C66.7645 385.202 67.1271 385.101 67.4595 384.901C67.7957 384.701 68.0639 384.416 68.2641 384.046C68.468 383.676 68.57 383.237 68.57 382.731V379.876H64.5359ZM69.7939 379.876V382.482C69.7939 382.905 69.877 383.287 70.0432 383.626C70.2094 383.97 70.4435 384.242 70.7457 384.442C71.0479 384.646 71.403 384.748 71.8109 384.748C72.3208 384.748 72.7533 384.571 73.1084 384.216C73.4672 383.861 73.6467 383.298 73.6467 382.527V379.876H69.7939Z" fill="#E5D7C4"/>
<path d="M60.0258 389.528C60.0258 389.301 60.0447 389.099 60.0825 388.921C60.1165 388.744 60.1505 388.621 60.1845 388.553L61.363 388.893C61.2799 389.218 61.2497 389.505 61.2723 389.754C61.295 390.003 61.4064 390.224 61.6066 390.417C61.8031 390.613 62.1222 390.793 62.5642 390.955L63.2441 391.205L71.9922 387.986V389.437L65.0572 391.839V391.93L71.9922 394.332V395.783L62.0202 392.088C61.5708 391.922 61.1987 391.716 60.9041 391.471C60.6057 391.225 60.3847 390.94 60.2412 390.615C60.0976 390.294 60.0258 389.932 60.0258 389.528Z" fill="#E5D7C4"/>
<path d="M73.6467 406.069H74.8932V414.772H73.6467V411.123H63.2894V409.718H73.6467V406.069Z" fill="#E5D7C4"/>
<path d="M63.1081 419.033C63.1081 418.247 63.2951 417.558 63.669 416.965C64.043 416.375 64.5661 415.915 65.2385 415.582C65.9108 415.254 66.6965 415.089 67.5955 415.089C68.502 415.089 69.2934 415.254 69.9695 415.582C70.6456 415.915 71.1707 416.375 71.5446 416.965C71.9186 417.558 72.1055 418.247 72.1055 419.033C72.1055 419.818 71.9186 420.506 71.5446 421.095C71.1707 421.688 70.6456 422.149 69.9695 422.478C69.2934 422.81 68.502 422.976 67.5955 422.976C66.6965 422.976 65.9108 422.81 65.2385 422.478C64.5661 422.149 64.043 421.688 63.669 421.095C63.2951 420.506 63.1081 419.818 63.1081 419.033ZM64.3093 419.033C64.3093 419.629 64.4622 420.121 64.7682 420.506C65.0742 420.891 65.4764 421.176 65.975 421.361C66.4736 421.546 67.0138 421.639 67.5955 421.639C68.1772 421.639 68.7192 421.546 69.2216 421.361C69.724 421.176 70.13 420.891 70.4398 420.506C70.7495 420.121 70.9044 419.629 70.9044 419.033C70.9044 418.436 70.7495 417.945 70.4398 417.56C70.13 417.174 69.724 416.889 69.2216 416.704C68.7192 416.519 68.1772 416.426 67.5955 416.426C67.0138 416.426 66.4736 416.519 65.975 416.704C65.4764 416.889 65.0742 417.174 64.7682 417.56C64.4622 417.945 64.3093 418.436 64.3093 419.033Z" fill="#E5D7C4"/>
<path d="M60.0258 425.017H71.9922V426.309H70.6097V426.468C70.7608 426.566 70.9535 426.702 71.1877 426.876C71.4256 427.053 71.6372 427.306 71.8222 427.635C72.0111 427.967 72.1055 428.417 72.1055 428.983C72.1055 429.716 71.9223 430.362 71.5559 430.921C71.1896 431.48 70.6702 431.916 69.9978 432.23C69.3255 432.543 68.5322 432.7 67.6181 432.7C66.6965 432.7 65.8976 432.543 65.2215 432.23C64.5491 431.916 64.0279 431.482 63.6577 430.927C63.2913 430.372 63.1081 429.731 63.1081 429.006C63.1081 428.447 63.2006 427.999 63.3857 427.663C63.5746 427.327 63.788 427.068 64.026 426.887C64.2677 426.706 64.4679 426.566 64.6266 426.468V426.354H60.0258V425.017ZM67.6408 426.332C66.9836 426.332 66.4038 426.428 65.9014 426.621C65.4028 426.813 65.0118 427.095 64.7285 427.465C64.449 427.835 64.3093 428.288 64.3093 428.825C64.3093 429.384 64.4566 429.85 64.7512 430.224C65.0496 430.602 65.45 430.885 65.9524 431.074C66.4585 431.267 67.0213 431.363 67.6408 431.363C68.2527 431.363 68.8042 431.269 69.2953 431.08C69.7901 430.895 70.181 430.613 70.4681 430.236C70.7589 429.862 70.9044 429.391 70.9044 428.825C70.9044 428.281 70.7665 427.824 70.4908 427.454C70.2188 427.083 69.8373 426.804 69.3462 426.615C68.859 426.426 68.2905 426.332 67.6408 426.332Z" fill="#E5D7C4"/>
<path d="M63.2894 439.409H74.8932L74.8932 446.366H73.6467L73.6467 440.814H69.7259V445.845H68.4794V440.814H63.2894V439.409Z" fill="#E5D7C4"/>
<path d="M74.8932 448.773V450.45L65.2611 454.394V454.53L74.8932 458.473V460.15H63.2894V458.836H72.1055V458.722L63.2894 455.096V453.827L72.1055 450.201V450.087H63.2894V448.773H74.8932Z" fill="#E5D7C4"/>
<path d="M44.3427 313.528H55.9464V320.486H54.6999V314.933H50.7791V319.964H49.5326V314.933H44.3427V313.528Z" fill="#E5D7C4"/>
<path d="M44.3427 322.618H53.0455L53.0455 323.909H51.731V324C52.1616 324.159 52.511 324.446 52.7792 324.861C53.0474 325.277 53.1815 325.745 53.1815 326.266C53.1815 326.365 53.1796 326.487 53.1758 326.635C53.172 326.782 53.1663 326.893 53.1588 326.969H51.799C51.8103 326.924 51.8273 326.82 51.85 326.657C51.8764 326.499 51.8896 326.331 51.8896 326.153C51.8896 325.73 51.8009 325.352 51.6233 325.02C51.4496 324.691 51.2078 324.431 50.8981 324.238C50.5921 324.049 50.2427 323.955 49.8499 323.955H44.3427V322.618Z" fill="#E5D7C4"/>
<path d="M44.1613 331.825C44.1613 331.039 44.3483 330.35 44.7223 329.757C45.0962 329.167 45.6194 328.706 46.2917 328.374C46.9641 328.045 47.7497 327.881 48.6487 327.881C49.5553 327.881 50.3466 328.045 51.0227 328.374C51.6989 328.706 52.2239 329.167 52.5979 329.757C52.9718 330.35 53.1588 331.039 53.1588 331.825C53.1588 332.61 52.9718 333.298 52.5979 333.887C52.2239 334.48 51.6989 334.941 51.0227 335.269C50.3466 335.602 49.5553 335.768 48.6487 335.768C47.7497 335.768 46.9641 335.602 46.2917 335.269C45.6194 334.941 45.0962 334.48 44.7223 333.887C44.3483 333.298 44.1613 332.61 44.1613 331.825ZM45.3625 331.825C45.3625 332.421 45.5155 332.912 45.8215 333.298C46.1274 333.683 46.5297 333.968 47.0283 334.153C47.5269 334.338 48.067 334.431 48.6487 334.431C49.2304 334.431 49.7725 334.338 50.2748 334.153C50.7772 333.968 51.1833 333.683 51.493 333.298C51.8027 332.912 51.9576 332.421 51.9576 331.825C51.9576 331.228 51.8027 330.737 51.493 330.351C51.1833 329.966 50.7772 329.681 50.2748 329.496C49.7725 329.311 49.2304 329.218 48.6487 329.218C48.067 329.218 47.5269 329.311 47.0283 329.496C46.5297 329.681 46.1274 329.966 45.8215 330.351C45.5155 330.737 45.3625 331.228 45.3625 331.825Z" fill="#E5D7C4"/>
<path d="M44.3427 337.809H53.0455V339.101H51.6857V339.214C52.1503 339.396 52.511 339.688 52.7678 340.093C53.0285 340.497 53.1588 340.982 53.1588 341.549C53.1588 342.123 53.0285 342.601 52.7678 342.982C52.511 343.367 52.1503 343.668 51.6857 343.883V343.974C52.1351 344.197 52.4921 344.531 52.7565 344.977C53.0247 345.422 53.1588 345.957 53.1588 346.58C53.1588 347.358 52.9152 347.995 52.4279 348.489C51.9444 348.984 51.1908 349.232 50.1672 349.232H44.3427V347.895H50.1672C50.8093 347.895 51.2683 347.719 51.544 347.368C51.8197 347.016 51.9576 346.603 51.9576 346.127C51.9576 345.515 51.7725 345.041 51.4024 344.705C51.036 344.368 50.5714 344.2 50.0085 344.2H44.3427V342.841H50.3032C50.798 342.841 51.1965 342.68 51.4987 342.359C51.8046 342.038 51.9576 341.624 51.9576 341.118C51.9576 340.771 51.8651 340.446 51.68 340.144C51.4949 339.845 51.238 339.603 50.9094 339.418C50.5846 339.237 50.2087 339.146 49.7819 339.146H44.3427V337.809Z" fill="#E5D7C4"/>
<path d="M53.0455 359.949H51.9123L51.9123 355.439H53.0455V359.949ZM55.1305 356.753V358.09H46.8356C46.4579 358.09 46.1746 358.145 45.9858 358.255C45.8007 358.368 45.676 358.511 45.6118 358.685C45.5514 358.863 45.5212 359.05 45.5212 359.246C45.5212 359.393 45.5287 359.514 45.5438 359.609C45.5627 359.703 45.5778 359.779 45.5891 359.835L44.388 360.107C44.354 360.017 44.32 359.89 44.286 359.728C44.2482 359.565 44.2293 359.359 44.2293 359.11C44.2293 358.732 44.3105 358.362 44.473 358C44.6354 357.641 44.8828 357.342 45.2152 357.104C45.5476 356.87 45.9669 356.753 46.473 356.753H55.1305Z" fill="#E5D7C4"/>
<path d="M49.5779 363.484H44.3427V362.147H55.9464V363.484H51.6857V363.598C52.1351 363.802 52.4921 364.107 52.7565 364.515C53.0247 364.927 53.1588 365.475 53.1588 366.159C53.1588 366.752 53.0398 367.271 52.8018 367.717C52.5676 368.162 52.2069 368.508 51.7196 368.753C51.2362 369.003 50.6205 369.127 49.8726 369.127H44.3427V367.79H49.7819C50.4732 367.79 51.0076 367.611 51.3854 367.252C51.7669 366.897 51.9576 366.404 51.9576 365.773C51.9576 365.335 51.8651 364.942 51.68 364.595C51.4949 364.251 51.2248 363.979 50.8698 363.779C50.5147 363.582 50.0841 363.484 49.5779 363.484Z" fill="#E5D7C4"/>
<path d="M44.1613 375.223C44.1613 374.384 44.3464 373.661 44.7166 373.053C45.0905 372.448 45.6118 371.982 46.2804 371.653C46.9527 371.328 47.7346 371.166 48.6261 371.166C49.5175 371.166 50.3032 371.328 50.9831 371.653C51.6668 371.982 52.1994 372.439 52.5809 373.024C52.9661 373.613 53.1588 374.301 53.1588 375.087C53.1588 375.54 53.0832 375.987 52.9321 376.429C52.7811 376.871 52.5355 377.274 52.1956 377.636C51.8594 377.999 51.4137 378.288 50.8584 378.503C50.3032 378.718 49.6195 378.826 48.8074 378.826H48.2408V372.118H49.3966V377.466C49.8877 377.466 50.3258 377.368 50.7111 377.172C51.0964 376.979 51.4005 376.703 51.6233 376.344C51.8462 375.989 51.9576 375.57 51.9576 375.087C51.9576 374.554 51.8254 374.093 51.561 373.704C51.3004 373.319 50.9604 373.022 50.5411 372.815C50.1219 372.607 49.6724 372.503 49.1927 372.503H48.4221C47.7649 372.503 47.2077 372.616 46.7507 372.843C46.2974 373.073 45.9518 373.392 45.7138 373.8C45.4796 374.208 45.3625 374.682 45.3625 375.223C45.3625 375.574 45.4116 375.891 45.5098 376.174C45.6118 376.461 45.7629 376.709 45.9631 376.917C46.1671 377.124 46.4201 377.285 46.7223 377.398L46.3597 378.69C45.9215 378.554 45.5363 378.326 45.2039 378.005C44.8752 377.683 44.6184 377.287 44.4333 376.815C44.252 376.342 44.1613 375.812 44.1613 375.223Z" fill="#E5D7C4"/>
<path d="M55.9464 399.218H44.3426V397.858L53.4534 391.535V391.421H44.3427V390.016H55.9464V391.376L46.813 397.722V397.835H55.9464V399.218Z" fill="#E5D7C4"/>
<path d="M44.1613 405.384C44.1613 404.598 44.3483 403.908 44.7223 403.315C45.0962 402.726 45.6194 402.265 46.2917 401.933C46.9641 401.604 47.7497 401.44 48.6487 401.44C49.5553 401.44 50.3466 401.604 51.0227 401.933C51.6989 402.265 52.2239 402.726 52.5979 403.315C52.9718 403.908 53.1588 404.598 53.1588 405.384C53.1588 406.169 52.9718 406.857 52.5979 407.446C52.2239 408.039 51.6989 408.5 51.0227 408.828C50.3466 409.161 49.5553 409.327 48.6487 409.327C47.7497 409.327 46.9641 409.161 46.2917 408.828C45.6194 408.5 45.0962 408.039 44.7223 407.446C44.3483 406.857 44.1613 406.169 44.1613 405.384ZM45.3625 405.384C45.3625 405.98 45.5155 406.471 45.8214 406.857C46.1274 407.242 46.5297 407.527 47.0283 407.712C47.5269 407.897 48.067 407.99 48.6487 407.99C49.2304 407.99 49.7725 407.897 50.2748 407.712C50.7772 407.527 51.1833 407.242 51.493 406.857C51.8027 406.471 51.9576 405.98 51.9576 405.384C51.9576 404.787 51.8027 404.296 51.493 403.91C51.1833 403.525 50.7772 403.24 50.2748 403.055C49.7725 402.87 49.2304 402.777 48.6487 402.777C48.067 402.777 47.5269 402.87 47.0283 403.055C46.5297 403.24 46.1274 403.525 45.8214 403.91C45.5155 404.296 45.3625 404.787 45.3625 405.384Z" fill="#E5D7C4"/>
<path d="M47.9008 416.853H53.0455V418.19H44.3426V416.853H45.8158V416.762C45.3738 416.558 44.998 416.241 44.6883 415.81C44.3823 415.38 44.2293 414.836 44.2293 414.178C44.2293 413.634 44.3483 413.151 44.5863 412.728C44.828 412.305 45.1906 411.972 45.6741 411.731C46.1614 411.489 46.7752 411.368 47.5156 411.368H53.0455V412.705H47.6062C46.9716 412.705 46.4655 412.883 46.0877 413.238C45.71 413.597 45.5212 414.054 45.5212 414.609C45.5212 414.941 45.6061 415.279 45.7761 415.623C45.9461 415.971 46.2067 416.262 46.558 416.496C46.9093 416.734 47.3569 416.853 47.9008 416.853Z" fill="#E5D7C4"/>
<path d="M49.5779 421.976H44.3426V420.639H53.0455V421.931H51.6856V422.044C52.1276 422.248 52.4827 422.558 52.7508 422.973C53.0228 423.389 53.1588 423.925 53.1588 424.582C53.1588 425.172 53.0379 425.687 52.7962 426.129C52.5582 426.571 52.1956 426.915 51.7083 427.16C51.2248 427.406 50.6129 427.529 49.8726 427.529H44.3426L44.3426 426.192H49.7819C50.4656 426.192 50.9982 426.014 51.3797 425.659C51.765 425.304 51.9576 424.817 51.9576 424.197C51.9576 423.77 51.8651 423.389 51.68 423.053C51.4949 422.72 51.2248 422.458 50.8698 422.265C50.5147 422.072 50.0841 421.976 49.5779 421.976Z" fill="#E5D7C4"/>
<path d="M44.3426 434.641H55.9464V438.562C55.9464 439.472 55.7821 440.216 55.4535 440.794C55.1286 441.376 54.6886 441.806 54.1333 442.086C53.5781 442.365 52.9586 442.505 52.2749 442.505C51.5912 442.505 50.9699 442.365 50.4108 442.086C49.8518 441.81 49.4061 441.383 49.0737 440.805C48.745 440.227 48.5807 439.487 48.5807 438.584V435.774H49.8272V438.539C49.8272 439.162 49.9349 439.663 50.1502 440.04C50.3655 440.418 50.6563 440.692 51.0227 440.862C51.3929 441.036 51.8103 441.123 52.2749 441.123C52.7395 441.123 53.155 441.036 53.5214 440.862C53.8878 440.692 54.1749 440.416 54.3826 440.035C54.5941 439.653 54.6999 439.147 54.6999 438.516V436.046H44.3426V434.641Z" fill="#E5D7C4"/>
<path d="M44.3426 444.587H53.0455V445.879H51.731V445.97C52.1616 446.128 52.511 446.415 52.7792 446.831C53.0474 447.246 53.1814 447.715 53.1814 448.236C53.1814 448.334 53.1796 448.457 53.1758 448.604C53.172 448.752 53.1663 448.863 53.1588 448.939H51.799C51.8103 448.893 51.8273 448.789 51.85 448.627C51.8764 448.468 51.8896 448.3 51.8896 448.123C51.8896 447.7 51.8009 447.322 51.6233 446.99C51.4496 446.661 51.2078 446.4 50.8981 446.208C50.5921 446.019 50.2427 445.924 49.8499 445.924H44.3426V444.587Z" fill="#E5D7C4"/>
<path d="M44.1613 453.794C44.1613 453.009 44.3483 452.319 44.7223 451.726C45.0962 451.137 45.6194 450.676 46.2917 450.344C46.9641 450.015 47.7497 449.851 48.6487 449.851C49.5553 449.851 50.3466 450.015 51.0227 450.344C51.6989 450.676 52.2239 451.137 52.5979 451.726C52.9718 452.319 53.1588 453.009 53.1588 453.794C53.1588 454.58 52.9718 455.267 52.5979 455.857C52.2239 456.45 51.6989 456.911 51.0227 457.239C50.3466 457.572 49.5553 457.738 48.6487 457.738C47.7497 457.738 46.9641 457.572 46.2917 457.239C45.6194 456.911 45.0962 456.45 44.7223 455.857C44.3483 455.267 44.1613 454.58 44.1613 453.794ZM45.3625 453.794C45.3625 454.391 45.5155 454.882 45.8214 455.267C46.1274 455.653 46.5297 455.938 47.0283 456.123C47.5269 456.308 48.067 456.401 48.6487 456.401C49.2304 456.401 49.7725 456.308 50.2748 456.123C50.7772 455.938 51.1833 455.653 51.493 455.267C51.8027 454.882 51.9576 454.391 51.9576 453.794C51.9576 453.198 51.8027 452.706 51.493 452.321C51.1833 451.936 50.7772 451.651 50.2748 451.466C49.7725 451.281 49.2304 451.188 48.6487 451.188C48.067 451.188 47.5269 451.281 47.0283 451.466C46.5297 451.651 46.1274 451.936 45.8214 452.321C45.5155 452.706 45.3625 453.198 45.3625 453.794Z" fill="#E5D7C4"/>
<path d="M53.0455 459.779V461.116H43.7081C43.1717 461.116 42.7071 461.024 42.3143 460.838C41.9214 460.657 41.6174 460.381 41.402 460.011C41.1867 459.645 41.0791 459.182 41.0791 458.623C41.0791 458.578 41.0791 458.532 41.0791 458.487C41.0791 458.442 41.0791 458.396 41.0791 458.351H42.3256C42.3256 458.396 42.3256 458.438 42.3256 458.476C42.3256 458.514 42.3256 458.555 42.3256 458.6C42.3256 459.008 42.4465 459.307 42.6882 459.496C42.9262 459.685 43.2661 459.779 43.7081 459.779H53.0455ZM54.4959 460.436C54.4959 460.176 54.5847 459.951 54.7622 459.762C54.9398 459.577 55.1532 459.484 55.4025 459.484C55.6518 459.484 55.8652 459.577 56.0427 459.762C56.2203 459.951 56.309 460.176 56.309 460.436C56.309 460.697 56.2203 460.92 56.0427 461.105C55.8652 461.294 55.6518 461.388 55.4025 461.388C55.1532 461.388 54.9398 461.294 54.7622 461.105C54.5847 460.92 54.4959 460.697 54.4959 460.436Z" fill="#E5D7C4"/>
<path d="M44.1613 467.214C44.1613 466.375 44.3464 465.652 44.7166 465.044C45.0905 464.44 45.6118 463.973 46.2804 463.645C46.9527 463.32 47.7346 463.157 48.6261 463.157C49.5175 463.157 50.3032 463.32 50.9831 463.645C51.6668 463.973 52.1994 464.43 52.5809 465.016C52.9661 465.605 53.1588 466.292 53.1588 467.078C53.1588 467.531 53.0832 467.979 52.9321 468.421C52.7811 468.863 52.5355 469.265 52.1956 469.628C51.8594 469.99 51.4137 470.279 50.8584 470.495C50.3032 470.71 49.6195 470.818 48.8074 470.818H48.2408V464.109H49.3966V469.458C49.8877 469.458 50.3258 469.36 50.7111 469.163C51.0964 468.97 51.4005 468.695 51.6233 468.336C51.8462 467.981 51.9576 467.562 51.9576 467.078C51.9576 466.545 51.8254 466.085 51.561 465.696C51.3004 465.31 50.9604 465.014 50.5411 464.806C50.1219 464.598 49.6724 464.494 49.1927 464.494H48.4221C47.7648 464.494 47.2077 464.608 46.7507 464.834C46.2974 465.065 45.9518 465.384 45.7138 465.792C45.4796 466.2 45.3625 466.674 45.3625 467.214C45.3625 467.565 45.4116 467.883 45.5098 468.166C45.6118 468.453 45.7629 468.7 45.9631 468.908C46.1671 469.116 46.4201 469.276 46.7223 469.39L46.3597 470.682C45.9215 470.546 45.5363 470.317 45.2039 469.996C44.8752 469.675 44.6184 469.278 44.4333 468.806C44.252 468.334 44.1613 467.803 44.1613 467.214Z" fill="#E5D7C4"/>
<path d="M44.1613 476.387C44.1613 475.571 44.354 474.869 44.7393 474.279C45.1245 473.69 45.6552 473.237 46.3314 472.92C47.0075 472.602 47.78 472.444 48.6487 472.444C49.5326 472.444 50.3126 472.606 50.9887 472.931C51.6687 473.26 52.1994 473.717 52.5809 474.302C52.9661 474.891 53.1588 475.579 53.1588 476.364C53.1588 476.976 53.0455 477.528 52.8188 478.019C52.5922 478.51 52.2749 478.912 51.867 479.226C51.459 479.539 50.9831 479.734 50.4392 479.809V478.472C50.8358 478.37 51.187 478.144 51.493 477.792C51.8027 477.445 51.9576 476.976 51.9576 476.387C51.9576 475.866 51.8216 475.409 51.5497 475.016C51.2815 474.627 50.9019 474.323 50.4108 474.104C49.9236 473.888 49.3513 473.781 48.6941 473.781C48.0217 473.781 47.4362 473.887 46.9376 474.098C46.439 474.313 46.0519 474.616 45.7761 475.005C45.5004 475.397 45.3625 475.858 45.3625 476.387C45.3625 476.735 45.4229 477.05 45.5438 477.333C45.6647 477.617 45.8384 477.856 46.0651 478.053C46.2917 478.249 46.5637 478.389 46.881 478.472V479.809C46.3673 479.734 45.9045 479.547 45.4928 479.248C45.0849 478.954 44.76 478.563 44.5183 478.076C44.2803 477.592 44.1613 477.029 44.1613 476.387Z" fill="#E5D7C4"/>
<path d="M53.0455 485.549H51.9123V481.039H53.0455V485.549ZM55.1305 482.353V483.69H46.8356C46.4579 483.69 46.1746 483.745 45.9858 483.855C45.8007 483.968 45.676 484.112 45.6118 484.285C45.5514 484.463 45.5212 484.65 45.5212 484.846C45.5212 484.994 45.5287 485.114 45.5438 485.209C45.5627 485.303 45.5778 485.379 45.5891 485.436L44.388 485.708C44.354 485.617 44.32 485.49 44.286 485.328C44.2482 485.165 44.2293 484.96 44.2293 484.71C44.2293 484.333 44.3105 483.962 44.473 483.6C44.6354 483.241 44.8828 482.943 45.2152 482.705C45.5476 482.47 45.9669 482.353 46.473 482.353H55.1305Z" fill="#E5D7C4"/>
</svg>
