<svg width="500" height="500" viewBox="0 0 500 500" fill="none" xmlns="http://www.w3.org/2000/svg">
<g clip-path="url(#clip0_233_309)">
<path d="M498.736 275.146C497.974 273.621 495.686 272.859 494.161 272.859H477.384V140.22C477.384 137.17 475.096 134.121 471.283 134.121H285.973L251.656 102.867C244.793 96.7687 236.404 93.7195 227.253 93.7195H93.7991C90.7487 93.7195 87.6983 96.0064 87.6983 99.8178V135.646H51.8564C48.806 135.646 45.7556 137.933 45.7556 141.744V175.285H6.10075C3.05038 175.285 0 177.572 0 181.384V496.212C0 496.974 0.762594 497.737 0.762594 498.499C1.52519 498.499 2.28778 499.261 3.05038 499.261C3.81297 499.261 4.57556 500.024 4.57556 500.024C5.33816 500.024 5.33816 500.024 6.10075 500.024H398.837C401.124 500.024 403.412 498.499 404.175 496.974L499.499 280.482C500.262 278.958 500.262 276.671 498.736 275.146ZM99.1372 105.916H227.253C233.354 105.916 239.454 108.203 244.03 112.015L279.872 144.793C280.635 145.556 282.16 146.318 283.685 146.318H465.945V272.859H441.542V181.384C441.542 178.334 439.254 175.285 435.441 175.285H244.793L210.476 144.031C203.613 137.933 195.224 134.883 186.073 134.883H99.1372V105.916ZM57.9571 147.08H185.31C191.411 147.08 197.512 149.367 202.087 153.179L237.929 185.957C238.692 186.72 240.217 187.482 241.742 187.482H429.34V272.859H401.887V222.548C401.887 219.498 399.599 216.449 395.786 216.449H204.375L168.533 183.67C161.67 177.572 153.281 174.523 144.13 174.523H57.9571V147.08ZM12.2015 186.72H144.893C150.994 186.72 157.094 189.007 161.67 192.818L199.037 226.359C199.8 227.121 201.325 227.884 202.85 227.884H391.211V272.097H101.425C99.1372 272.097 96.8494 273.621 96.0868 275.146L12.2015 467.245V186.72ZM395.024 488.589H15.2519L105.238 283.531H485.772L395.024 488.589Z" fill="black"/>
<path d="M246.318 455.81H234.879V467.245H246.318V455.81Z" fill="black"/>
<path d="M374.434 455.81H362.995V467.245H374.434V455.81Z" fill="black"/>
<path d="M342.405 455.81H330.966V467.245H342.405V455.81Z" fill="black"/>
<path d="M278.347 455.81H266.908V467.245H278.347V455.81Z" fill="black"/>
<path d="M310.376 455.81H298.937V467.245H310.376V455.81Z" fill="black"/>
<path d="M293.876 67.865H292.514C292.434 67.4734 292.293 67.1293 292.091 66.8329C291.894 66.5364 291.652 66.2875 291.367 66.0862C291.085 65.8813 290.772 65.7275 290.428 65.6251C290.084 65.5226 289.725 65.4713 289.352 65.4713C288.671 65.4713 288.054 65.6434 287.502 65.9874C286.953 66.3314 286.515 66.8384 286.19 67.5081C285.867 68.1779 285.706 68.9996 285.706 69.9732C285.706 70.9467 285.867 71.7684 286.19 72.4382C286.515 73.108 286.953 73.6149 287.502 73.959C288.054 74.303 288.671 74.475 289.352 74.475C289.725 74.475 290.084 74.4238 290.428 74.3213C290.772 74.2188 291.085 74.0669 291.367 73.8656C291.652 73.6607 291.894 73.41 292.091 73.1135C292.293 72.8134 292.434 72.4693 292.514 72.0814H293.876C293.773 72.656 293.586 73.1702 293.316 73.6241C293.045 74.0779 292.708 74.464 292.305 74.7825C291.903 75.0972 291.451 75.337 290.949 75.5017C290.452 75.6664 289.919 75.7487 289.352 75.7487C288.393 75.7487 287.54 75.5145 286.793 75.046C286.047 74.5775 285.459 73.9114 285.031 73.0476C284.603 72.1838 284.389 71.159 284.389 69.9732C284.389 68.7873 284.603 67.7625 285.031 66.8987C285.459 66.035 286.047 65.3689 286.793 64.9004C287.54 64.4319 288.393 64.1976 289.352 64.1976C289.919 64.1976 290.452 64.28 290.949 64.4447C291.451 64.6094 291.903 64.851 292.305 65.1694C292.708 65.4841 293.045 65.8684 293.316 66.3223C293.586 66.7725 293.773 67.2867 293.876 67.865Z" fill="black"/>
<path d="M295.9 75.595V67.1623H297.152V68.436H297.24C297.393 68.0187 297.671 67.6802 298.074 67.4203C298.477 67.1604 298.931 67.0305 299.436 67.0305C299.531 67.0305 299.65 67.0323 299.792 67.036C299.935 67.0397 300.043 67.0452 300.116 67.0525V68.3701C300.072 68.3591 299.972 68.3426 299.814 68.3207C299.661 68.2951 299.498 68.2822 299.326 68.2822C298.916 68.2822 298.55 68.3683 298.228 68.5403C297.909 68.7086 297.657 68.9429 297.47 69.243C297.287 69.5395 297.196 69.878 297.196 70.2587V75.595H295.9Z" fill="black"/>
<path d="M304.931 75.7707C304.119 75.7707 303.418 75.5913 302.828 75.2327C302.243 74.8703 301.791 74.3652 301.472 73.7174C301.158 73.0659 301 72.3083 301 71.4445C301 70.5807 301.158 69.8195 301.472 69.1607C301.791 68.4982 302.234 67.9821 302.801 67.6125C303.372 67.2391 304.038 67.0525 304.799 67.0525C305.239 67.0525 305.672 67.1257 306.101 67.2721C306.529 67.4185 306.919 67.6564 307.27 67.9858C307.621 68.3115 307.901 68.7434 308.11 69.2814C308.319 69.8195 308.423 70.4819 308.423 71.2688V71.8178H301.923V70.6979H307.105C307.105 70.2221 307.01 69.7975 306.82 69.4242C306.633 69.0509 306.366 68.7562 306.018 68.5403C305.674 68.3243 305.268 68.2164 304.799 68.2164C304.283 68.2164 303.837 68.3445 303.46 68.6007C303.087 68.8532 302.799 69.1826 302.598 69.5889C302.397 69.9951 302.296 70.4307 302.296 70.8955V71.6422C302.296 72.279 302.406 72.8189 302.625 73.2617C302.849 73.7009 303.158 74.0358 303.553 74.2664C303.948 74.4933 304.408 74.6068 304.931 74.6068C305.272 74.6068 305.579 74.5592 305.853 74.464C306.132 74.3652 306.371 74.2188 306.573 74.0248C306.774 73.8272 306.93 73.582 307.039 73.2892L308.291 73.6405C308.159 74.0651 307.938 74.4384 307.627 74.7605C307.316 75.0789 306.931 75.3278 306.474 75.5072C306.016 75.6828 305.502 75.7707 304.931 75.7707Z" fill="black"/>
<path d="M312.875 75.7926C312.341 75.7926 311.856 75.692 311.42 75.4907C310.985 75.2857 310.639 74.9911 310.383 74.6068C310.127 74.2188 309.999 73.7503 309.999 73.2013C309.999 72.7182 310.094 72.3266 310.284 72.0265C310.474 71.7227 310.729 71.4848 311.047 71.3128C311.366 71.1407 311.717 71.0126 312.101 70.9284C312.489 70.8406 312.879 70.7711 313.271 70.7198C313.783 70.6539 314.198 70.6045 314.517 70.5716C314.839 70.535 315.073 70.4746 315.22 70.3904C315.37 70.3062 315.445 70.1598 315.445 69.9512V69.9073C315.445 69.3656 315.296 68.9447 315 68.6446C314.707 68.3445 314.262 68.1944 313.666 68.1944C313.047 68.1944 312.562 68.3298 312.211 68.6007C311.86 68.8715 311.613 69.1607 311.47 69.4681L310.24 69.0289C310.46 68.5165 310.752 68.1175 311.118 67.8321C311.488 67.5429 311.891 67.3416 312.326 67.2282C312.765 67.111 313.197 67.0525 313.622 67.0525C313.893 67.0525 314.204 67.0854 314.555 67.1513C314.91 67.2135 315.252 67.3434 315.582 67.5411C315.915 67.7387 316.191 68.037 316.411 68.436C316.63 68.8349 316.74 69.3693 316.74 70.0391V75.595H315.445V74.4531H315.379C315.291 74.6361 315.145 74.8319 314.94 75.0405C314.735 75.2491 314.462 75.4266 314.122 75.573C313.781 75.7194 313.366 75.7926 312.875 75.7926ZM313.073 74.6287C313.585 74.6287 314.017 74.5281 314.369 74.3268C314.724 74.1255 314.991 73.8656 315.17 73.5472C315.353 73.2288 315.445 72.8939 315.445 72.5425V71.3567C315.39 71.4226 315.269 71.4829 315.082 71.5378C314.899 71.5891 314.687 71.6348 314.445 71.6751C314.208 71.7117 313.975 71.7446 313.748 71.7739C313.525 71.7995 313.344 71.8215 313.205 71.8398C312.868 71.8837 312.553 71.9551 312.26 72.0539C311.971 72.1491 311.737 72.2936 311.558 72.4876C311.382 72.6779 311.294 72.9378 311.294 73.2672C311.294 73.7174 311.461 74.0578 311.794 74.2884C312.13 74.5153 312.557 74.6287 313.073 74.6287Z" fill="black"/>
<path d="M322.772 67.1623V68.2603H318.402V67.1623H322.772ZM319.676 65.1419H320.972V73.1794C320.972 73.5454 321.025 73.8199 321.131 74.0029C321.241 74.1822 321.38 74.303 321.548 74.3652C321.72 74.4238 321.901 74.4531 322.092 74.4531C322.234 74.4531 322.352 74.4457 322.443 74.4311C322.535 74.4128 322.608 74.3982 322.663 74.3872L322.926 75.5511C322.838 75.584 322.716 75.617 322.558 75.6499C322.401 75.6865 322.201 75.7048 321.96 75.7048C321.594 75.7048 321.235 75.6261 320.884 75.4687C320.536 75.3113 320.247 75.0716 320.016 74.7495C319.79 74.4274 319.676 74.0212 319.676 73.5307V65.1419Z" fill="black"/>
<path d="M328.166 75.7707C327.354 75.7707 326.653 75.5913 326.064 75.2327C325.478 74.8703 325.026 74.3652 324.708 73.7174C324.393 73.0659 324.236 72.3083 324.236 71.4445C324.236 70.5807 324.393 69.8195 324.708 69.1607C325.026 68.4982 325.469 67.9821 326.036 67.6125C326.607 67.2391 327.273 67.0525 328.035 67.0525C328.474 67.0525 328.908 67.1257 329.336 67.2721C329.764 67.4185 330.154 67.6564 330.505 67.9858C330.857 68.3115 331.137 68.7434 331.345 69.2814C331.554 69.8195 331.658 70.4819 331.658 71.2688V71.8178H325.158V70.6979H330.341C330.341 70.2221 330.245 69.7975 330.055 69.4242C329.868 69.0509 329.601 68.7562 329.253 68.5403C328.909 68.3243 328.503 68.2164 328.035 68.2164C327.519 68.2164 327.072 68.3445 326.695 68.6007C326.322 68.8532 326.034 69.1826 325.833 69.5889C325.632 69.9951 325.531 70.4307 325.531 70.8955V71.6422C325.531 72.279 325.641 72.8189 325.861 73.2617C326.084 73.7009 326.393 74.0358 326.788 74.2664C327.184 74.4933 327.643 74.6068 328.166 74.6068C328.507 74.6068 328.814 74.5592 329.089 74.464C329.367 74.3652 329.607 74.2188 329.808 74.0248C330.009 73.8272 330.165 73.582 330.275 73.2892L331.526 73.6405C331.395 74.0651 331.173 74.4384 330.862 74.7605C330.551 75.0789 330.167 75.3278 329.709 75.5072C329.252 75.6828 328.737 75.7707 328.166 75.7707Z" fill="black"/>
<path d="M336.813 75.7707C336.111 75.7707 335.49 75.5932 334.952 75.2381C334.414 74.8795 333.993 74.3744 333.689 73.7229C333.386 73.0677 333.234 72.2936 333.234 71.4006C333.234 70.5149 333.386 69.7463 333.689 69.0948C333.993 68.4433 334.416 67.94 334.958 67.585C335.499 67.23 336.125 67.0525 336.835 67.0525C337.384 67.0525 337.818 67.144 338.136 67.327C338.458 67.5063 338.704 67.7113 338.872 67.9419C339.044 68.1688 339.178 68.3554 339.273 68.5018H339.383V64.3514H340.678V75.595H339.427V74.2993H339.273C339.178 74.4531 339.042 74.647 338.867 74.8813C338.691 75.1119 338.44 75.3187 338.114 75.5017C337.789 75.681 337.355 75.7707 336.813 75.7707ZM336.989 74.6068C337.509 74.6068 337.948 74.4714 338.307 74.2005C338.665 73.926 338.938 73.5472 339.125 73.0641C339.311 72.5773 339.405 72.0155 339.405 71.3786C339.405 70.7491 339.313 70.1983 339.13 69.7261C338.947 69.2503 338.676 68.8807 338.318 68.6171C337.959 68.35 337.516 68.2164 336.989 68.2164C336.44 68.2164 335.982 68.3573 335.616 68.6391C335.254 68.9173 334.981 69.2961 334.798 69.7755C334.619 70.2513 334.529 70.7857 334.529 71.3786C334.529 71.9789 334.621 72.5242 334.804 73.0147C334.991 73.5015 335.265 73.8894 335.627 74.1786C335.993 74.464 336.447 74.6068 336.989 74.6068Z" fill="black"/>
<path d="M347.755 75.595V64.3514H351.686C352.469 64.3514 353.115 64.4868 353.624 64.7576C354.133 65.0248 354.511 65.3853 354.76 65.8392C355.009 66.2894 355.134 66.7889 355.134 67.338C355.134 67.8211 355.048 68.22 354.876 68.5348C354.707 68.8495 354.484 69.0984 354.206 69.2814C353.931 69.4644 353.633 69.5999 353.311 69.6877V69.7975C353.655 69.8195 354.001 69.9402 354.349 70.1598C354.696 70.3794 354.987 70.6942 355.221 71.1041C355.456 71.5141 355.573 72.0155 355.573 72.6084C355.573 73.1721 355.445 73.679 355.189 74.1292C354.932 74.5793 354.528 74.9362 353.975 75.1997C353.423 75.4632 352.703 75.595 351.818 75.595H347.755ZM349.117 74.3872H351.818C352.707 74.3872 353.338 74.2152 353.712 73.8711C354.089 73.5234 354.277 73.1025 354.277 72.6084C354.277 72.2278 354.18 71.8764 353.986 71.5543C353.792 71.2286 353.516 70.9687 353.157 70.7747C352.799 70.5771 352.374 70.4783 351.883 70.4783H349.117V74.3872ZM349.117 69.2924H351.642C352.052 69.2924 352.422 69.2119 352.751 69.0509C353.084 68.8898 353.347 68.6629 353.541 68.3701C353.739 68.0773 353.838 67.7332 353.838 67.338C353.838 66.8438 353.666 66.4248 353.322 66.0807C352.978 65.733 352.432 65.5592 351.686 65.5592H349.117V69.2924Z" fill="black"/>
<path d="M358.469 78.7573C358.249 78.7573 358.053 78.739 357.881 78.7024C357.709 78.6694 357.59 78.6365 357.525 78.6035L357.854 77.4616C358.169 77.5421 358.447 77.5714 358.688 77.5495C358.93 77.5275 359.144 77.4195 359.331 77.2255C359.521 77.0352 359.695 76.7259 359.852 76.2977L360.094 75.6389L356.976 67.1623H358.381L360.709 73.8821H360.797L363.124 67.1623H364.53L360.95 76.8248C360.789 77.2603 360.59 77.6208 360.352 77.9063C360.114 78.1955 359.838 78.4096 359.523 78.5486C359.212 78.6877 358.86 78.7573 358.469 78.7573Z" fill="black"/>
<path d="M375.112 75.595V64.3514H378.911C379.793 64.3514 380.514 64.5106 381.074 64.829C381.638 65.1438 382.055 65.5702 382.326 66.1082C382.597 66.6462 382.732 67.2465 382.732 67.9089C382.732 68.5714 382.597 69.1735 382.326 69.7151C382.059 70.2568 381.645 70.6887 381.085 71.0108C380.525 71.3292 379.808 71.4884 378.933 71.4884H376.21V70.2806H378.889C379.493 70.2806 379.978 70.1763 380.344 69.9677C380.71 69.7591 380.975 69.4772 381.14 69.1222C381.308 68.7635 381.393 68.3591 381.393 67.9089C381.393 67.4587 381.308 67.0561 381.14 66.7011C380.975 66.3461 380.708 66.0679 380.338 65.8666C379.969 65.6617 379.478 65.5592 378.867 65.5592H376.473V75.595H375.112Z" fill="black"/>
<path d="M388.195 75.7707C387.382 75.7707 386.681 75.5913 386.092 75.2327C385.506 74.8703 385.054 74.3652 384.736 73.7174C384.421 73.0659 384.264 72.3083 384.264 71.4445C384.264 70.5807 384.421 69.8195 384.736 69.1607C385.054 68.4982 385.497 67.9821 386.065 67.6125C386.636 67.2391 387.302 67.0525 388.063 67.0525C388.502 67.0525 388.936 67.1257 389.364 67.2721C389.792 67.4185 390.182 67.6564 390.533 67.9858C390.885 68.3115 391.165 68.7434 391.373 69.2814C391.582 69.8195 391.686 70.4819 391.686 71.2688V71.8178H385.186V70.6979H390.369C390.369 70.2221 390.274 69.7975 390.083 69.4242C389.897 69.0509 389.629 68.7562 389.282 68.5403C388.938 68.3243 388.531 68.2164 388.063 68.2164C387.547 68.2164 387.1 68.3445 386.723 68.6007C386.35 68.8532 386.063 69.1826 385.861 69.5889C385.66 69.9951 385.56 70.4307 385.56 70.8955V71.6422C385.56 72.279 385.669 72.8189 385.889 73.2617C386.112 73.7009 386.421 74.0358 386.817 74.2664C387.212 74.4933 387.671 74.6068 388.195 74.6068C388.535 74.6068 388.843 74.5592 389.117 74.464C389.395 74.3652 389.635 74.2188 389.836 74.0248C390.038 73.8272 390.193 73.582 390.303 73.2892L391.555 73.6405C391.423 74.0651 391.201 74.4384 390.89 74.7605C390.579 75.0789 390.195 75.3278 389.737 75.5072C389.28 75.6828 388.766 75.7707 388.195 75.7707Z" fill="black"/>
<path d="M393.657 75.595V67.1623H394.909V68.436H394.997C395.151 68.0187 395.429 67.6802 395.831 67.4203C396.234 67.1604 396.688 67.0305 397.193 67.0305C397.288 67.0305 397.407 67.0323 397.55 67.036C397.693 67.0397 397.8 67.0452 397.874 67.0525V68.3701C397.83 68.3591 397.729 68.3426 397.572 68.3207C397.418 68.2951 397.255 68.2822 397.083 68.2822C396.673 68.2822 396.307 68.3683 395.985 68.5403C395.667 68.7086 395.414 68.9429 395.227 69.243C395.044 69.5395 394.953 69.878 394.953 70.2587V75.595H393.657Z" fill="black"/>
<path d="M399.41 75.595V67.1623H400.705V75.595H399.41ZM400.068 65.7568C399.816 65.7568 399.598 65.6708 399.415 65.4988C399.236 65.3268 399.146 65.12 399.146 64.8784C399.146 64.6368 399.236 64.4301 399.415 64.258C399.598 64.086 399.816 64 400.068 64C400.321 64 400.537 64.086 400.716 64.258C400.899 64.4301 400.991 64.6368 400.991 64.8784C400.991 65.12 400.899 65.3268 400.716 65.4988C400.537 65.6708 400.321 65.7568 400.068 65.7568Z" fill="black"/>
<path d="M406.504 75.7707C405.713 75.7707 405.033 75.584 404.462 75.2107C403.891 74.8374 403.452 74.3231 403.144 73.668C402.837 73.0128 402.683 72.2644 402.683 71.4226C402.683 70.5661 402.84 69.8103 403.155 69.1552C403.474 68.4964 403.916 67.9821 404.484 67.6125C405.055 67.2391 405.721 67.0525 406.482 67.0525C407.075 67.0525 407.609 67.1623 408.085 67.3819C408.561 67.6015 408.951 67.9089 409.255 68.3042C409.558 68.6995 409.747 69.1607 409.82 69.6877H408.524C408.426 69.3034 408.206 68.963 407.866 68.6665C407.529 68.3664 407.075 68.2164 406.504 68.2164C405.999 68.2164 405.556 68.3481 405.175 68.6116C404.798 68.8715 404.504 69.2393 404.292 69.7151C404.083 70.1873 403.979 70.7418 403.979 71.3786C403.979 72.0301 404.081 72.5974 404.286 73.0806C404.495 73.5637 404.788 73.9388 405.164 74.206C405.545 74.4732 405.992 74.6068 406.504 74.6068C406.841 74.6068 407.146 74.5482 407.421 74.4311C407.695 74.314 407.928 74.1456 408.118 73.926C408.308 73.7064 408.444 73.4429 408.524 73.1355H409.82C409.747 73.6332 409.566 74.0816 409.277 74.4805C408.991 74.8758 408.612 75.1906 408.14 75.4248C407.672 75.6554 407.126 75.7707 406.504 75.7707Z" fill="black"/>
<path d="M415.14 75.7707C414.379 75.7707 413.711 75.5895 413.136 75.2272C412.565 74.8648 412.119 74.3579 411.796 73.7064C411.478 73.0549 411.319 72.2936 411.319 71.4226C411.319 70.5441 411.478 69.7774 411.796 69.1222C412.119 68.4671 412.565 67.9583 413.136 67.596C413.711 67.2336 414.379 67.0525 415.14 67.0525C415.901 67.0525 416.567 67.2336 417.138 67.596C417.713 67.9583 418.159 68.4671 418.478 69.1222C418.8 69.7774 418.961 70.5441 418.961 71.4226C418.961 72.2936 418.8 73.0549 418.478 73.7064C418.159 74.3579 417.713 74.8648 417.138 75.2272C416.567 75.5895 415.901 75.7707 415.14 75.7707ZM415.14 74.6068C415.718 74.6068 416.194 74.4586 416.567 74.1621C416.941 73.8656 417.217 73.4758 417.396 72.9927C417.576 72.5096 417.665 71.9862 417.665 71.4226C417.665 70.8589 417.576 70.3337 417.396 69.8469C417.217 69.3601 416.941 68.9667 416.567 68.6665C416.194 68.3664 415.718 68.2164 415.14 68.2164C414.562 68.2164 414.086 68.3664 413.712 68.6665C413.339 68.9667 413.063 69.3601 412.884 69.8469C412.704 70.3337 412.615 70.8589 412.615 71.4226C412.615 71.9862 412.704 72.5096 412.884 72.9927C413.063 73.4758 413.339 73.8656 413.712 74.1621C414.086 74.4586 414.562 74.6068 415.14 74.6068Z" fill="black"/>
<path d="M422.234 70.5222V75.595H420.939V67.1623H422.19V68.4799H422.3C422.498 68.0517 422.798 67.7076 423.201 67.4478C423.603 67.1842 424.123 67.0525 424.76 67.0525C425.331 67.0525 425.83 67.1696 426.259 67.4038C426.687 67.6344 427.02 67.9858 427.258 68.4579C427.496 68.9264 427.615 69.5193 427.615 70.2367V75.595H426.319V70.3245C426.319 69.6621 426.147 69.146 425.803 68.7763C425.459 68.403 424.987 68.2164 424.387 68.2164C423.973 68.2164 423.603 68.306 423.278 68.4854C422.955 68.6647 422.701 68.9264 422.514 69.2705C422.328 69.6145 422.234 70.0317 422.234 70.5222Z" fill="black"/>
<path d="M437.976 75.595H434.506V64.3514H438.13C439.22 64.3514 440.153 64.5765 440.929 65.0266C441.705 65.4732 442.3 66.1155 442.714 66.9536C443.127 67.7881 443.334 68.7873 443.334 69.9512C443.334 71.1224 443.125 72.1308 442.708 72.9762C442.291 73.818 441.683 74.4659 440.886 74.9197C440.088 75.3699 439.118 75.595 437.976 75.595ZM435.868 74.3872H437.888C438.818 74.3872 439.588 74.2078 440.199 73.8492C440.81 73.4905 441.266 72.9799 441.566 72.3174C441.866 71.655 442.016 70.8662 442.016 69.9512C442.016 69.0435 441.868 68.2621 441.572 67.607C441.275 66.9482 440.832 66.4431 440.243 66.0917C439.654 65.7367 438.92 65.5592 438.042 65.5592H435.868V74.3872Z" fill="black"/>
<path d="M448.978 75.7707C448.165 75.7707 447.464 75.5913 446.875 75.2327C446.29 74.8703 445.838 74.3652 445.519 73.7174C445.204 73.0659 445.047 72.3083 445.047 71.4445C445.047 70.5807 445.204 69.8195 445.519 69.1607C445.838 68.4982 446.28 67.9821 446.848 67.6125C447.419 67.2391 448.085 67.0525 448.846 67.0525C449.285 67.0525 449.719 67.1257 450.147 67.2721C450.575 67.4185 450.965 67.6564 451.317 67.9858C451.668 68.3115 451.948 68.7434 452.157 69.2814C452.365 69.8195 452.47 70.4819 452.47 71.2688V71.8178H445.969V70.6979H451.152C451.152 70.2221 451.057 69.7975 450.866 69.4242C450.68 69.0509 450.413 68.7562 450.065 68.5403C449.721 68.3243 449.315 68.2164 448.846 68.2164C448.33 68.2164 447.884 68.3445 447.507 68.6007C447.133 68.8532 446.846 69.1826 446.645 69.5889C446.443 69.9951 446.343 70.4307 446.343 70.8955V71.6422C446.343 72.279 446.452 72.8189 446.672 73.2617C446.895 73.7009 447.205 74.0358 447.6 74.2664C447.995 74.4933 448.454 74.6068 448.978 74.6068C449.318 74.6068 449.626 74.5592 449.9 74.464C450.178 74.3652 450.418 74.2188 450.619 74.0248C450.821 73.8272 450.976 73.582 451.086 73.2892L452.338 73.6405C452.206 74.0651 451.985 74.4384 451.673 74.7605C451.362 75.0789 450.978 75.3278 450.521 75.5072C450.063 75.6828 449.549 75.7707 448.978 75.7707Z" fill="black"/>
<path d="M460.414 69.0509L459.25 69.3803C459.177 69.1863 459.069 68.9978 458.926 68.8148C458.787 68.6281 458.596 68.4744 458.355 68.3536C458.113 68.2328 457.804 68.1724 457.427 68.1724C456.911 68.1724 456.481 68.2914 456.137 68.5293C455.797 68.7635 455.626 69.0618 455.626 69.4242C455.626 69.7463 455.743 70.0006 455.978 70.1873C456.212 70.374 456.578 70.5295 457.076 70.6539L458.327 70.9614C459.081 71.1444 459.643 71.4244 460.013 71.8014C460.383 72.1747 460.567 72.656 460.567 73.2453C460.567 73.7284 460.428 74.1603 460.15 74.5409C459.876 74.9215 459.491 75.2217 458.997 75.4413C458.503 75.6609 457.928 75.7707 457.273 75.7707C456.413 75.7707 455.701 75.584 455.138 75.2107C454.574 74.8374 454.217 74.292 454.067 73.5747L455.297 73.2672C455.414 73.7211 455.635 74.0614 455.961 74.2884C456.291 74.5153 456.721 74.6287 457.251 74.6287C457.855 74.6287 458.335 74.5006 458.69 74.2444C459.048 73.9846 459.228 73.6735 459.228 73.3111C459.228 73.0183 459.125 72.7731 458.92 72.5755C458.715 72.3742 458.401 72.2241 457.976 72.1253L456.571 71.7959C455.798 71.6129 455.231 71.3292 454.869 70.9449C454.51 70.557 454.331 70.072 454.331 69.4901C454.331 69.0143 454.464 68.5933 454.731 68.2273C455.002 67.8613 455.37 67.574 455.835 67.3654C456.303 67.1568 456.834 67.0525 457.427 67.0525C458.262 67.0525 458.917 67.2355 459.392 67.6015C459.872 67.9675 460.212 68.4506 460.414 69.0509Z" fill="black"/>
<path d="M462.518 75.595V67.1623H463.813V75.595H462.518ZM463.177 65.7568C462.924 65.7568 462.706 65.6708 462.523 65.4988C462.344 65.3268 462.254 65.12 462.254 64.8784C462.254 64.6368 462.344 64.4301 462.523 64.258C462.706 64.086 462.924 64 463.177 64C463.429 64 463.645 64.086 463.824 64.258C464.007 64.4301 464.099 64.6368 464.099 64.8784C464.099 65.12 464.007 65.3268 463.824 65.4988C463.645 65.6708 463.429 65.7568 463.177 65.7568Z" fill="black"/>
<path d="M469.59 78.933C468.964 78.933 468.426 78.8524 467.976 78.6914C467.526 78.534 467.151 78.3254 466.851 78.0655C466.554 77.8093 466.318 77.5348 466.142 77.242L467.175 76.5173C467.292 76.671 467.44 76.8467 467.619 77.0444C467.799 77.2457 468.044 77.4195 468.355 77.5659C468.67 77.716 469.082 77.791 469.59 77.791C470.271 77.791 470.833 77.6263 471.276 77.2969C471.719 76.9675 471.94 76.4514 471.94 75.7487V74.0358H471.83C471.735 74.1895 471.6 74.3799 471.424 74.6068C471.252 74.83 471.003 75.0295 470.677 75.2052C470.355 75.3772 469.92 75.4632 469.371 75.4632C468.69 75.4632 468.079 75.3022 467.537 74.9801C466.999 74.658 466.573 74.1895 466.258 73.5747C465.947 72.9598 465.791 72.2131 465.791 71.3347C465.791 70.4709 465.943 69.7188 466.247 69.0783C466.551 68.4341 466.973 67.9364 467.515 67.585C468.057 67.23 468.683 67.0525 469.393 67.0525C469.942 67.0525 470.377 67.144 470.699 67.327C471.025 67.5063 471.274 67.7113 471.446 67.9419C471.622 68.1688 471.757 68.3554 471.852 68.5018H471.984V67.1623H473.236V75.8366C473.236 76.5612 473.071 77.1505 472.742 77.6044C472.416 78.0619 471.977 78.3968 471.424 78.609C470.875 78.825 470.264 78.933 469.59 78.933ZM469.546 74.2993C470.066 74.2993 470.505 74.1804 470.864 73.9425C471.223 73.7046 471.495 73.3624 471.682 72.9158C471.869 72.4693 471.962 71.935 471.962 71.3128C471.962 70.7052 471.87 70.169 471.687 69.7042C471.504 69.2393 471.234 68.8752 470.875 68.6116C470.516 68.3481 470.073 68.2164 469.546 68.2164C468.997 68.2164 468.54 68.3554 468.174 68.6336C467.811 68.9118 467.539 69.2851 467.356 69.7536C467.176 70.2221 467.087 70.7418 467.087 71.3128C467.087 71.8984 467.178 72.4163 467.361 72.8664C467.548 73.313 467.822 73.6643 468.185 73.9205C468.551 74.1731 469.005 74.2993 469.546 74.2993Z" fill="black"/>
<path d="M476.903 70.5222V75.595H475.607V67.1623H476.859V68.4799H476.969C477.167 68.0517 477.467 67.7076 477.869 67.4478C478.272 67.1842 478.792 67.0525 479.428 67.0525C479.999 67.0525 480.499 67.1696 480.927 67.4038C481.355 67.6344 481.689 67.9858 481.926 68.4579C482.164 68.9264 482.283 69.5193 482.283 70.2367V75.595H480.988V70.3245C480.988 69.6621 480.816 69.146 480.472 68.7763C480.128 68.403 479.655 68.2164 479.055 68.2164C478.642 68.2164 478.272 68.306 477.946 68.4854C477.624 68.6647 477.37 68.9264 477.183 69.2705C476.996 69.6145 476.903 70.0317 476.903 70.5222Z" fill="black"/>
<path d="M284.828 93.9537V82.7101H291.57V83.9179H286.19V87.717H291.065V88.9249H286.19V93.9537H284.828Z" fill="black"/>
<path d="M293.635 93.9537V85.521H294.887V86.7947H294.975C295.129 86.3775 295.407 86.0389 295.809 85.779C296.212 85.5192 296.666 85.3893 297.171 85.3893C297.266 85.3893 297.385 85.3911 297.528 85.3947C297.671 85.3984 297.779 85.4039 297.852 85.4112V86.7288C297.808 86.7178 297.707 86.7014 297.55 86.6794C297.396 86.6538 297.233 86.641 297.061 86.641C296.651 86.641 296.285 86.727 295.963 86.899C295.645 87.0674 295.392 87.3016 295.206 87.6017C295.023 87.8982 294.931 88.2368 294.931 88.6174V93.9537H293.635Z" fill="black"/>
<path d="M302.557 94.1294C301.795 94.1294 301.127 93.9483 300.553 93.5859C299.982 93.2236 299.535 92.7166 299.213 92.0652C298.895 91.4137 298.736 90.6524 298.736 89.7813C298.736 88.9029 298.895 88.1361 299.213 87.481C299.535 86.8258 299.982 86.3171 300.553 85.9547C301.127 85.5924 301.795 85.4112 302.557 85.4112C303.318 85.4112 303.984 85.5924 304.555 85.9547C305.13 86.3171 305.576 86.8258 305.895 87.481C306.217 88.1361 306.378 88.9029 306.378 89.7813C306.378 90.6524 306.217 91.4137 305.895 92.0652C305.576 92.7166 305.13 93.2236 304.555 93.5859C303.984 93.9483 303.318 94.1294 302.557 94.1294ZM302.557 92.9655C303.135 92.9655 303.611 92.8173 303.984 92.5208C304.357 92.2244 304.634 91.8346 304.813 91.3515C304.992 90.8683 305.082 90.3449 305.082 89.7813C305.082 89.2177 304.992 88.6924 304.813 88.2057C304.634 87.7189 304.357 87.3254 303.984 87.0253C303.611 86.7252 303.135 86.5751 302.557 86.5751C301.978 86.5751 301.503 86.7252 301.129 87.0253C300.756 87.3254 300.48 87.7189 300.3 88.2057C300.121 88.6924 300.031 89.2177 300.031 89.7813C300.031 90.3449 300.121 90.8683 300.3 91.3515C300.48 91.8346 300.756 92.2244 301.129 92.5208C301.503 92.8173 301.978 92.9655 302.557 92.9655Z" fill="black"/>
<path d="M308.356 93.9537V85.521H309.607V86.8386H309.717C309.893 86.3884 310.176 86.0389 310.568 85.79C310.96 85.5375 311.43 85.4112 311.979 85.4112C312.535 85.4112 312.998 85.5375 313.368 85.79C313.741 86.0389 314.032 86.3884 314.241 86.8386H314.329C314.545 86.4031 314.869 86.0572 315.301 85.801C315.732 85.5411 316.25 85.4112 316.854 85.4112C317.608 85.4112 318.225 85.6473 318.704 86.1194C319.184 86.5879 319.424 87.3181 319.424 88.31V93.9537H318.128V88.31C318.128 87.6878 317.958 87.2431 317.617 86.9759C317.277 86.7087 316.876 86.5751 316.415 86.5751C315.822 86.5751 315.363 86.7544 315.037 87.1131C314.711 87.4682 314.548 87.9183 314.548 88.4637V93.9537H313.231V88.1782C313.231 87.6987 313.075 87.3126 312.764 87.0198C312.453 86.7233 312.052 86.5751 311.562 86.5751C311.225 86.5751 310.91 86.6648 310.617 86.8441C310.328 87.0235 310.094 87.2723 309.915 87.5908C309.739 87.9055 309.651 88.2697 309.651 88.6833V93.9537H308.356Z" fill="black"/>
<path d="M335.232 82.7101V93.9537H333.915L327.788 85.1257H327.678V93.9537H326.316V82.7101H327.634L333.783 91.5601H333.893V82.7101H335.232Z" fill="black"/>
<path d="M341.207 94.1294C340.445 94.1294 339.777 93.9483 339.203 93.5859C338.632 93.2236 338.185 92.7166 337.863 92.0652C337.545 91.4137 337.386 90.6524 337.386 89.7813C337.386 88.9029 337.545 88.1361 337.863 87.481C338.185 86.8258 338.632 86.3171 339.203 85.9547C339.777 85.5924 340.445 85.4112 341.207 85.4112C341.968 85.4112 342.634 85.5924 343.205 85.9547C343.78 86.3171 344.226 86.8258 344.545 87.481C344.867 88.1361 345.028 88.9029 345.028 89.7813C345.028 90.6524 344.867 91.4137 344.545 92.0652C344.226 92.7166 343.78 93.2236 343.205 93.5859C342.634 93.9483 341.968 94.1294 341.207 94.1294ZM341.207 92.9655C341.785 92.9655 342.261 92.8173 342.634 92.5208C343.007 92.2244 343.284 91.8346 343.463 91.3515C343.642 90.8683 343.732 90.3449 343.732 89.7813C343.732 89.2177 343.642 88.6924 343.463 88.2057C343.284 87.7189 343.007 87.3254 342.634 87.0253C342.261 86.7252 341.785 86.5751 341.207 86.5751C340.628 86.5751 340.153 86.7252 339.779 87.0253C339.406 87.3254 339.13 87.7189 338.95 88.2057C338.771 88.6924 338.681 89.2177 338.681 89.7813C338.681 90.3449 338.771 90.8683 338.95 91.3515C339.13 91.8346 339.406 92.2244 339.779 92.5208C340.153 92.8173 340.628 92.9655 341.207 92.9655Z" fill="black"/>
<path d="M352.32 90.506V85.521H353.616V93.9537H352.32V92.5263H352.232C352.034 92.9546 351.727 93.3187 351.31 93.6188C350.893 93.9153 350.365 94.0635 349.729 94.0635C349.202 94.0635 348.733 93.9483 348.323 93.7177C347.913 93.4834 347.591 93.1321 347.357 92.6636C347.123 92.1914 347.006 91.5967 347.006 90.8793V85.521H348.301V90.7915C348.301 91.4064 348.473 91.8968 348.817 92.2628C349.165 92.6288 349.608 92.8118 350.146 92.8118C350.468 92.8118 350.796 92.7295 351.129 92.5648C351.465 92.4001 351.747 92.1475 351.974 91.8071C352.205 91.4667 352.32 91.033 352.32 90.506Z" fill="black"/>
<path d="M357.284 88.8809V93.9537H355.989V85.521H357.24V86.8386H357.35C357.548 86.4104 357.848 86.0664 358.251 85.8065C358.653 85.543 359.173 85.4112 359.81 85.4112C360.381 85.4112 360.88 85.5283 361.309 85.7626C361.737 85.9932 362.07 86.3445 362.308 86.8167C362.546 87.2852 362.665 87.8781 362.665 88.5954V93.9537H361.369V88.6833C361.369 88.0208 361.197 87.5048 360.853 87.1351C360.509 86.7618 360.037 86.5751 359.436 86.5751C359.023 86.5751 358.653 86.6648 358.327 86.8441C358.005 87.0235 357.751 87.2852 357.564 87.6292C357.378 87.9732 357.284 88.3905 357.284 88.8809Z" fill="black"/>
<path d="M369.556 93.9537V82.7101H373.355C374.237 82.7101 374.958 82.8693 375.518 83.1877C376.082 83.5025 376.499 83.9289 376.77 84.4669C377.041 85.0049 377.176 85.6052 377.176 86.2677C377.176 86.9301 377.041 87.5322 376.77 88.0739C376.503 88.6156 376.089 89.0475 375.529 89.3695C374.969 89.688 374.252 89.8472 373.377 89.8472H370.654V88.6394H373.333C373.937 88.6394 374.422 88.5351 374.788 88.3264C375.154 88.1178 375.419 87.836 375.584 87.481C375.752 87.1223 375.837 86.7178 375.837 86.2677C375.837 85.8175 375.752 85.4149 375.584 85.0599C375.419 84.7048 375.152 84.4267 374.783 84.2254C374.413 84.0204 373.922 83.9179 373.311 83.9179H370.918V93.9537H369.556Z" fill="black"/>
<path d="M379.194 93.9537V85.521H380.445V86.7947H380.533C380.687 86.3775 380.965 86.0389 381.368 85.779C381.77 85.5192 382.224 85.3893 382.729 85.3893C382.825 85.3893 382.943 85.3911 383.086 85.3947C383.229 85.3984 383.337 85.4039 383.41 85.4112V86.7288C383.366 86.7178 383.266 86.7014 383.108 86.6794C382.954 86.6538 382.792 86.641 382.62 86.641C382.21 86.641 381.844 86.727 381.522 86.899C381.203 87.0674 380.951 87.3016 380.764 87.6017C380.581 87.8982 380.489 88.2368 380.489 88.6174V93.9537H379.194Z" fill="black"/>
<path d="M388.115 94.1294C387.354 94.1294 386.686 93.9483 386.111 93.5859C385.54 93.2236 385.094 92.7166 384.772 92.0652C384.453 91.4137 384.294 90.6524 384.294 89.7813C384.294 88.9029 384.453 88.1361 384.772 87.481C385.094 86.8258 385.54 86.3171 386.111 85.9547C386.686 85.5924 387.354 85.4112 388.115 85.4112C388.876 85.4112 389.542 85.5924 390.113 85.9547C390.688 86.3171 391.135 86.8258 391.453 87.481C391.775 88.1361 391.936 88.9029 391.936 89.7813C391.936 90.6524 391.775 91.4137 391.453 92.0652C391.135 92.7166 390.688 93.2236 390.113 93.5859C389.542 93.9483 388.876 94.1294 388.115 94.1294ZM388.115 92.9655C388.693 92.9655 389.169 92.8173 389.543 92.5208C389.916 92.2244 390.192 91.8346 390.372 91.3515C390.551 90.8683 390.641 90.3449 390.641 89.7813C390.641 89.2177 390.551 88.6924 390.372 88.2057C390.192 87.7189 389.916 87.3254 389.543 87.0253C389.169 86.7252 388.693 86.5751 388.115 86.5751C387.537 86.5751 387.061 86.7252 386.688 87.0253C386.314 87.3254 386.038 87.7189 385.859 88.2057C385.679 88.6924 385.59 89.2177 385.59 89.7813C385.59 90.3449 385.679 90.8683 385.859 91.3515C386.038 91.8346 386.314 92.2244 386.688 92.5208C387.061 92.8173 387.537 92.9655 388.115 92.9655Z" fill="black"/>
<path d="M393.914 85.521H395.21V94.5686C395.21 95.0884 395.12 95.5385 394.941 95.9192C394.765 96.2998 394.498 96.5945 394.139 96.8031C393.784 97.0117 393.336 97.116 392.794 97.116C392.75 97.116 392.706 97.116 392.662 97.116C392.618 97.116 392.574 97.116 392.53 97.116V95.9082C392.574 95.9082 392.615 95.9082 392.651 95.9082C392.688 95.9082 392.728 95.9082 392.772 95.9082C393.167 95.9082 393.456 95.7911 393.639 95.5568C393.822 95.3263 393.914 94.9969 393.914 94.5686V85.521ZM394.551 84.1156C394.298 84.1156 394.08 84.0296 393.897 83.8575C393.718 83.6855 393.628 83.4787 393.628 83.2372C393.628 82.9956 393.718 82.7888 393.897 82.6168C394.08 82.4448 394.298 82.3587 394.551 82.3587C394.803 82.3587 395.019 82.4448 395.199 82.6168C395.382 82.7888 395.473 82.9956 395.473 83.2372C395.473 83.4787 395.382 83.6855 395.199 83.8575C395.019 84.0296 394.803 84.1156 394.551 84.1156Z" fill="black"/>
<path d="M401.118 94.1294C400.306 94.1294 399.605 93.9501 399.016 93.5914C398.43 93.2291 397.978 92.724 397.66 92.0761C397.345 91.4247 397.187 90.667 397.187 89.8033C397.187 88.9395 397.345 88.1782 397.66 87.5194C397.978 86.8569 398.421 86.3409 398.988 85.9712C399.559 85.5979 400.225 85.4112 400.987 85.4112C401.426 85.4112 401.859 85.4844 402.288 85.6308C402.716 85.7772 403.106 86.0151 403.457 86.3445C403.808 86.6703 404.088 87.1022 404.297 87.6402C404.506 88.1782 404.61 88.8407 404.61 89.6276V90.1766H398.11V89.0566H403.292C403.292 88.5808 403.197 88.1562 403.007 87.7829C402.82 87.4096 402.553 87.115 402.205 86.899C401.861 86.6831 401.455 86.5751 400.987 86.5751C400.47 86.5751 400.024 86.7032 399.647 86.9594C399.274 87.212 398.986 87.5414 398.785 87.9476C398.584 88.3539 398.483 88.7894 398.483 89.2543V90.0009C398.483 90.6377 398.593 91.1776 398.812 91.6205C399.036 92.0597 399.345 92.3946 399.74 92.6251C400.136 92.8521 400.595 92.9655 401.118 92.9655C401.459 92.9655 401.766 92.918 402.041 92.8228C402.319 92.724 402.559 92.5776 402.76 92.3836C402.961 92.1859 403.117 91.9407 403.227 91.6479L404.478 91.9993C404.346 92.4238 404.125 92.7972 403.814 93.1193C403.503 93.4377 403.119 93.6866 402.661 93.8659C402.204 94.0416 401.689 94.1294 401.118 94.1294Z" fill="black"/>
<path d="M410.007 94.1294C409.216 94.1294 408.535 93.9428 407.964 93.5694C407.393 93.1961 406.954 92.6819 406.647 92.0267C406.339 91.3716 406.186 90.6231 406.186 89.7813C406.186 88.9249 406.343 88.1691 406.658 87.5139C406.976 86.8551 407.419 86.3409 407.986 85.9712C408.557 85.5979 409.223 85.4112 409.985 85.4112C410.578 85.4112 411.112 85.521 411.588 85.7406C412.064 85.9602 412.453 86.2677 412.757 86.6629C413.061 87.0582 413.249 87.5194 413.323 88.0464H412.027C411.928 87.6621 411.709 87.3218 411.368 87.0253C411.032 86.7252 410.578 86.5751 410.007 86.5751C409.502 86.5751 409.059 86.7069 408.678 86.9704C408.301 87.2303 408.007 87.5981 407.794 88.0739C407.586 88.546 407.481 89.1005 407.481 89.7374C407.481 90.3889 407.584 90.9562 407.789 91.4393C407.997 91.9224 408.29 92.2976 408.667 92.5648C409.048 92.8319 409.494 92.9655 410.007 92.9655C410.343 92.9655 410.649 92.907 410.924 92.7898C411.198 92.6727 411.43 92.5044 411.621 92.2848C411.811 92.0652 411.947 91.8016 412.027 91.4942H413.323C413.249 91.992 413.068 92.4403 412.779 92.8393C412.494 93.2345 412.115 93.5493 411.643 93.7836C411.174 94.0141 410.629 94.1294 410.007 94.1294Z" fill="black"/>
<path d="M418.884 85.521V86.619H414.514V85.521H418.884ZM415.788 83.5007H417.083V91.5381C417.083 91.9041 417.136 92.1786 417.243 92.3616C417.352 92.541 417.491 92.6617 417.66 92.724C417.832 92.7825 418.013 92.8118 418.203 92.8118C418.346 92.8118 418.463 92.8045 418.555 92.7898C418.646 92.7715 418.719 92.7569 418.774 92.7459L419.038 93.9098C418.95 93.9428 418.827 93.9757 418.67 94.0086C418.513 94.0452 418.313 94.0635 418.072 94.0635C417.706 94.0635 417.347 93.9849 416.996 93.8275C416.648 93.6701 416.359 93.4304 416.128 93.1083C415.901 92.7862 415.788 92.3799 415.788 91.8895V83.5007Z" fill="black"/>
</g>
<defs>
<clipPath id="clip0_233_309">
<rect width="500" height="500" fill="white"/>
</clipPath>
</defs>
</svg>
